<svg width="24" height="24" viewBox="0 0 24 24" fill="none" xmlns="http://www.w3.org/2000/svg">
<path d="M12.0871 0C10.8171 0 9.68709 0.8 9.26709 2H3.08709V4H5.03709L2.08709 11C1.61709 13 3.08709 14 5.58709 14C8.08709 14 9.64709 13 9.08709 11L6.13709 4H9.25709C9.58709 4.85 10.2371 5.5 11.0871 5.83V17H2.08709V19H22.0871V17H13.0871V5.82C13.9371 5.5 14.5871 4.85 14.9071 4H18.0371L15.0871 11C14.6171 13 16.0871 14 18.5871 14C21.0871 14 22.6471 13 22.0871 11L19.1371 4H21.0871V2H14.9171C14.4871 0.8 13.3571 0 12.0871 0ZM12.0871 2C12.3523 2 12.6067 2.10536 12.7942 2.29289C12.9817 2.48043 13.0871 2.73478 13.0871 3C13.0871 3.26522 12.9817 3.51957 12.7942 3.70711C12.6067 3.89464 12.3523 4 12.0871 4C11.8219 4 11.5675 3.89464 11.38 3.70711C11.1924 3.51957 11.0871 3.26522 11.0871 3C11.0871 2.73478 11.1924 2.48043 11.38 2.29289C11.5675 2.10536 11.8219 2 12.0871 2M5.58709 7.25L7.08709 11H4.08709L5.58709 7.25ZM18.5871 7.25L20.0871 11H17.0871L18.5871 7.25Z" fill="#151313"/>
</svg>
