<svg width="327" height="376" viewBox="0 0 327 376" fill="none" xmlns="http://www.w3.org/2000/svg">
<path fill-rule="evenodd" clip-rule="evenodd" d="M16 176C24.8366 176 32 168.837 32 160C32 151.163 24.8366 144 16 144C7.16344 144 0 151.163 0 160C0 168.837 7.16344 176 16 176Z" fill="#FEFACA"/>
<path fill-rule="evenodd" clip-rule="evenodd" d="M16 140C24.8366 140 32 132.837 32 124C32 115.163 24.8366 108 16 108C7.16344 108 0 115.163 0 124C0 132.837 7.16344 140 16 140Z" fill="#91C8C3"/>
<path fill-rule="evenodd" clip-rule="evenodd" d="M69 176C77.8366 176 85 168.837 85 160C85 151.163 77.8366 144 69 144C60.1634 144 53 151.163 53 160C53 168.837 60.1634 176 69 176Z" fill="#FEFACA"/>
<path fill-rule="evenodd" clip-rule="evenodd" d="M69 140C77.8366 140 85 132.837 85 124C85 115.163 77.8366 108 69 108C60.1634 108 53 115.163 53 124C53 132.837 60.1634 140 69 140Z" fill="#91C8C3"/>
<path fill-rule="evenodd" clip-rule="evenodd" d="M119 176C127.837 176 135 168.837 135 160C135 151.163 127.837 144 119 144C110.163 144 103 151.163 103 160C103 168.837 110.163 176 119 176Z" fill="#FEFACA"/>
<path fill-rule="evenodd" clip-rule="evenodd" d="M119 140C127.837 140 135 132.837 135 124C135 115.163 127.837 108 119 108C110.163 108 103 115.163 103 124C103 132.837 110.163 140 119 140Z" fill="#91C8C3"/>
<path fill-rule="evenodd" clip-rule="evenodd" d="M170 176C178.837 176 186 168.837 186 160C186 151.163 178.837 144 170 144C161.163 144 154 151.163 154 160C154 168.837 161.163 176 170 176Z" fill="#FEFACA"/>
<path fill-rule="evenodd" clip-rule="evenodd" d="M170 140C178.837 140 186 132.837 186 124C186 115.163 178.837 108 170 108C161.163 108 154 115.163 154 124C154 132.837 161.163 140 170 140Z" fill="#91C8C3"/>
<path fill-rule="evenodd" clip-rule="evenodd" d="M218 176C226.837 176 234 168.837 234 160C234 151.163 226.837 144 218 144C209.163 144 202 151.163 202 160C202 168.837 209.163 176 218 176Z" fill="#FEFACA"/>
<path fill-rule="evenodd" clip-rule="evenodd" d="M218 140C226.837 140 234 132.837 234 124C234 115.163 226.837 108 218 108C209.163 108 202 115.163 202 124C202 132.837 209.163 140 218 140Z" fill="#91C8C3"/>
<path fill-rule="evenodd" clip-rule="evenodd" d="M266 140C274.837 140 282 132.837 282 124C282 115.163 274.837 108 266 108C257.163 108 250 115.163 250 124C250 132.837 257.163 140 266 140Z" fill="#91C8C3"/>
<path fill-rule="evenodd" clip-rule="evenodd" d="M311 140C319.837 140 327 132.837 327 124C327 115.163 319.837 108 311 108C302.163 108 295 115.163 295 124C295 132.837 302.163 140 311 140Z" fill="#91C8C3"/>
<path fill-rule="evenodd" clip-rule="evenodd" d="M69 105C77.8366 105 85 97.8366 85 89C85 80.1634 77.8366 73 69 73C60.1634 73 53 80.1634 53 89C53 97.8366 60.1634 105 69 105Z" fill="#A0A7D6"/>
<path fill-rule="evenodd" clip-rule="evenodd" d="M16 105C24.8366 105 32 97.8366 32 89C32 80.1634 24.8366 73 16 73C7.16344 73 0 80.1634 0 89C0 97.8366 7.16344 105 16 105Z" fill="#A0A7D6"/>
<path fill-rule="evenodd" clip-rule="evenodd" d="M311 70C319.837 70 327 62.8366 327 54C327 45.1634 319.837 38 311 38C302.163 38 295 45.1634 295 54C295 62.8366 302.163 70 311 70Z" fill="#A0A7D6"/>
<path fill-rule="evenodd" clip-rule="evenodd" d="M266 70C274.837 70 282 62.8366 282 54C282 45.1634 274.837 38 266 38C257.163 38 250 45.1634 250 54C250 62.8366 257.163 70 266 70Z" fill="#A0A7D6"/>
<path fill-rule="evenodd" clip-rule="evenodd" d="M220 70C228.837 70 236 62.8366 236 54C236 45.1634 228.837 38 220 38C211.163 38 204 45.1634 204 54C204 62.8366 211.163 70 220 70Z" fill="#A0A7D6"/>
<path fill-rule="evenodd" clip-rule="evenodd" d="M119 105C127.837 105 135 97.8366 135 89C135 80.1634 127.837 73 119 73C110.163 73 103 80.1634 103 89C103 97.8366 110.163 105 119 105Z" fill="#F8CFD3"/>
<path fill-rule="evenodd" clip-rule="evenodd" d="M170 105C178.837 105 186 97.8366 186 89C186 80.1634 178.837 73 170 73C161.163 73 154 80.1634 154 89C154 97.8366 161.163 105 170 105Z" fill="#F8CFD3"/>
<path fill-rule="evenodd" clip-rule="evenodd" d="M220 105C228.837 105 236 97.8366 236 89C236 80.1634 228.837 73 220 73C211.163 73 204 80.1634 204 89C204 97.8366 211.163 105 220 105Z" fill="#F8CFD3"/>
<path fill-rule="evenodd" clip-rule="evenodd" d="M266 105C274.837 105 282 97.8366 282 89C282 80.1634 274.837 73 266 73C257.163 73 250 80.1634 250 89C250 97.8366 257.163 105 266 105Z" fill="#F8CFD3"/>
<path fill-rule="evenodd" clip-rule="evenodd" d="M311 105C319.837 105 327 97.8366 327 89C327 80.1634 319.837 73 311 73C302.163 73 295 80.1634 295 89C295 97.8366 302.163 105 311 105Z" fill="#F8CFD3"/>
<path opacity="0.5" d="M6.70598 13.1987C8.63957 13.1987 9.83195 12.2266 9.83195 10.6904V10.6851C9.83195 9.47656 9.1176 8.82129 7.47942 8.48291L6.65764 8.31641C5.74455 8.12842 5.36858 7.82764 5.36858 7.32275V7.31738C5.36858 6.7373 5.90031 6.37207 6.70061 6.3667C7.51701 6.3667 8.05412 6.75342 8.14543 7.30664L8.15617 7.37109H9.68156L9.67619 7.30127C9.57414 6.00684 8.51067 5.05078 6.70061 5.05078C4.98186 5.05078 3.74651 6.00146 3.74651 7.44092V7.44629C3.74651 8.62256 4.43938 9.37451 6.0507 9.70215L6.86711 9.86865C7.82854 10.0674 8.20988 10.3521 8.20988 10.8623V10.8677C8.20988 11.4639 7.61369 11.8774 6.74895 11.8774C5.84123 11.8774 5.21281 11.4854 5.15373 10.9053L5.14836 10.8516H3.58537L3.59074 10.9375C3.68205 12.3125 4.85295 13.1987 6.70598 13.1987ZM14.6122 13.1987C16.6103 13.1987 17.8564 12.0439 17.8564 10.3252V5.24951H16.2343V10.1802C16.2343 11.1846 15.6542 11.8237 14.6122 11.8237C13.5702 11.8237 12.9848 11.1846 12.9848 10.1802V5.24951H11.3627V10.3252C11.3627 12.0493 12.6249 13.1987 14.6122 13.1987ZM19.7363 13H21.2885V8.04248H21.3744L24.9623 13H26.3051V5.24951H24.7529V10.1855H24.6669L21.0898 5.24951H19.7363V13Z" fill="#090909"/>
<path opacity="0.5" d="M56.2857 13H57.7306V7.72559H57.838L59.8253 13H60.8404L62.8277 7.72559H62.9352V13H64.38V5.24951H62.5216L60.3839 10.9214H60.2872L58.1441 5.24951H56.2857V13ZM69.6544 13.1987C71.9425 13.1987 73.3819 11.6304 73.3819 9.12744V9.1167C73.3819 6.61377 71.9371 5.05078 69.6544 5.05078C67.3717 5.05078 65.9215 6.6084 65.9215 9.1167V9.12744C65.9215 11.6304 67.3502 13.1987 69.6544 13.1987ZM69.6544 11.8237C68.3761 11.8237 67.5758 10.7656 67.5758 9.12744V9.1167C67.5758 7.47314 68.3922 6.42578 69.6544 6.42578C70.9112 6.42578 71.7276 7.47314 71.7276 9.1167V9.12744C71.7276 10.7656 70.9166 11.8237 69.6544 11.8237ZM74.9234 13H76.4757V8.04248H76.5616L80.1495 13H81.4923V5.24951H79.94V10.1855H79.8541L76.277 5.24951H74.9234V13Z" fill="#090909"/>
<path opacity="0.5" d="M110.105 13H111.727V6.58691H114.052V5.24951H107.779V6.58691H110.105V13ZM118.731 13.1987C120.729 13.1987 121.975 12.0439 121.975 10.3252V5.24951H120.353V10.1802C120.353 11.1846 119.773 11.8237 118.731 11.8237C117.689 11.8237 117.103 11.1846 117.103 10.1802V5.24951H115.481V10.3252C115.481 12.0493 116.743 13.1987 118.731 13.1987ZM123.855 13H128.989V11.6626H125.477V9.70215H128.791V8.45605H125.477V6.58691H128.989V5.24951H123.855V13Z" fill="#090909"/>
<path opacity="0.5" d="M157.587 13H159.117L160.568 7.7793H160.654L162.12 13H163.64L165.697 5.24951H164.021L162.823 10.7871H162.738L161.298 5.24951H159.928L158.516 10.7871H158.43L157.221 5.24951H155.535L157.587 13ZM167.11 13H172.244V11.6626H168.732V9.70215H172.046V8.45605H168.732V6.58691H172.244V5.24951H167.11V13ZM173.952 13H177.003C179.323 13 180.639 11.582 180.639 9.0791V9.06836C180.639 6.64062 179.307 5.24951 177.003 5.24951H173.952V13ZM175.574 11.6626V6.58691H176.745C178.153 6.58691 178.985 7.5 178.985 9.09521V9.10596C178.985 10.7603 178.179 11.6626 176.745 11.6626H175.574Z" fill="#090909"/>
<path opacity="0.5" d="M207.792 13H209.414V6.58691H211.74V5.24951H205.467V6.58691H207.792V13ZM213.174 13H214.796V9.73438H218.288V13H219.91V5.24951H218.288V8.39697H214.796V5.24951H213.174V13ZM225.034 13.1987C227.032 13.1987 228.278 12.0439 228.278 10.3252V5.24951H226.656V10.1802C226.656 11.1846 226.076 11.8237 225.034 11.8237C223.992 11.8237 223.406 11.1846 223.406 10.1802V5.24951H221.784V10.3252C221.784 12.0493 223.046 13.1987 225.034 13.1987Z" fill="#090909"/>
<path opacity="0.5" d="M257.616 13H259.238V9.94922H262.391V8.66553H259.238V6.58691H262.692V5.24951H257.616V13ZM264.191 13H265.813V10.1641H267.139L268.584 13H270.421L268.788 9.92236C269.674 9.57324 270.19 8.71924 270.19 7.72559V7.71484C270.19 6.18945 269.18 5.24951 267.419 5.24951H264.191V13ZM265.813 8.98242V6.51709H267.22C268.031 6.51709 268.53 7.00049 268.53 7.74707V7.75781C268.53 8.52051 268.052 8.98242 267.241 8.98242H265.813ZM271.828 13H273.45V5.24951H271.828V13Z" fill="#090909"/>
<path opacity="0.5" d="M304.186 13.1987C306.119 13.1987 307.312 12.2266 307.312 10.6904V10.6851C307.312 9.47656 306.597 8.82129 304.959 8.48291L304.137 8.31641C303.224 8.12842 302.848 7.82764 302.848 7.32275V7.31738C302.848 6.7373 303.38 6.37207 304.18 6.3667C304.997 6.3667 305.534 6.75342 305.625 7.30664L305.636 7.37109H307.161L307.156 7.30127C307.054 6.00684 305.99 5.05078 304.18 5.05078C302.462 5.05078 301.226 6.00146 301.226 7.44092V7.44629C301.226 8.62256 301.919 9.37451 303.531 9.70215L304.347 9.86865C305.308 10.0674 305.69 10.3521 305.69 10.8623V10.8677C305.69 11.4639 305.093 11.8774 304.229 11.8774C303.321 11.8774 302.693 11.4854 302.634 10.9053L302.628 10.8516H301.065L301.071 10.9375C301.162 12.3125 302.333 13.1987 304.186 13.1987ZM308.295 13H309.997L310.572 11.1201H313.306L313.881 13H315.589L312.892 5.24951H310.986L308.295 13ZM311.893 6.79639H311.99L312.935 9.90625H310.943L311.893 6.79639ZM317.947 13H319.569V6.58691H321.894V5.24951H315.621V6.58691H317.947V13Z" fill="#090909"/>
<path opacity="0.5" d="M8.45232 58.6484H15.2492V57.7402H9.85124V57.6523L12.6198 54.7812C14.4802 52.855 14.9928 51.9834 14.9928 50.8042V50.7896C14.9928 49.1123 13.6012 47.8599 11.7775 47.8599C9.82195 47.8599 8.4157 49.1709 8.39373 50.9946L8.40837 51.002H9.36785V50.9946C9.38249 49.6616 10.342 48.7388 11.7189 48.7388C13.0739 48.7388 13.9748 49.6689 13.9748 50.8848V50.8994C13.9748 51.8589 13.5573 52.4741 12.0925 54.0415L8.45232 57.9453V58.6484ZM20.9474 58.8169C23.1594 58.8169 24.7194 57.5571 24.7194 55.7847V55.77C24.7194 54.4443 23.7599 53.3604 22.3683 53.0601V53.0381C23.5622 52.7012 24.3385 51.8223 24.3385 50.6797V50.665C24.3385 49.0757 22.9177 47.9111 20.9474 47.9111C18.9845 47.9111 17.5636 49.0757 17.5636 50.665V50.6797C17.5636 51.8223 18.34 52.7012 19.5339 53.0381V53.0601C18.1423 53.3604 17.1828 54.4443 17.1828 55.77V55.7847C17.1828 57.5571 18.7428 58.8169 20.9474 58.8169ZM20.9474 52.6572C19.5412 52.6572 18.5597 51.8662 18.5597 50.7603V50.7456C18.5597 49.6177 19.5339 48.7827 20.9474 48.7827C22.3683 48.7827 23.3425 49.6177 23.3425 50.7456V50.7603C23.3425 51.8662 22.361 52.6572 20.9474 52.6572ZM20.9474 57.938C19.3288 57.938 18.2009 57.0078 18.2009 55.7261V55.7114C18.2009 54.4443 19.3288 53.5508 20.9474 53.5508C22.5734 53.5508 23.7013 54.4443 23.7013 55.7114V55.7261C23.7013 57.0078 22.5734 57.938 20.9474 57.938Z" fill="black"/>
<path opacity="0.5" d="M60.2648 58.6484H67.0617V57.7402H61.6637V57.6523L64.4323 54.7812C66.2927 52.855 66.8053 51.9834 66.8053 50.8042V50.7896C66.8053 49.1123 65.4137 47.8599 63.59 47.8599C61.6344 47.8599 60.2282 49.1709 60.2062 50.9946L60.2209 51.002H61.1803V50.9946C61.195 49.6616 62.1545 48.7388 63.5314 48.7388C64.8864 48.7388 65.7873 49.6689 65.7873 50.8848V50.8994C65.7873 51.8589 65.3698 52.4741 63.905 54.0415L60.2648 57.9453V58.6484ZM72.6208 47.8599C70.5407 47.8599 68.988 49.3979 68.988 51.478V51.4927C68.988 53.5068 70.4821 55.0156 72.467 55.0156C73.9758 55.0156 75.1037 54.1367 75.4772 53.0747H75.5798C75.5871 53.1772 75.5798 53.2871 75.5798 53.3896C75.5212 55.9019 74.6276 57.9673 72.5622 57.9673C71.3683 57.9673 70.4894 57.2935 70.1965 56.29L70.1745 56.2095H69.1711L69.1857 56.3047C69.508 57.8062 70.7897 58.8682 72.5549 58.8682C75.0451 58.8682 76.5392 56.7148 76.5392 53.082V53.0674C76.5392 49.354 74.6716 47.8599 72.6208 47.8599ZM72.6208 54.1367C71.1193 54.1367 69.9914 53.0015 69.9914 51.4707V51.4561C69.9914 49.9399 71.1633 48.7534 72.6354 48.7534C74.1589 48.7534 75.3014 49.9985 75.3014 51.5439V51.5513C75.3014 53.0015 74.1149 54.1367 72.6208 54.1367Z" fill="black"/>
<path opacity="0.5" d="M114.266 58.8169C116.346 58.8169 117.877 57.5205 117.877 55.77V55.7554C117.877 54.2539 116.822 53.2725 115.248 53.1479V53.1187C116.595 52.8477 117.496 51.9321 117.496 50.6284V50.6138C117.496 49.0391 116.171 47.9111 114.222 47.9111C112.303 47.9111 110.992 49.0537 110.839 50.6797L110.831 50.7529H111.798L111.805 50.6797C111.915 49.5591 112.86 48.79 114.222 48.79C115.614 48.79 116.493 49.5444 116.493 50.731V50.7456C116.493 51.9102 115.511 52.7451 114.105 52.7451H112.875V53.6021H114.142C115.826 53.6021 116.859 54.3931 116.859 55.7773V55.792C116.859 57.0444 115.79 57.938 114.266 57.938C112.728 57.938 111.717 57.1177 111.578 55.9751L111.571 55.9092H110.604L110.611 55.9897C110.78 57.6157 112.135 58.8169 114.266 58.8169ZM123.495 58.8682C125.817 58.8682 127.223 56.7515 127.223 53.375V53.353C127.223 49.9766 125.817 47.8599 123.495 47.8599C121.173 47.8599 119.781 49.9766 119.781 53.353V53.375C119.781 56.7441 121.173 58.8682 123.495 58.8682ZM123.495 57.9893C121.796 57.9893 120.785 56.2095 120.785 53.375V53.353C120.785 50.5186 121.796 48.7461 123.495 48.7461C125.201 48.7461 126.219 50.5112 126.219 53.353V53.375C126.219 56.2095 125.201 57.9893 123.495 57.9893Z" fill="black"/>
<path opacity="0.5" d="M166.337 58.8169C168.417 58.8169 169.948 57.5205 169.948 55.77V55.7554C169.948 54.2539 168.893 53.2725 167.318 53.1479V53.1187C168.666 52.8477 169.567 51.9321 169.567 50.6284V50.6138C169.567 49.0391 168.241 47.9111 166.293 47.9111C164.374 47.9111 163.063 49.0537 162.909 50.6797L162.902 50.7529H163.869L163.876 50.6797C163.986 49.5591 164.931 48.79 166.293 48.79C167.684 48.79 168.563 49.5444 168.563 50.731V50.7456C168.563 51.9102 167.582 52.7451 166.176 52.7451H164.945V53.6021H166.212C167.897 53.6021 168.93 54.3931 168.93 55.7773V55.792C168.93 57.0444 167.86 57.938 166.337 57.938C164.799 57.938 163.788 57.1177 163.649 55.9751L163.641 55.9092H162.675L162.682 55.9897C162.85 57.6157 164.205 58.8169 166.337 58.8169ZM174.657 58.6484H175.653V48.0796H174.664L171.837 50.0352V51.0972L174.569 49.2002H174.657V58.6484Z" fill="black"/>
<path d="M218.885 58.6484H219.882V48.0796H218.893L216.066 50.0352V51.0972L218.798 49.2002H218.885V58.6484Z" fill="black"/>
<path d="M262.334 58.6484H269.131V57.7402H263.733V57.6523L266.502 54.7812C268.362 52.855 268.875 51.9834 268.875 50.8042V50.7896C268.875 49.1123 267.483 47.8599 265.659 47.8599C263.704 47.8599 262.298 49.1709 262.276 50.9946L262.29 51.002H263.25V50.9946C263.264 49.6616 264.224 48.7388 265.601 48.7388C266.956 48.7388 267.857 49.6689 267.857 50.8848V50.8994C267.857 51.8589 267.439 52.4741 265.974 54.0415L262.334 57.9453V58.6484Z" fill="black"/>
<path d="M311.578 58.8169C313.658 58.8169 315.189 57.5205 315.189 55.77V55.7554C315.189 54.2539 314.134 53.2725 312.56 53.1479V53.1187C313.907 52.8477 314.808 51.9321 314.808 50.6284V50.6138C314.808 49.0391 313.482 47.9111 311.534 47.9111C309.615 47.9111 308.304 49.0537 308.15 50.6797L308.143 50.7529H309.11L309.117 50.6797C309.227 49.5591 310.172 48.79 311.534 48.79C312.926 48.79 313.805 49.5444 313.805 50.731V50.7456C313.805 51.9102 312.823 52.7451 311.417 52.7451H310.187V53.6021H311.454C313.138 53.6021 314.171 54.3931 314.171 55.7773V55.792C314.171 57.0444 313.102 57.938 311.578 57.938C310.04 57.938 309.029 57.1177 308.89 55.9751L308.883 55.9092H307.916L307.923 55.9897C308.092 57.6157 309.447 58.8169 311.578 58.8169Z" fill="black"/>
<path d="M17.8702 93.9863H18.8443V91.5986H20.4263V90.6978H18.8443V83.4028H17.4087C15.1016 86.6108 13.8345 88.5884 12.5601 90.6831V91.5986H17.8702V93.9863ZM13.6075 90.7051V90.6392C14.6695 88.8887 15.7242 87.248 17.8042 84.3623H17.8702V90.7051H13.6075Z" fill="black"/>
<path d="M68.3057 94.2061C70.4224 94.2061 71.9532 92.7192 71.9532 90.6245V90.6099C71.9532 88.5811 70.4956 87.0942 68.5181 87.0942C67.4854 87.0942 66.5625 87.541 66.0572 88.3101H65.9619L66.3867 84.3184H71.3306V83.4175H65.5884L65.0025 89.3721H65.8887C66.0059 89.167 66.1451 88.9839 66.2989 88.8301C66.8116 88.2661 67.5367 87.9658 68.3643 87.9658C69.8658 87.9658 70.9717 89.0938 70.9717 90.6318V90.6465C70.9717 92.1992 69.8658 93.3125 68.3203 93.3125C66.9727 93.3125 65.9326 92.4409 65.7862 91.3496L65.7788 91.2983H64.8194L64.8267 91.3716C64.9878 92.9756 66.4014 94.2061 68.3057 94.2061Z" fill="black"/>
<path d="M119.555 94.2061C121.643 94.2061 123.188 92.668 123.188 90.5879V90.5732C123.188 88.5591 121.701 87.0503 119.709 87.0503C118.208 87.0503 117.072 87.9292 116.699 88.9912H116.596C116.596 88.8887 116.596 88.7788 116.596 88.6763C116.655 86.1641 117.556 84.0986 119.614 84.0986C120.815 84.0986 121.687 84.7725 121.98 85.7759L122.001 85.8564H123.012L122.99 85.7612C122.668 84.2598 121.386 83.1978 119.628 83.1978C117.138 83.1978 115.637 85.3511 115.637 88.9839V88.9985C115.637 92.7119 117.512 94.2061 119.555 94.2061ZM116.875 90.522V90.5146C116.875 89.0645 118.068 87.9292 119.555 87.9292C121.064 87.9292 122.185 89.0645 122.185 90.5952V90.6099C122.185 92.126 121.02 93.3125 119.541 93.3125C118.017 93.3125 116.875 92.0674 116.875 90.522Z" fill="black"/>
<path d="M167.134 93.9863H168.203L173.037 84.355V83.4175H166.16V84.3184H172.019V84.3989L167.134 93.9863Z" fill="black"/>
<path d="M218.466 94.1548C220.678 94.1548 222.238 92.895 222.238 91.1226V91.1079C222.238 89.7822 221.278 88.6982 219.887 88.3979V88.376C221.081 88.0391 221.857 87.1602 221.857 86.0176V86.0029C221.857 84.4136 220.436 83.249 218.466 83.249C216.503 83.249 215.082 84.4136 215.082 86.0029V86.0176C215.082 87.1602 215.858 88.0391 217.052 88.376V88.3979C215.661 88.6982 214.701 89.7822 214.701 91.1079V91.1226C214.701 92.895 216.261 94.1548 218.466 94.1548ZM218.466 87.9951C217.06 87.9951 216.078 87.2041 216.078 86.0981V86.0835C216.078 84.9556 217.052 84.1206 218.466 84.1206C219.887 84.1206 220.861 84.9556 220.861 86.0835V86.0981C220.861 87.2041 219.879 87.9951 218.466 87.9951ZM218.466 93.2759C216.847 93.2759 215.719 92.3457 215.719 91.064V91.0493C215.719 89.7822 216.847 88.8887 218.466 88.8887C220.092 88.8887 221.22 89.7822 221.22 91.0493V91.064C221.22 92.3457 220.092 93.2759 218.466 93.2759Z" fill="black"/>
<path d="M265.498 83.1978C263.418 83.1978 261.865 84.7358 261.865 86.8159V86.8306C261.865 88.8447 263.359 90.3535 265.344 90.3535C266.853 90.3535 267.981 89.4746 268.355 88.4126H268.457C268.464 88.5151 268.457 88.625 268.457 88.7275C268.398 91.2397 267.505 93.3052 265.439 93.3052C264.246 93.3052 263.367 92.6313 263.074 91.6279L263.052 91.5474H262.048L262.063 91.6426C262.385 93.144 263.667 94.2061 265.432 94.2061C267.922 94.2061 269.417 92.0527 269.417 88.4199V88.4053C269.417 84.6919 267.549 83.1978 265.498 83.1978ZM265.498 89.4746C263.997 89.4746 262.869 88.3394 262.869 86.8086V86.7939C262.869 85.2778 264.041 84.0913 265.513 84.0913C267.036 84.0913 268.179 85.3364 268.179 86.8818V86.8892C268.179 88.3394 266.992 89.4746 265.498 89.4746Z" fill="black"/>
<path d="M307.254 93.9863H308.25V83.4175H307.262L304.434 85.373V86.4351L307.166 84.5381H307.254V93.9863ZM314.857 94.2061C317.179 94.2061 318.585 92.0894 318.585 88.7129V88.6909C318.585 85.3145 317.179 83.1978 314.857 83.1978C312.535 83.1978 311.143 85.3145 311.143 88.6909V88.7129C311.143 92.082 312.535 94.2061 314.857 94.2061ZM314.857 93.3271C313.158 93.3271 312.147 91.5474 312.147 88.7129V88.6909C312.147 85.8564 313.158 84.084 314.857 84.084C316.563 84.084 317.581 85.8491 317.581 88.6909V88.7129C317.581 91.5474 316.563 93.3271 314.857 93.3271Z" fill="black"/>
<path d="M13.5777 129.325H14.5738V118.756H13.5851L10.7579 120.711V121.773L13.4898 119.876H13.5777V129.325ZM20.2428 129.325H21.2389V118.756H20.2501L17.4229 120.711V121.773L20.1549 119.876H20.2428V129.325Z" fill="black"/>
<path d="M64.2915 129.324H65.2876V118.755H64.2988L61.4717 120.711V121.773L64.2036 119.876H64.2915V129.324ZM68.2685 129.324H75.0654V128.416H69.6675V128.328L72.436 125.457C74.2964 123.531 74.8091 122.659 74.8091 121.48V121.465C74.8091 119.788 73.4175 118.536 71.5937 118.536C69.6382 118.536 68.2319 119.847 68.21 121.67L68.2246 121.678H69.1841V121.67C69.1987 120.337 70.1582 119.415 71.5352 119.415C72.8901 119.415 73.791 120.345 73.791 121.561V121.575C73.791 122.535 73.3735 123.15 71.9087 124.717L68.2685 128.621V129.324Z" fill="black"/>
<path d="M114.726 129.324H115.722V118.755H114.733L111.906 120.711V121.773L114.638 119.876H114.726V129.324ZM122.255 129.493C124.335 129.493 125.866 128.196 125.866 126.446V126.431C125.866 124.93 124.811 123.948 123.237 123.824V123.794C124.584 123.523 125.485 122.608 125.485 121.304V121.29C125.485 119.715 124.16 118.587 122.211 118.587C120.292 118.587 118.981 119.729 118.828 121.355L118.82 121.429H119.787L119.794 121.355C119.904 120.235 120.849 119.466 122.211 119.466C123.603 119.466 124.482 120.22 124.482 121.407V121.421C124.482 122.586 123.5 123.421 122.094 123.421H120.864V124.278H122.131C123.815 124.278 124.848 125.069 124.848 126.453V126.468C124.848 127.72 123.779 128.614 122.255 128.614C120.717 128.614 119.706 127.793 119.567 126.651L119.56 126.585H118.593L118.6 126.666C118.769 128.292 120.124 129.493 122.255 129.493Z" fill="black"/>
<path d="M165.295 129.324H166.291V118.755H165.302L162.475 120.711V121.773L165.207 119.876H165.295V129.324ZM174.274 129.324H175.248V126.937H176.83V126.036H175.248V118.741H173.813C171.506 121.949 170.239 123.926 168.964 126.021V126.937H174.274V129.324ZM170.012 126.043V125.977C171.074 124.227 172.128 122.586 174.208 119.7H174.274V126.043H170.012Z" fill="black"/>
<path d="M214.305 129.324H215.301V118.755H214.312L211.485 120.711V121.773L214.217 119.876H214.305V129.324ZM221.776 129.544C223.892 129.544 225.423 128.057 225.423 125.962V125.948C225.423 123.919 223.966 122.432 221.988 122.432C220.955 122.432 220.033 122.879 219.527 123.648H219.432L219.857 119.656H224.801V118.755H219.058L218.473 124.71H219.359C219.476 124.505 219.615 124.322 219.769 124.168C220.282 123.604 221.007 123.304 221.834 123.304C223.336 123.304 224.442 124.432 224.442 125.97V125.984C224.442 127.537 223.336 128.65 221.79 128.65C220.443 128.65 219.403 127.779 219.256 126.688L219.249 126.636H218.289L218.297 126.709C218.458 128.313 219.871 129.544 221.776 129.544Z" fill="black"/>
<path d="M261.359 129.324H262.355V118.755H261.367L258.539 120.711V121.773L261.271 119.876H261.359V129.324ZM269.145 129.544C271.232 129.544 272.778 128.006 272.778 125.926V125.911C272.778 123.897 271.291 122.388 269.299 122.388C267.797 122.388 266.662 123.267 266.288 124.329H266.186C266.186 124.227 266.186 124.117 266.186 124.014C266.245 121.502 267.145 119.437 269.204 119.437C270.405 119.437 271.276 120.11 271.569 121.114L271.591 121.194H272.602L272.58 121.099C272.258 119.598 270.976 118.536 269.218 118.536C266.728 118.536 265.226 120.689 265.226 124.322V124.336C265.226 128.05 267.101 129.544 269.145 129.544ZM266.464 125.86V125.853C266.464 124.402 267.658 123.267 269.145 123.267C270.654 123.267 271.774 124.402 271.774 125.933V125.948C271.774 127.464 270.61 128.65 269.13 128.65C267.607 128.65 266.464 127.405 266.464 125.86Z" fill="black"/>
<path d="M307.701 129.324H308.697V118.755H307.708L304.881 120.711V121.773L307.613 119.876H307.701V129.324ZM312.374 129.324H313.443L318.277 119.693V118.755H311.4V119.656H317.259V119.737L312.374 129.324Z" fill="black"/>
<path d="M12.1713 164.662H13.1674V154.093H12.1786L9.35146 156.049V157.111L12.0834 155.214H12.1713V164.662ZM19.8251 164.831C22.037 164.831 23.5971 163.571 23.5971 161.798V161.784C23.5971 160.458 22.6376 159.374 21.246 159.074V159.052C22.4398 158.715 23.2162 157.836 23.2162 156.693V156.679C23.2162 155.089 21.7953 153.925 19.8251 153.925C17.8622 153.925 16.4413 155.089 16.4413 156.679V156.693C16.4413 157.836 17.2177 158.715 18.4115 159.052V159.074C17.0199 159.374 16.0604 160.458 16.0604 161.784V161.798C16.0604 163.571 17.6205 164.831 19.8251 164.831ZM19.8251 158.671C18.4188 158.671 17.4374 157.88 17.4374 156.774V156.759C17.4374 155.631 18.4115 154.796 19.8251 154.796C21.246 154.796 22.2201 155.631 22.2201 156.759V156.774C22.2201 157.88 21.2387 158.671 19.8251 158.671ZM19.8251 163.952C18.2064 163.952 17.0785 163.021 17.0785 161.74V161.725C17.0785 160.458 18.2064 159.564 19.8251 159.564C21.4511 159.564 22.579 160.458 22.579 161.725V161.74C22.579 163.021 21.4511 163.952 19.8251 163.952Z" fill="black"/>
<path d="M64.0057 164.662H65.0018V154.093H64.0131L61.1859 156.048V157.11L63.9179 155.213H64.0057V164.662ZM71.4764 153.873C69.3964 153.873 67.8436 155.411 67.8436 157.491V157.506C67.8436 159.52 69.3378 161.029 71.3226 161.029C72.8314 161.029 73.9594 160.15 74.3329 159.088H74.4354C74.4428 159.19 74.4354 159.3 74.4354 159.403C74.3768 161.915 73.4833 163.98 71.4179 163.98C70.224 163.98 69.3451 163.307 69.0521 162.303L69.0302 162.223H68.0267L68.0414 162.318C68.3637 163.819 69.6454 164.881 71.4105 164.881C73.9008 164.881 75.3949 162.728 75.3949 159.095V159.081C75.3949 155.367 73.5272 153.873 71.4764 153.873ZM71.4764 160.15C69.975 160.15 68.8471 159.015 68.8471 157.484V157.469C68.8471 155.953 70.0189 154.767 71.4911 154.767C73.0145 154.767 74.1571 156.012 74.1571 157.557V157.564C74.1571 159.015 72.9706 160.15 71.4764 160.15Z" fill="black"/>
<path d="M110.903 164.662H117.699V163.753H112.301V163.666L115.07 160.794C116.93 158.868 117.443 157.997 117.443 156.817V156.803C117.443 155.125 116.051 153.873 114.228 153.873C112.272 153.873 110.866 155.184 110.844 157.008L110.859 157.015H111.818V157.008C111.833 155.675 112.792 154.752 114.169 154.752C115.524 154.752 116.425 155.682 116.425 156.898V156.913C116.425 157.872 116.007 158.487 114.543 160.055L110.903 163.958V164.662ZM123.346 164.881C125.668 164.881 127.074 162.765 127.074 159.388V159.366C127.074 155.99 125.668 153.873 123.346 153.873C121.025 153.873 119.633 155.99 119.633 159.366V159.388C119.633 162.757 121.025 164.881 123.346 164.881ZM123.346 164.002C121.647 164.002 120.636 162.223 120.636 159.388V159.366C120.636 156.532 121.647 154.759 123.346 154.759C125.053 154.759 126.071 156.524 126.071 159.366V159.388C126.071 162.223 125.053 164.002 123.346 164.002Z" fill="black"/>
<path d="M162.966 164.662H169.763V163.753H164.365V163.666L167.133 160.794C168.994 158.868 169.506 157.997 169.506 156.817V156.803C169.506 155.125 168.115 153.873 166.291 153.873C164.335 153.873 162.929 155.184 162.907 157.008L162.922 157.015H163.881V157.008C163.896 155.675 164.855 154.752 166.232 154.752C167.587 154.752 168.488 155.682 168.488 156.898V156.913C168.488 157.872 168.071 158.487 166.606 160.055L162.966 163.958V164.662ZM174.516 164.662H175.512V154.093H174.523L171.696 156.048V157.11L174.428 155.213H174.516V164.662Z" fill="black"/>
<path d="M210.665 164.662H217.462V163.753H212.064V163.666L214.832 160.794C216.693 158.868 217.205 157.997 217.205 156.817V156.803C217.205 155.125 215.814 153.873 213.99 153.873C212.034 153.873 210.628 155.184 210.606 157.008L210.621 157.015H211.58V157.008C211.595 155.675 212.554 154.752 213.931 154.752C215.286 154.752 216.187 155.682 216.187 156.898V156.913C216.187 157.872 215.77 158.487 214.305 160.055L210.665 163.958V164.662ZM219.615 164.662H226.412V163.753H221.014V163.666L223.783 160.794C225.643 158.868 226.156 157.997 226.156 156.817V156.803C226.156 155.125 224.764 153.873 222.94 153.873C220.985 153.873 219.578 155.184 219.556 157.008L219.571 157.015H220.531V157.008C220.545 155.675 221.505 154.752 222.882 154.752C224.237 154.752 225.137 155.682 225.137 156.898V156.913C225.137 157.872 224.72 158.487 223.255 160.055L219.615 163.958V164.662Z" fill="black"/>
<path d="M257.719 164.662H264.516V163.753H259.118V163.666L261.886 160.794C263.747 158.868 264.259 157.997 264.259 156.817V156.803C264.259 155.125 262.868 153.873 261.044 153.873C259.089 153.873 257.682 155.184 257.66 157.008L257.675 157.015H258.634V157.008C258.649 155.675 259.609 154.752 260.986 154.752C262.34 154.752 263.241 155.682 263.241 156.898V156.913C263.241 157.872 262.824 158.487 261.359 160.055L257.719 163.958V164.662ZM270.177 164.83C272.257 164.83 273.788 163.534 273.788 161.783V161.769C273.788 160.267 272.734 159.286 271.159 159.161V159.132C272.507 158.861 273.407 157.945 273.407 156.642V156.627C273.407 155.052 272.082 153.924 270.133 153.924C268.215 153.924 266.903 155.067 266.75 156.693L266.742 156.766H267.709L267.716 156.693C267.826 155.572 268.771 154.803 270.133 154.803C271.525 154.803 272.404 155.558 272.404 156.744V156.759C272.404 157.923 271.423 158.758 270.016 158.758H268.786V159.615H270.053C271.737 159.615 272.77 160.406 272.77 161.791V161.805C272.77 163.058 271.701 163.951 270.177 163.951C268.639 163.951 267.629 163.131 267.489 161.988L267.482 161.922H266.515L266.523 162.003C266.691 163.629 268.046 164.83 270.177 164.83Z" fill="black"/>
<path d="M303.57 164.662H310.367V163.753H304.969V163.666L307.737 160.794C309.598 158.868 310.111 157.997 310.111 156.817V156.803C310.111 155.125 308.719 153.873 306.895 153.873C304.94 153.873 303.533 155.184 303.511 157.008L303.526 157.015H304.486V157.008C304.5 155.675 305.46 154.752 306.837 154.752C308.192 154.752 309.092 155.682 309.092 156.898V156.913C309.092 157.872 308.675 158.487 307.21 160.055L303.57 163.958V164.662ZM317.215 164.662H318.189V162.274H319.771V161.373H318.189V154.078H316.754C314.446 157.286 313.179 159.264 311.905 161.358V162.274H317.215V164.662ZM312.952 161.38V161.314C314.014 159.564 315.069 157.923 317.149 155.038H317.215V161.38H312.952Z" fill="black"/>
<path d="M8.56765 200H15.3645V199.092H9.96658V199.004L12.7351 196.133C14.5955 194.207 15.1082 193.335 15.1082 192.156V192.141C15.1082 190.464 13.7166 189.211 11.8928 189.211C9.93728 189.211 8.53103 190.522 8.50906 192.346L8.52371 192.354H9.48318V192.346C9.49783 191.013 10.4573 190.09 11.8343 190.09C13.1892 190.09 14.0901 191.021 14.0901 192.236V192.251C14.0901 193.21 13.6726 193.826 12.2078 195.393L8.56765 199.297V200ZM20.9676 200.22C23.0843 200.22 24.615 198.733 24.615 196.638V196.624C24.615 194.595 23.1575 193.108 21.18 193.108C20.1472 193.108 19.2244 193.555 18.719 194.324H18.6238L19.0486 190.332H23.9925V189.431H18.2503L17.6643 195.386H18.5506C18.6678 195.181 18.8069 194.998 18.9607 194.844C19.4734 194.28 20.1985 193.979 21.0261 193.979C22.5276 193.979 23.6336 195.107 23.6336 196.646V196.66C23.6336 198.213 22.5276 199.326 20.9822 199.326C19.6345 199.326 18.5945 198.455 18.448 197.363L18.4407 197.312H17.4812L17.4886 197.385C17.6497 198.989 19.0633 200.22 20.9676 200.22Z" fill="black"/>
<path d="M60.2848 200H67.0817V199.091H61.6838V199.003L64.4523 196.132C66.3127 194.206 66.8254 193.334 66.8254 192.155V192.141C66.8254 190.463 65.4338 189.211 63.61 189.211C61.6545 189.211 60.2482 190.522 60.2262 192.346L60.2409 192.353H61.2004V192.346C61.215 191.013 62.1745 190.09 63.5514 190.09C64.9064 190.09 65.8073 191.02 65.8073 192.236V192.25C65.8073 193.21 65.3898 193.825 63.925 195.393L60.2848 199.296V200ZM72.9118 200.219C74.9992 200.219 76.5446 198.681 76.5446 196.601V196.586C76.5446 194.572 75.0578 193.063 73.0656 193.063C71.5641 193.063 70.4289 193.942 70.0553 195.004H69.9528C69.9528 194.902 69.9528 194.792 69.9528 194.689C70.0114 192.177 70.9123 190.112 72.9704 190.112C74.1716 190.112 75.0431 190.786 75.3361 191.789L75.3581 191.87H76.3688L76.3468 191.774C76.0246 190.273 74.7428 189.211 72.985 189.211C70.4948 189.211 68.9933 191.364 68.9933 194.997V195.012C68.9933 198.725 70.8683 200.219 72.9118 200.219ZM70.2311 196.535V196.528C70.2311 195.078 71.425 193.942 72.9118 193.942C74.4206 193.942 75.5412 195.078 75.5412 196.608V196.623C75.5412 198.139 74.3766 199.326 72.8971 199.326C71.3737 199.326 70.2311 198.081 70.2311 196.535Z" fill="black"/>
<path d="M111.408 200H118.205V199.091H112.807V199.003L115.575 196.132C117.436 194.206 117.949 193.334 117.949 192.155V192.141C117.949 190.463 116.557 189.211 114.733 189.211C112.778 189.211 111.371 190.522 111.349 192.346L111.364 192.353H112.324V192.346C112.338 191.013 113.298 190.09 114.675 190.09C116.03 190.09 116.93 191.02 116.93 192.236V192.25C116.93 193.21 116.513 193.825 115.048 195.393L111.408 199.296V200ZM120.805 200H121.874L126.708 190.368V189.431H119.831V190.332H125.69V190.412L120.805 200Z" fill="black"/>
<path d="M161.581 200H168.378V199.091H162.98V199.003L165.749 196.132C167.609 194.206 168.122 193.334 168.122 192.155V192.141C168.122 190.463 166.73 189.211 164.906 189.211C162.951 189.211 161.545 190.522 161.523 192.346L161.537 192.353H162.497V192.346C162.511 191.013 163.471 190.09 164.848 190.09C166.203 190.09 167.104 191.02 167.104 192.236V192.25C167.104 193.21 166.686 193.825 165.221 195.393L161.581 199.296V200ZM174.076 200.168C176.288 200.168 177.848 198.908 177.848 197.136V197.121C177.848 195.795 176.889 194.711 175.497 194.411V194.389C176.691 194.052 177.467 193.173 177.467 192.031V192.016C177.467 190.427 176.047 189.262 174.076 189.262C172.113 189.262 170.693 190.427 170.693 192.016V192.031C170.693 193.173 171.469 194.052 172.663 194.389V194.411C171.271 194.711 170.312 195.795 170.312 197.121V197.136C170.312 198.908 171.872 200.168 174.076 200.168ZM174.076 194.008C172.67 194.008 171.689 193.217 171.689 192.111V192.097C171.689 190.969 172.663 190.134 174.076 190.134C175.497 190.134 176.471 190.969 176.471 192.097V192.111C176.471 193.217 175.49 194.008 174.076 194.008ZM174.076 199.289C172.458 199.289 171.33 198.359 171.33 197.077V197.062C171.33 195.795 172.458 194.902 174.076 194.902C175.702 194.902 176.83 195.795 176.83 197.062V197.077C176.83 198.359 175.702 199.289 174.076 199.289Z" fill="black"/>
<path d="M210.423 200H217.22V199.091H211.822V199.003L214.59 196.132C216.451 194.206 216.964 193.334 216.964 192.155V192.141C216.964 190.463 215.572 189.211 213.748 189.211C211.793 189.211 210.386 190.522 210.364 192.346L210.379 192.353H211.339V192.346C211.353 191.013 212.313 190.09 213.69 190.09C215.045 190.09 215.945 191.02 215.945 192.236V192.25C215.945 193.21 215.528 193.825 214.063 195.393L210.423 199.296V200ZM222.779 189.211C220.699 189.211 219.146 190.749 219.146 192.829V192.844C219.146 194.858 220.64 196.367 222.625 196.367C224.134 196.367 225.262 195.488 225.635 194.426H225.738C225.745 194.528 225.738 194.638 225.738 194.741C225.679 197.253 224.786 199.318 222.72 199.318C221.527 199.318 220.648 198.645 220.355 197.641L220.333 197.561H219.329L219.344 197.656C219.666 199.157 220.948 200.219 222.713 200.219C225.203 200.219 226.697 198.066 226.697 194.433V194.418C226.697 190.705 224.83 189.211 222.779 189.211ZM222.779 195.488C221.278 195.488 220.15 194.353 220.15 192.822V192.807C220.15 191.291 221.321 190.104 222.794 190.104C224.317 190.104 225.46 191.35 225.46 192.895V192.902C225.46 194.353 224.273 195.488 222.779 195.488Z" fill="black"/>
<path d="M261.022 200.168C263.102 200.168 264.633 198.872 264.633 197.121V197.106C264.633 195.605 263.578 194.624 262.004 194.499V194.47C263.351 194.199 264.252 193.283 264.252 191.979V191.965C264.252 190.39 262.926 189.262 260.978 189.262C259.059 189.262 257.748 190.405 257.594 192.031L257.587 192.104H258.554L258.561 192.031C258.671 190.91 259.616 190.141 260.978 190.141C262.37 190.141 263.249 190.896 263.249 192.082V192.097C263.249 193.261 262.267 194.096 260.861 194.096H259.631V194.953H260.898C262.582 194.953 263.615 195.744 263.615 197.128V197.143C263.615 198.396 262.546 199.289 261.022 199.289C259.484 199.289 258.473 198.469 258.334 197.326L258.327 197.26H257.36L257.367 197.341C257.536 198.967 258.891 200.168 261.022 200.168ZM270.251 200.219C272.572 200.219 273.979 198.103 273.979 194.726V194.704C273.979 191.328 272.572 189.211 270.251 189.211C267.929 189.211 266.537 191.328 266.537 194.704V194.726C266.537 198.095 267.929 200.219 270.251 200.219ZM270.251 199.34C268.551 199.34 267.541 197.561 267.541 194.726V194.704C267.541 191.87 268.551 190.097 270.251 190.097C271.957 190.097 272.975 191.862 272.975 194.704V194.726C272.975 197.561 271.957 199.34 270.251 199.34Z" fill="black"/>
<path d="M308.243 200.168C310.323 200.168 311.854 198.872 311.854 197.121V197.106C311.854 195.605 310.799 194.624 309.225 194.499V194.47C310.572 194.199 311.473 193.283 311.473 191.979V191.965C311.473 190.39 310.147 189.262 308.199 189.262C306.28 189.262 304.969 190.405 304.815 192.031L304.808 192.104H305.775L305.782 192.031C305.892 190.91 306.837 190.141 308.199 190.141C309.591 190.141 310.47 190.896 310.47 192.082V192.097C310.47 193.261 309.488 194.096 308.082 194.096H306.851V194.953H308.119C309.803 194.953 310.836 195.744 310.836 197.128V197.143C310.836 198.396 309.766 199.289 308.243 199.289C306.705 199.289 305.694 198.469 305.555 197.326L305.548 197.26H304.581L304.588 197.341C304.757 198.967 306.112 200.168 308.243 200.168ZM316.563 200H317.559V189.431H316.571L313.744 191.386V192.448L316.475 190.551H316.563V200Z" fill="black"/>
<path fill-rule="evenodd" clip-rule="evenodd" d="M12 268C18.6274 268 24 262.627 24 256C24 249.373 18.6274 244 12 244C5.37258 244 0 249.373 0 256C0 262.627 5.37258 268 12 268Z" fill="#F8CFD3"/>
<path d="M37.7744 264.299C40.6045 264.299 42.459 262.822 42.459 260.449V260.44C42.459 258.612 41.4131 257.549 38.7676 256.96L37.3613 256.644C35.6387 256.266 34.9443 255.58 34.9443 254.569V254.561C34.9443 253.233 36.166 252.486 37.748 252.478C39.4004 252.469 40.4551 253.295 40.6309 254.411L40.6484 254.525H42.2305L42.2217 254.402C42.0898 252.513 40.3232 251.019 37.792 251.019C35.1729 251.019 33.3359 252.504 33.3271 254.604V254.613C33.3271 256.45 34.4258 257.619 36.9658 258.182L38.3721 258.489C40.1123 258.876 40.8418 259.597 40.8418 260.651V260.66C40.8418 261.952 39.585 262.84 37.8623 262.84C36.0342 262.84 34.7158 262.04 34.6016 260.774L34.5928 260.678H33.0107L33.0195 260.774C33.2041 262.84 34.9971 264.299 37.7744 264.299ZM48.3916 264H49.9736V252.741H54.0605V251.317H44.3047V252.741H48.3916V264ZM56.5039 264H58.0859V251.317H56.5039V264ZM61.3203 264H69.0195V262.576H62.9023V251.317H61.3203V264ZM71.5508 264H73.1152V254.165H73.2559L80.1377 264H81.6758V251.317H80.1113V261.188H79.9707L73.0889 251.317H71.5508V264ZM84.9102 264H92.7676V262.576H86.4922V258.217H92.4424V256.811H86.4922V252.741H92.7676V251.317H84.9102V264ZM99.79 264.299C102.62 264.299 104.475 262.822 104.475 260.449V260.44C104.475 258.612 103.429 257.549 100.783 256.96L99.377 256.644C97.6543 256.266 96.96 255.58 96.96 254.569V254.561C96.96 253.233 98.1816 252.486 99.7637 252.478C101.416 252.469 102.471 253.295 102.646 254.411L102.664 254.525H104.246L104.237 254.402C104.105 252.513 102.339 251.019 99.8076 251.019C97.1885 251.019 95.3516 252.504 95.3428 254.604V254.613C95.3428 256.45 96.4414 257.619 98.9814 258.182L100.388 258.489C102.128 258.876 102.857 259.597 102.857 260.651V260.66C102.857 261.952 101.601 262.84 99.8779 262.84C98.0498 262.84 96.7314 262.04 96.6172 260.774L96.6084 260.678H95.0264L95.0352 260.774C95.2197 262.84 97.0127 264.299 99.79 264.299ZM111.269 264.299C114.099 264.299 115.953 262.822 115.953 260.449V260.44C115.953 258.612 114.907 257.549 112.262 256.96L110.855 256.644C109.133 256.266 108.438 255.58 108.438 254.569V254.561C108.438 253.233 109.66 252.486 111.242 252.478C112.895 252.469 113.949 253.295 114.125 254.411L114.143 254.525H115.725L115.716 254.402C115.584 252.513 113.817 251.019 111.286 251.019C108.667 251.019 106.83 252.504 106.821 254.604V254.613C106.821 256.45 107.92 257.619 110.46 258.182L111.866 258.489C113.606 258.876 114.336 259.597 114.336 260.651V260.66C114.336 261.952 113.079 262.84 111.356 262.84C109.528 262.84 108.21 262.04 108.096 260.774L108.087 260.678H106.505L106.514 260.774C106.698 262.84 108.491 264.299 111.269 264.299Z" fill="black"/>
<path fill-rule="evenodd" clip-rule="evenodd" d="M12 303C18.6274 303 24 297.627 24 291C24 284.373 18.6274 279 12 279C5.37258 279 0 284.373 0 291C0 297.627 5.37258 303 12 303Z" fill="#91C8C3"/>
<path d="M33.6172 299H35.1992V293.981H38.3193L41.0352 299H42.8896L39.9541 293.735C41.5449 293.234 42.5029 291.863 42.5029 290.105V290.088C42.5029 287.812 40.9033 286.317 38.46 286.317H33.6172V299ZM35.1992 292.575V287.724H38.249C39.8838 287.724 40.8682 288.629 40.8682 290.141V290.158C40.8682 291.705 39.9453 292.575 38.3193 292.575H35.1992ZM45.377 299H53.2344V297.576H46.959V293.217H52.9092V291.811H46.959V287.741H53.2344V286.317H45.377V299ZM55.0889 299H56.75L58.0244 295.37H63.0693L64.3438 299H66.0049L61.3291 286.317H59.7646L55.0889 299ZM60.4766 288.365H60.6172L62.6035 294.025H58.4902L60.4766 288.365ZM68.2285 299H72.5791C76.3496 299 78.5645 296.653 78.5645 292.663V292.646C78.5645 288.664 76.3408 286.317 72.5791 286.317H68.2285V299ZM69.8105 297.576V287.741H72.4736C75.2861 287.741 76.9473 289.569 76.9473 292.663V292.681C76.9473 295.766 75.3037 297.576 72.4736 297.576H69.8105ZM84.1807 299H85.7627V293.542L90.2627 286.317H88.4609L85.042 291.951H84.9014L81.4824 286.317H79.6807L84.1807 293.542V299ZM100.845 299H102.427V287.741H106.514V286.317H96.7578V287.741H100.845V299ZM113.756 299.299C117.377 299.299 119.574 296.706 119.574 292.663V292.646C119.574 288.585 117.359 286.019 113.756 286.019C110.17 286.019 107.938 288.576 107.938 292.646V292.663C107.938 296.715 110.117 299.299 113.756 299.299ZM113.756 297.84C111.119 297.84 109.555 295.801 109.555 292.663V292.646C109.555 289.481 111.172 287.478 113.756 287.478C116.349 287.478 117.957 289.481 117.957 292.646V292.663C117.957 295.801 116.357 297.84 113.756 297.84ZM130.675 299H132.257V287.741H136.344V286.317H126.588V287.741H130.675V299ZM136.282 299H137.943L139.218 295.37H144.263L145.537 299H147.198L142.522 286.317H140.958L136.282 299ZM141.67 288.365H141.811L143.797 294.025H139.684L141.67 288.365ZM153.913 299.299C156.611 299.299 158.615 297.796 159.037 295.476V295.458H157.438L157.42 295.476C157.024 296.935 155.68 297.84 153.913 297.84C151.47 297.84 149.94 295.845 149.94 292.672V292.654C149.94 289.481 151.47 287.478 153.904 287.478C155.653 287.478 157.007 288.506 157.429 290.132L157.438 290.149H159.028L159.037 290.132C158.659 287.697 156.576 286.019 153.904 286.019C150.459 286.019 148.314 288.567 148.314 292.654V292.672C148.314 296.75 150.468 299.299 153.913 299.299ZM161.691 299H163.273V294.57L164.794 292.892L169.373 299H171.421L165.884 291.793L170.955 286.317H168.969L163.414 292.479H163.273V286.317H161.691V299ZM173.557 299H181.256V297.576H175.139V286.317H173.557V299ZM183.787 299H191.645V297.576H185.369V293.217H191.319V291.811H185.369V287.741H191.645V286.317H183.787V299ZM202.868 299H204.45V287.741H208.537V286.317H198.781V287.741H202.868V299ZM210.98 299H212.562V293.226H219.523V299H221.105V286.317H219.523V291.802H212.562V286.317H210.98V299ZM224.34 299H232.197V297.576H225.922V293.217H231.872V291.811H225.922V287.741H232.197V286.317H224.34V299ZM242.753 299H244.247L247.165 288.989H247.271L250.188 299H251.683L255.137 286.317H253.484L250.962 296.627H250.856L248.018 286.317H246.418L243.579 296.627H243.474L240.951 286.317H239.299L242.753 299ZM262.344 299.299C265.965 299.299 268.162 296.706 268.162 292.663V292.646C268.162 288.585 265.947 286.019 262.344 286.019C258.758 286.019 256.525 288.576 256.525 292.646V292.663C256.525 296.715 258.705 299.299 262.344 299.299ZM262.344 297.84C259.707 297.84 258.143 295.801 258.143 292.663V292.646C258.143 289.481 259.76 287.478 262.344 287.478C264.937 287.478 266.545 289.481 266.545 292.646V292.663C266.545 295.801 264.945 297.84 262.344 297.84ZM270.904 299H272.486V293.981H275.606L278.322 299H280.177L277.241 293.735C278.832 293.234 279.79 291.863 279.79 290.105V290.088C279.79 287.812 278.19 286.317 275.747 286.317H270.904V299ZM272.486 292.575V287.724H275.536C277.171 287.724 278.155 288.629 278.155 290.141V290.158C278.155 291.705 277.232 292.575 275.606 292.575H272.486ZM282.664 299H290.363V297.576H284.246V286.317H282.664V299ZM292.895 299H297.245C301.016 299 303.23 296.653 303.23 292.663V292.646C303.23 288.664 301.007 286.317 297.245 286.317H292.895V299ZM294.477 297.576V287.741H297.14C299.952 287.741 301.613 289.569 301.613 292.663V292.681C301.613 295.766 299.97 297.576 297.14 297.576H294.477Z" fill="black"/>
<path fill-rule="evenodd" clip-rule="evenodd" d="M12 339.5C18.6274 339.5 24 334.127 24 327.5C24 320.873 18.6274 315.5 12 315.5C5.37258 315.5 0 320.873 0 327.5C0 334.127 5.37258 339.5 12 339.5Z" fill="#FEFACA"/>
<path d="M33.6172 334H35.1992V328.226H42.1602V334H43.7422V321.317H42.1602V326.802H35.1992V321.317H33.6172V334ZM46.9766 334H48.5586V321.317H46.9766V334ZM57.0488 334.299C60.292 334.299 62.4365 332.225 62.4365 329.096V327.549H57.2949V328.938H60.8545V329.245C60.8545 331.39 59.3252 332.84 57.0576 332.84C54.5088 332.84 52.918 330.854 52.918 327.663V327.646C52.918 324.499 54.5352 322.478 57.0488 322.478C58.9385 322.478 60.2129 323.374 60.7314 325.009L60.7578 325.097H62.3574L62.3398 325.009C61.8389 322.601 59.8613 321.019 57.0488 321.019C53.5771 321.019 51.3008 323.646 51.3008 327.646V327.663C51.3008 331.715 53.542 334.299 57.0488 334.299ZM65.2402 334H66.8223V328.226H73.7832V334H75.3652V321.317H73.7832V326.802H66.8223V321.317H65.2402V334ZM78.5996 334H86.457V332.576H80.1816V328.217H86.1318V326.811H80.1816V322.741H86.457V321.317H78.5996V334ZM93.4795 334.299C96.3096 334.299 98.1641 332.822 98.1641 330.449V330.44C98.1641 328.612 97.1182 327.549 94.4727 326.96L93.0664 326.644C91.3438 326.266 90.6494 325.58 90.6494 324.569V324.561C90.6494 323.233 91.8711 322.486 93.4531 322.478C95.1055 322.469 96.1602 323.295 96.3359 324.411L96.3535 324.525H97.9355L97.9268 324.402C97.7949 322.513 96.0283 321.019 93.4971 321.019C90.8779 321.019 89.041 322.504 89.0322 324.604V324.613C89.0322 326.45 90.1309 327.619 92.6709 328.182L94.0771 328.489C95.8174 328.876 96.5469 329.597 96.5469 330.651V330.66C96.5469 331.952 95.29 332.84 93.5674 332.84C91.7393 332.84 90.4209 332.04 90.3066 330.774L90.2979 330.678H88.7158L88.7246 330.774C88.9092 332.84 90.7021 334.299 93.4795 334.299ZM104.097 334H105.679V322.741H109.766V321.317H100.01V322.741H104.097V334ZM117.271 334H125.129V332.576H118.854V328.217H124.804V326.811H118.854V322.741H125.129V321.317H117.271V334ZM127.994 334H129.559V324.165H129.699L136.581 334H138.119V321.317H136.555V331.188H136.414L129.532 321.317H127.994V334ZM141.354 334H149.211V332.576H142.936V328.217H148.886V326.811H142.936V322.741H149.211V321.317H141.354V334ZM152.076 334H153.658V328.981H156.778L159.494 334H161.349L158.413 328.735C160.004 328.234 160.962 326.863 160.962 325.105V325.088C160.962 322.812 159.362 321.317 156.919 321.317H152.076V334ZM153.658 327.575V322.724H156.708C158.343 322.724 159.327 323.629 159.327 325.141V325.158C159.327 326.705 158.404 327.575 156.778 327.575H153.658ZM169.092 334.299C172.335 334.299 174.479 332.225 174.479 329.096V327.549H169.338V328.938H172.897V329.245C172.897 331.39 171.368 332.84 169.101 332.84C166.552 332.84 164.961 330.854 164.961 327.663V327.646C164.961 324.499 166.578 322.478 169.092 322.478C170.981 322.478 172.256 323.374 172.774 325.009L172.801 325.097H174.4L174.383 325.009C173.882 322.601 171.904 321.019 169.092 321.019C165.62 321.019 163.344 323.646 163.344 327.646V327.663C163.344 331.715 165.585 334.299 169.092 334.299ZM180.509 334H182.091V328.542L186.591 321.317H184.789L181.37 326.951H181.229L177.811 321.317H176.009L180.509 328.542V334Z" fill="black"/>
<path fill-rule="evenodd" clip-rule="evenodd" d="M12 374.5C18.6274 374.5 24 369.127 24 362.5C24 355.873 18.6274 350.5 12 350.5C5.37258 350.5 0 355.873 0 362.5C0 369.127 5.37258 374.5 12 374.5Z" fill="#A0A7D6"/>
<path d="M36.9131 369H38.4951V357.741H42.582V356.317H32.8262V357.741H36.9131V369ZM45.0254 369H46.6074V356.317H45.0254V369ZM49.8418 369H51.3184V359.314H51.415L55.4229 369H56.7588L60.7666 359.314H60.8633V369H62.3398V356.317H60.5029L56.1611 366.899H56.0205L51.6787 356.317H49.8418V369ZM65.5742 369H73.4316V367.576H67.1562V363.217H73.1064V361.811H67.1562V357.741H73.4316V356.317H65.5742V369ZM84.6553 369H86.2373V357.741H90.3242V356.317H80.5684V357.741H84.6553V369ZM97.5664 369.299C101.188 369.299 103.385 366.706 103.385 362.663V362.646C103.385 358.585 101.17 356.019 97.5664 356.019C93.9805 356.019 91.748 358.576 91.748 362.646V362.663C91.748 366.715 93.9277 369.299 97.5664 369.299ZM97.5664 367.84C94.9297 367.84 93.3652 365.801 93.3652 362.663V362.646C93.3652 359.481 94.9824 357.478 97.5664 357.478C100.159 357.478 101.768 359.481 101.768 362.646V362.663C101.768 365.801 100.168 367.84 97.5664 367.84ZM115.347 369.299C118.177 369.299 120.031 367.822 120.031 365.449V365.44C120.031 363.612 118.985 362.549 116.34 361.96L114.934 361.644C113.211 361.266 112.517 360.58 112.517 359.569V359.561C112.517 358.233 113.738 357.486 115.32 357.478C116.973 357.469 118.027 358.295 118.203 359.411L118.221 359.525H119.803L119.794 359.402C119.662 357.513 117.896 356.019 115.364 356.019C112.745 356.019 110.908 357.504 110.899 359.604V359.613C110.899 361.45 111.998 362.619 114.538 363.182L115.944 363.489C117.685 363.876 118.414 364.597 118.414 365.651V365.66C118.414 366.952 117.157 367.84 115.435 367.84C113.606 367.84 112.288 367.04 112.174 365.774L112.165 365.678H110.583L110.592 365.774C110.776 367.84 112.569 369.299 115.347 369.299ZM122.668 369H130.367V367.576H124.25V356.317H122.668V369ZM137.697 369.299C141.318 369.299 143.516 366.706 143.516 362.663V362.646C143.516 358.585 141.301 356.019 137.697 356.019C134.111 356.019 131.879 358.576 131.879 362.646V362.663C131.879 366.715 134.059 369.299 137.697 369.299ZM137.697 367.84C135.061 367.84 133.496 365.801 133.496 362.663V362.646C133.496 359.481 135.113 357.478 137.697 357.478C140.29 357.478 141.898 359.481 141.898 362.646V362.663C141.898 365.801 140.299 367.84 137.697 367.84ZM148.358 369H149.853L152.771 358.989H152.876L155.794 369H157.288L160.742 356.317H159.09L156.567 366.627H156.462L153.623 356.317H152.023L149.185 366.627H149.079L146.557 356.317H144.904L148.358 369ZM168.213 369H172.563C176.334 369 178.549 366.653 178.549 362.663V362.646C178.549 358.664 176.325 356.317 172.563 356.317H168.213V369ZM169.795 367.576V357.741H172.458C175.271 357.741 176.932 359.569 176.932 362.663V362.681C176.932 365.766 175.288 367.576 172.458 367.576H169.795ZM186.617 369.299C190.238 369.299 192.436 366.706 192.436 362.663V362.646C192.436 358.585 190.221 356.019 186.617 356.019C183.031 356.019 180.799 358.576 180.799 362.646V362.663C180.799 366.715 182.979 369.299 186.617 369.299ZM186.617 367.84C183.98 367.84 182.416 365.801 182.416 362.663V362.646C182.416 359.481 184.033 357.478 186.617 357.478C189.21 357.478 190.818 359.481 190.818 362.646V362.663C190.818 365.801 189.219 367.84 186.617 367.84ZM197.278 369H198.772L201.69 358.989H201.796L204.714 369H206.208L209.662 356.317H208.01L205.487 366.627H205.382L202.543 356.317H200.943L198.104 366.627H197.999L195.477 356.317H193.824L197.278 369ZM212.07 369H213.635V359.165H213.775L220.657 369H222.195V356.317H220.631V366.188H220.49L213.608 356.317H212.07V369Z" fill="black"/>
</svg>
