<svg width="327" height="376" viewBox="0 0 327 376" fill="none" xmlns="http://www.w3.org/2000/svg">
<path fill-rule="evenodd" clip-rule="evenodd" d="M16 176C24.8366 176 32 168.837 32 160C32 151.163 24.8366 144 16 144C7.16344 144 0 151.163 0 160C0 168.837 7.16344 176 16 176Z" fill="#FEFACA"/>
<path fill-rule="evenodd" clip-rule="evenodd" d="M16 140C24.8366 140 32 132.837 32 124C32 115.163 24.8366 108 16 108C7.16344 108 0 115.163 0 124C0 132.837 7.16344 140 16 140Z" fill="#91C8C3"/>
<path fill-rule="evenodd" clip-rule="evenodd" d="M69 176C77.8366 176 85 168.837 85 160C85 151.163 77.8366 144 69 144C60.1634 144 53 151.163 53 160C53 168.837 60.1634 176 69 176Z" fill="#FEFACA"/>
<path fill-rule="evenodd" clip-rule="evenodd" d="M69 140C77.8366 140 85 132.837 85 124C85 115.163 77.8366 108 69 108C60.1634 108 53 115.163 53 124C53 132.837 60.1634 140 69 140Z" fill="#91C8C3"/>
<path fill-rule="evenodd" clip-rule="evenodd" d="M119 176C127.837 176 135 168.837 135 160C135 151.163 127.837 144 119 144C110.163 144 103 151.163 103 160C103 168.837 110.163 176 119 176Z" fill="#FEFACA"/>
<path fill-rule="evenodd" clip-rule="evenodd" d="M119 140C127.837 140 135 132.837 135 124C135 115.163 127.837 108 119 108C110.163 108 103 115.163 103 124C103 132.837 110.163 140 119 140Z" fill="#91C8C3"/>
<path fill-rule="evenodd" clip-rule="evenodd" d="M170 176C178.837 176 186 168.837 186 160C186 151.163 178.837 144 170 144C161.163 144 154 151.163 154 160C154 168.837 161.163 176 170 176Z" fill="#FEFACA"/>
<path fill-rule="evenodd" clip-rule="evenodd" d="M170 140C178.837 140 186 132.837 186 124C186 115.163 178.837 108 170 108C161.163 108 154 115.163 154 124C154 132.837 161.163 140 170 140Z" fill="#91C8C3"/>
<path fill-rule="evenodd" clip-rule="evenodd" d="M218 176C226.837 176 234 168.837 234 160C234 151.163 226.837 144 218 144C209.163 144 202 151.163 202 160C202 168.837 209.163 176 218 176Z" fill="#FEFACA"/>
<path fill-rule="evenodd" clip-rule="evenodd" d="M218 140C226.837 140 234 132.837 234 124C234 115.163 226.837 108 218 108C209.163 108 202 115.163 202 124C202 132.837 209.163 140 218 140Z" fill="#91C8C3"/>
<path fill-rule="evenodd" clip-rule="evenodd" d="M266 140C274.837 140 282 132.837 282 124C282 115.163 274.837 108 266 108C257.163 108 250 115.163 250 124C250 132.837 257.163 140 266 140Z" fill="#91C8C3"/>
<path fill-rule="evenodd" clip-rule="evenodd" d="M311 140C319.837 140 327 132.837 327 124C327 115.163 319.837 108 311 108C302.163 108 295 115.163 295 124C295 132.837 302.163 140 311 140Z" fill="#91C8C3"/>
<path fill-rule="evenodd" clip-rule="evenodd" d="M69 105C77.8366 105 85 97.8366 85 89C85 80.1634 77.8366 73 69 73C60.1634 73 53 80.1634 53 89C53 97.8366 60.1634 105 69 105Z" fill="#A0A7D6"/>
<path fill-rule="evenodd" clip-rule="evenodd" d="M16 105C24.8366 105 32 97.8366 32 89C32 80.1634 24.8366 73 16 73C7.16344 73 0 80.1634 0 89C0 97.8366 7.16344 105 16 105Z" fill="#A0A7D6"/>
<path fill-rule="evenodd" clip-rule="evenodd" d="M311 70C319.837 70 327 62.8366 327 54C327 45.1634 319.837 38 311 38C302.163 38 295 45.1634 295 54C295 62.8366 302.163 70 311 70Z" fill="#A0A7D6"/>
<path fill-rule="evenodd" clip-rule="evenodd" d="M266 70C274.837 70 282 62.8366 282 54C282 45.1634 274.837 38 266 38C257.163 38 250 45.1634 250 54C250 62.8366 257.163 70 266 70Z" fill="#A0A7D6"/>
<path fill-rule="evenodd" clip-rule="evenodd" d="M220 70C228.837 70 236 62.8366 236 54C236 45.1634 228.837 38 220 38C211.163 38 204 45.1634 204 54C204 62.8366 211.163 70 220 70Z" fill="#A0A7D6"/>
<path fill-rule="evenodd" clip-rule="evenodd" d="M119 105C127.837 105 135 97.8366 135 89C135 80.1634 127.837 73 119 73C110.163 73 103 80.1634 103 89C103 97.8366 110.163 105 119 105Z" fill="#F8CFD3"/>
<path fill-rule="evenodd" clip-rule="evenodd" d="M170 105C178.837 105 186 97.8366 186 89C186 80.1634 178.837 73 170 73C161.163 73 154 80.1634 154 89C154 97.8366 161.163 105 170 105Z" fill="#F8CFD3"/>
<path fill-rule="evenodd" clip-rule="evenodd" d="M220 105C228.837 105 236 97.8366 236 89C236 80.1634 228.837 73 220 73C211.163 73 204 80.1634 204 89C204 97.8366 211.163 105 220 105Z" fill="#F8CFD3"/>
<path fill-rule="evenodd" clip-rule="evenodd" d="M266 105C274.837 105 282 97.8366 282 89C282 80.1634 274.837 73 266 73C257.163 73 250 80.1634 250 89C250 97.8366 257.163 105 266 105Z" fill="#F8CFD3"/>
<path fill-rule="evenodd" clip-rule="evenodd" d="M311 105C319.837 105 327 97.8366 327 89C327 80.1634 319.837 73 311 73C302.163 73 295 80.1634 295 89C295 97.8366 302.163 105 311 105Z" fill="#F8CFD3"/>
<path opacity="0.5" d="M6.70598 13.1987C8.63957 13.1987 9.83195 12.2266 9.83195 10.6904V10.6851C9.83195 9.47656 9.1176 8.82129 7.47942 8.48291L6.65764 8.31641C5.74455 8.12842 5.36858 7.82764 5.36858 7.32275V7.31738C5.36858 6.7373 5.90031 6.37207 6.70061 6.3667C7.51701 6.3667 8.05412 6.75342 8.14543 7.30664L8.15617 7.37109H9.68156L9.67619 7.30127C9.57414 6.00684 8.51067 5.05078 6.70061 5.05078C4.98186 5.05078 3.74651 6.00146 3.74651 7.44092V7.44629C3.74651 8.62256 4.43938 9.37451 6.0507 9.70215L6.86711 9.86865C7.82854 10.0674 8.20988 10.3521 8.20988 10.8623V10.8677C8.20988 11.4639 7.61369 11.8774 6.74895 11.8774C5.84123 11.8774 5.21281 11.4854 5.15373 10.9053L5.14836 10.8516H3.58537L3.59074 10.9375C3.68205 12.3125 4.85295 13.1987 6.70598 13.1987ZM14.6122 13.1987C16.6103 13.1987 17.8564 12.0439 17.8564 10.3252V5.24951H16.2343V10.1802C16.2343 11.1846 15.6542 11.8237 14.6122 11.8237C13.5702 11.8237 12.9848 11.1846 12.9848 10.1802V5.24951H11.3627V10.3252C11.3627 12.0493 12.6249 13.1987 14.6122 13.1987ZM19.7363 13H21.2885V8.04248H21.3744L24.9623 13H26.3051V5.24951H24.7529V10.1855H24.6669L21.0898 5.24951H19.7363V13Z" fill="#090909"/>
<path opacity="0.5" d="M56.2857 13H57.7306V7.72559H57.838L59.8253 13H60.8404L62.8277 7.72559H62.9352V13H64.38V5.24951H62.5216L60.3839 10.9214H60.2872L58.1441 5.24951H56.2857V13ZM69.6544 13.1987C71.9425 13.1987 73.3819 11.6304 73.3819 9.12744V9.1167C73.3819 6.61377 71.9371 5.05078 69.6544 5.05078C67.3717 5.05078 65.9215 6.6084 65.9215 9.1167V9.12744C65.9215 11.6304 67.3502 13.1987 69.6544 13.1987ZM69.6544 11.8237C68.3761 11.8237 67.5758 10.7656 67.5758 9.12744V9.1167C67.5758 7.47314 68.3922 6.42578 69.6544 6.42578C70.9112 6.42578 71.7276 7.47314 71.7276 9.1167V9.12744C71.7276 10.7656 70.9166 11.8237 69.6544 11.8237ZM74.9234 13H76.4757V8.04248H76.5616L80.1495 13H81.4923V5.24951H79.94V10.1855H79.8541L76.277 5.24951H74.9234V13Z" fill="#090909"/>
<path opacity="0.5" d="M110.105 13H111.727V6.58691H114.052V5.24951H107.779V6.58691H110.105V13ZM118.731 13.1987C120.729 13.1987 121.975 12.0439 121.975 10.3252V5.24951H120.353V10.1802C120.353 11.1846 119.773 11.8237 118.731 11.8237C117.689 11.8237 117.103 11.1846 117.103 10.1802V5.24951H115.481V10.3252C115.481 12.0493 116.743 13.1987 118.731 13.1987ZM123.855 13H128.989V11.6626H125.477V9.70215H128.791V8.45605H125.477V6.58691H128.989V5.24951H123.855V13Z" fill="#090909"/>
<path opacity="0.5" d="M157.585 13H159.115L160.566 7.7793H160.652L162.118 13H163.638L165.695 5.24951H164.019L162.821 10.7871H162.736L161.296 5.24951H159.926L158.514 10.7871H158.428L157.219 5.24951H155.533L157.585 13ZM167.108 13H172.242V11.6626H168.73V9.70215H172.044V8.45605H168.73V6.58691H172.242V5.24951H167.108V13ZM173.95 13H177.001C179.321 13 180.637 11.582 180.637 9.0791V9.06836C180.637 6.64062 179.305 5.24951 177.001 5.24951H173.95V13ZM175.572 11.6626V6.58691H176.743C178.151 6.58691 178.983 7.5 178.983 9.09521V9.10596C178.983 10.7603 178.177 11.6626 176.743 11.6626H175.572Z" fill="#090909"/>
<path opacity="0.5" d="M207.792 13H209.414V6.58691H211.74V5.24951H205.467V6.58691H207.792V13ZM213.174 13H214.796V9.73438H218.288V13H219.91V5.24951H218.288V8.39697H214.796V5.24951H213.174V13ZM225.034 13.1987C227.032 13.1987 228.278 12.0439 228.278 10.3252V5.24951H226.656V10.1802C226.656 11.1846 226.076 11.8237 225.034 11.8237C223.992 11.8237 223.406 11.1846 223.406 10.1802V5.24951H221.784V10.3252C221.784 12.0493 223.046 13.1987 225.034 13.1987Z" fill="#090909"/>
<path opacity="0.5" d="M257.616 13H259.238V9.94922H262.391V8.66553H259.238V6.58691H262.692V5.24951H257.616V13ZM264.191 13H265.813V10.1641H267.139L268.584 13H270.421L268.788 9.92236C269.674 9.57324 270.19 8.71924 270.19 7.72559V7.71484C270.19 6.18945 269.18 5.24951 267.419 5.24951H264.191V13ZM265.813 8.98242V6.51709H267.22C268.031 6.51709 268.53 7.00049 268.53 7.74707V7.75781C268.53 8.52051 268.052 8.98242 267.241 8.98242H265.813ZM271.828 13H273.45V5.24951H271.828V13Z" fill="#090909"/>
<path opacity="0.5" d="M304.186 13.1987C306.119 13.1987 307.312 12.2266 307.312 10.6904V10.6851C307.312 9.47656 306.597 8.82129 304.959 8.48291L304.137 8.31641C303.224 8.12842 302.848 7.82764 302.848 7.32275V7.31738C302.848 6.7373 303.38 6.37207 304.18 6.3667C304.997 6.3667 305.534 6.75342 305.625 7.30664L305.636 7.37109H307.161L307.156 7.30127C307.054 6.00684 305.99 5.05078 304.18 5.05078C302.462 5.05078 301.226 6.00146 301.226 7.44092V7.44629C301.226 8.62256 301.919 9.37451 303.531 9.70215L304.347 9.86865C305.308 10.0674 305.69 10.3521 305.69 10.8623V10.8677C305.69 11.4639 305.093 11.8774 304.229 11.8774C303.321 11.8774 302.693 11.4854 302.634 10.9053L302.628 10.8516H301.065L301.071 10.9375C301.162 12.3125 302.333 13.1987 304.186 13.1987ZM308.295 13H309.997L310.572 11.1201H313.306L313.881 13H315.589L312.892 5.24951H310.986L308.295 13ZM311.893 6.79639H311.99L312.935 9.90625H310.943L311.893 6.79639ZM317.947 13H319.569V6.58691H321.894V5.24951H315.621V6.58691H317.947V13Z" fill="#090909"/>
<path opacity="0.5" d="M8.45232 58.6484H15.2492V57.7402H9.85124V57.6523L12.6198 54.7812C14.4802 52.855 14.9928 51.9834 14.9928 50.8042V50.7896C14.9928 49.1123 13.6012 47.8599 11.7775 47.8599C9.82195 47.8599 8.4157 49.1709 8.39373 50.9946L8.40837 51.002H9.36785V50.9946C9.38249 49.6616 10.342 48.7388 11.7189 48.7388C13.0739 48.7388 13.9748 49.6689 13.9748 50.8848V50.8994C13.9748 51.8589 13.5573 52.4741 12.0925 54.0415L8.45232 57.9453V58.6484ZM20.9474 58.8169C23.1594 58.8169 24.7194 57.5571 24.7194 55.7847V55.77C24.7194 54.4443 23.7599 53.3604 22.3683 53.0601V53.0381C23.5622 52.7012 24.3385 51.8223 24.3385 50.6797V50.665C24.3385 49.0757 22.9177 47.9111 20.9474 47.9111C18.9845 47.9111 17.5636 49.0757 17.5636 50.665V50.6797C17.5636 51.8223 18.34 52.7012 19.5339 53.0381V53.0601C18.1423 53.3604 17.1828 54.4443 17.1828 55.77V55.7847C17.1828 57.5571 18.7428 58.8169 20.9474 58.8169ZM20.9474 52.6572C19.5412 52.6572 18.5597 51.8662 18.5597 50.7603V50.7456C18.5597 49.6177 19.5339 48.7827 20.9474 48.7827C22.3683 48.7827 23.3425 49.6177 23.3425 50.7456V50.7603C23.3425 51.8662 22.361 52.6572 20.9474 52.6572ZM20.9474 57.938C19.3288 57.938 18.2009 57.0078 18.2009 55.7261V55.7114C18.2009 54.4443 19.3288 53.5508 20.9474 53.5508C22.5734 53.5508 23.7013 54.4443 23.7013 55.7114V55.7261C23.7013 57.0078 22.5734 57.938 20.9474 57.938Z" fill="black"/>
<path opacity="0.5" d="M60.2648 58.6484H67.0617V57.7402H61.6637V57.6523L64.4323 54.7812C66.2927 52.855 66.8053 51.9834 66.8053 50.8042V50.7896C66.8053 49.1123 65.4137 47.8599 63.59 47.8599C61.6344 47.8599 60.2282 49.1709 60.2062 50.9946L60.2209 51.002H61.1803V50.9946C61.195 49.6616 62.1545 48.7388 63.5314 48.7388C64.8864 48.7388 65.7873 49.6689 65.7873 50.8848V50.8994C65.7873 51.8589 65.3698 52.4741 63.905 54.0415L60.2648 57.9453V58.6484ZM72.6208 47.8599C70.5407 47.8599 68.988 49.3979 68.988 51.478V51.4927C68.988 53.5068 70.4821 55.0156 72.467 55.0156C73.9758 55.0156 75.1037 54.1367 75.4772 53.0747H75.5798C75.5871 53.1772 75.5798 53.2871 75.5798 53.3896C75.5212 55.9019 74.6276 57.9673 72.5622 57.9673C71.3683 57.9673 70.4894 57.2935 70.1965 56.29L70.1745 56.2095H69.1711L69.1857 56.3047C69.508 57.8062 70.7897 58.8682 72.5549 58.8682C75.0451 58.8682 76.5392 56.7148 76.5392 53.082V53.0674C76.5392 49.354 74.6716 47.8599 72.6208 47.8599ZM72.6208 54.1367C71.1193 54.1367 69.9914 53.0015 69.9914 51.4707V51.4561C69.9914 49.9399 71.1633 48.7534 72.6354 48.7534C74.1589 48.7534 75.3014 49.9985 75.3014 51.5439V51.5513C75.3014 53.0015 74.1149 54.1367 72.6208 54.1367Z" fill="black"/>
<path opacity="0.5" d="M114.268 58.8169C116.348 58.8169 117.879 57.5205 117.879 55.77V55.7554C117.879 54.2539 116.824 53.2725 115.25 53.1479V53.1187C116.597 52.8477 117.498 51.9321 117.498 50.6284V50.6138C117.498 49.0391 116.173 47.9111 114.224 47.9111C112.305 47.9111 110.994 49.0537 110.841 50.6797L110.833 50.7529H111.8L111.807 50.6797C111.917 49.5591 112.862 48.79 114.224 48.79C115.616 48.79 116.495 49.5444 116.495 50.731V50.7456C116.495 51.9102 115.513 52.7451 114.107 52.7451H112.877V53.6021H114.144C115.828 53.6021 116.861 54.3931 116.861 55.7773V55.792C116.861 57.0444 115.792 57.938 114.268 57.938C112.73 57.938 111.719 57.1177 111.58 55.9751L111.573 55.9092H110.606L110.613 55.9897C110.782 57.6157 112.137 58.8169 114.268 58.8169ZM123.497 58.8682C125.819 58.8682 127.225 56.7515 127.225 53.375V53.353C127.225 49.9766 125.819 47.8599 123.497 47.8599C121.175 47.8599 119.783 49.9766 119.783 53.353V53.375C119.783 56.7441 121.175 58.8682 123.497 58.8682ZM123.497 57.9893C121.798 57.9893 120.787 56.2095 120.787 53.375V53.353C120.787 50.5186 121.798 48.7461 123.497 48.7461C125.203 48.7461 126.221 50.5112 126.221 53.353V53.375C126.221 56.2095 125.203 57.9893 123.497 57.9893Z" fill="black"/>
<path opacity="0.5" d="M166.335 58.8169C168.415 58.8169 169.946 57.5205 169.946 55.77V55.7554C169.946 54.2539 168.891 53.2725 167.316 53.1479V53.1187C168.664 52.8477 169.565 51.9321 169.565 50.6284V50.6138C169.565 49.0391 168.239 47.9111 166.291 47.9111C164.372 47.9111 163.061 49.0537 162.907 50.6797L162.9 50.7529H163.867L163.874 50.6797C163.984 49.5591 164.929 48.79 166.291 48.79C167.683 48.79 168.561 49.5444 168.561 50.731V50.7456C168.561 51.9102 167.58 52.7451 166.174 52.7451H164.943V53.6021H166.21C167.895 53.6021 168.928 54.3931 168.928 55.7773V55.792C168.928 57.0444 167.858 57.938 166.335 57.938C164.797 57.938 163.786 57.1177 163.647 55.9751L163.64 55.9092H162.673L162.68 55.9897C162.849 57.6157 164.203 58.8169 166.335 58.8169ZM174.655 58.6484H175.651V48.0796H174.662L171.835 50.0352V51.0972L174.567 49.2002H174.655V58.6484Z" fill="black"/>
<path d="M218.885 58.6484H219.882V48.0796H218.893L216.066 50.0352V51.0972L218.798 49.2002H218.885V58.6484Z" fill="black"/>
<path d="M262.334 58.6484H269.131V57.7402H263.733V57.6523L266.502 54.7812C268.362 52.855 268.875 51.9834 268.875 50.8042V50.7896C268.875 49.1123 267.483 47.8599 265.659 47.8599C263.704 47.8599 262.298 49.1709 262.276 50.9946L262.29 51.002H263.25V50.9946C263.264 49.6616 264.224 48.7388 265.601 48.7388C266.956 48.7388 267.857 49.6689 267.857 50.8848V50.8994C267.857 51.8589 267.439 52.4741 265.974 54.0415L262.334 57.9453V58.6484Z" fill="black"/>
<path d="M311.578 58.8169C313.658 58.8169 315.189 57.5205 315.189 55.77V55.7554C315.189 54.2539 314.134 53.2725 312.56 53.1479V53.1187C313.907 52.8477 314.808 51.9321 314.808 50.6284V50.6138C314.808 49.0391 313.482 47.9111 311.534 47.9111C309.615 47.9111 308.304 49.0537 308.15 50.6797L308.143 50.7529H309.11L309.117 50.6797C309.227 49.5591 310.172 48.79 311.534 48.79C312.926 48.79 313.805 49.5444 313.805 50.731V50.7456C313.805 51.9102 312.823 52.7451 311.417 52.7451H310.187V53.6021H311.454C313.138 53.6021 314.171 54.3931 314.171 55.7773V55.792C314.171 57.0444 313.102 57.938 311.578 57.938C310.04 57.938 309.029 57.1177 308.89 55.9751L308.883 55.9092H307.916L307.923 55.9897C308.092 57.6157 309.447 58.8169 311.578 58.8169Z" fill="black"/>
<path d="M17.8721 93.9863H18.8462V91.5986H20.4283V90.6978H18.8462V83.4028H17.4107C15.1035 86.6108 13.8365 88.5884 12.562 90.6831V91.5986H17.8721V93.9863ZM13.6094 90.7051V90.6392C14.6714 88.8887 15.7261 87.248 17.8062 84.3623H17.8721V90.7051H13.6094Z" fill="black"/>
<path d="M68.3076 94.2061C70.4243 94.2061 71.9551 92.7192 71.9551 90.6245V90.6099C71.9551 88.5811 70.4976 87.0942 68.5201 87.0942C67.4873 87.0942 66.5645 87.541 66.0591 88.3101H65.9639L66.3887 84.3184H71.3326V83.4175H65.5904L65.0044 89.3721H65.8907C66.0078 89.167 66.147 88.9839 66.3008 88.8301C66.8135 88.2661 67.5386 87.9658 68.3662 87.9658C69.8677 87.9658 70.9737 89.0938 70.9737 90.6318V90.6465C70.9737 92.1992 69.8677 93.3125 68.3223 93.3125C66.9746 93.3125 65.9346 92.4409 65.7881 91.3496L65.7808 91.2983H64.8213L64.8286 91.3716C64.9898 92.9756 66.4034 94.2061 68.3076 94.2061Z" fill="black"/>
<path d="M119.555 94.2061C121.643 94.2061 123.188 92.668 123.188 90.5879V90.5732C123.188 88.5591 121.701 87.0503 119.709 87.0503C118.208 87.0503 117.072 87.9292 116.699 88.9912H116.596C116.596 88.8887 116.596 88.7788 116.596 88.6763C116.655 86.1641 117.556 84.0986 119.614 84.0986C120.815 84.0986 121.687 84.7725 121.98 85.7759L122.001 85.8564H123.012L122.99 85.7612C122.668 84.2598 121.386 83.1978 119.628 83.1978C117.138 83.1978 115.637 85.3511 115.637 88.9839V88.9985C115.637 92.7119 117.512 94.2061 119.555 94.2061ZM116.875 90.522V90.5146C116.875 89.0645 118.068 87.9292 119.555 87.9292C121.064 87.9292 122.185 89.0645 122.185 90.5952V90.6099C122.185 92.126 121.02 93.3125 119.541 93.3125C118.017 93.3125 116.875 92.0674 116.875 90.522Z" fill="black"/>
<path d="M167.134 93.9863H168.203L173.037 84.355V83.4175H166.16V84.3184H172.019V84.3989L167.134 93.9863Z" fill="black"/>
<path d="M218.468 94.1548C220.68 94.1548 222.24 92.895 222.24 91.1226V91.1079C222.24 89.7822 221.28 88.6982 219.889 88.3979V88.376C221.083 88.0391 221.859 87.1602 221.859 86.0176V86.0029C221.859 84.4136 220.438 83.249 218.468 83.249C216.505 83.249 215.084 84.4136 215.084 86.0029V86.0176C215.084 87.1602 215.86 88.0391 217.054 88.376V88.3979C215.663 88.6982 214.703 89.7822 214.703 91.1079V91.1226C214.703 92.895 216.263 94.1548 218.468 94.1548ZM218.468 87.9951C217.062 87.9951 216.08 87.2041 216.08 86.0981V86.0835C216.08 84.9556 217.054 84.1206 218.468 84.1206C219.889 84.1206 220.863 84.9556 220.863 86.0835V86.0981C220.863 87.2041 219.881 87.9951 218.468 87.9951ZM218.468 93.2759C216.849 93.2759 215.721 92.3457 215.721 91.064V91.0493C215.721 89.7822 216.849 88.8887 218.468 88.8887C220.094 88.8887 221.222 89.7822 221.222 91.0493V91.064C221.222 92.3457 220.094 93.2759 218.468 93.2759Z" fill="black"/>
<path d="M265.498 83.1978C263.418 83.1978 261.865 84.7358 261.865 86.8159V86.8306C261.865 88.8447 263.359 90.3535 265.344 90.3535C266.853 90.3535 267.981 89.4746 268.355 88.4126H268.457C268.464 88.5151 268.457 88.625 268.457 88.7275C268.398 91.2397 267.505 93.3052 265.439 93.3052C264.246 93.3052 263.367 92.6313 263.074 91.6279L263.052 91.5474H262.048L262.063 91.6426C262.385 93.144 263.667 94.2061 265.432 94.2061C267.922 94.2061 269.417 92.0527 269.417 88.4199V88.4053C269.417 84.6919 267.549 83.1978 265.498 83.1978ZM265.498 89.4746C263.997 89.4746 262.869 88.3394 262.869 86.8086V86.7939C262.869 85.2778 264.041 84.0913 265.513 84.0913C267.036 84.0913 268.179 85.3364 268.179 86.8818V86.8892C268.179 88.3394 266.992 89.4746 265.498 89.4746Z" fill="black"/>
<path d="M307.256 93.9863H308.252V83.4175H307.264L304.436 85.373V86.4351L307.168 84.5381H307.256V93.9863ZM314.859 94.2061C317.181 94.2061 318.587 92.0894 318.587 88.7129V88.6909C318.587 85.3145 317.181 83.1978 314.859 83.1978C312.537 83.1978 311.145 85.3145 311.145 88.6909V88.7129C311.145 92.082 312.537 94.2061 314.859 94.2061ZM314.859 93.3271C313.16 93.3271 312.149 91.5474 312.149 88.7129V88.6909C312.149 85.8564 313.16 84.084 314.859 84.084C316.565 84.084 317.583 85.8491 317.583 88.6909V88.7129C317.583 91.5474 316.565 93.3271 314.859 93.3271Z" fill="black"/>
<path d="M13.5797 129.325H14.5758V118.756H13.587L10.7599 120.712V121.774L13.4918 119.877H13.5797V129.325ZM20.2447 129.325H21.2408V118.756H20.252L17.4249 120.712V121.774L20.1568 119.877H20.2447V129.325Z" fill="black"/>
<path d="M64.2935 129.324H65.2895V118.755H64.3008L61.4736 120.711V121.773L64.2056 119.876H64.2935V129.324ZM68.2705 129.324H75.0674V128.416H69.6694V128.328L72.438 125.457C74.2983 123.531 74.811 122.659 74.811 121.48V121.465C74.811 119.788 73.4194 118.536 71.5957 118.536C69.6401 118.536 68.2339 119.847 68.2119 121.67L68.2266 121.678H69.186V121.67C69.2007 120.337 70.1602 119.415 71.5371 119.415C72.8921 119.415 73.793 120.345 73.793 121.561V121.575C73.793 122.535 73.3755 123.15 71.9106 124.717L68.2705 128.621V129.324Z" fill="black"/>
<path d="M114.73 129.324H115.726V118.755H114.737L111.91 120.711V121.773L114.642 119.876H114.73V129.324ZM122.259 129.493C124.339 129.493 125.87 128.196 125.87 126.446V126.431C125.87 124.93 124.815 123.948 123.241 123.824V123.794C124.588 123.523 125.489 122.608 125.489 121.304V121.29C125.489 119.715 124.163 118.587 122.215 118.587C120.296 118.587 118.985 119.729 118.831 121.355L118.824 121.429H119.791L119.798 121.355C119.908 120.235 120.853 119.466 122.215 119.466C123.607 119.466 124.486 120.22 124.486 121.407V121.421C124.486 122.586 123.504 123.421 122.098 123.421H120.868V124.278H122.135C123.819 124.278 124.852 125.069 124.852 126.453V126.468C124.852 127.72 123.783 128.614 122.259 128.614C120.721 128.614 119.71 127.793 119.571 126.651L119.564 126.585H118.597L118.604 126.666C118.773 128.292 120.128 129.493 122.259 129.493Z" fill="black"/>
<path d="M165.295 129.324H166.291V118.755H165.302L162.475 120.711V121.773L165.207 119.876H165.295V129.324ZM174.274 129.324H175.248V126.937H176.83V126.036H175.248V118.741H173.813C171.506 121.949 170.239 123.926 168.964 126.021V126.937H174.274V129.324ZM170.012 126.043V125.977C171.074 124.227 172.128 122.586 174.208 119.7H174.274V126.043H170.012Z" fill="black"/>
<path d="M214.307 129.324H215.303V118.755H214.314L211.487 120.711V121.773L214.219 119.876H214.307V129.324ZM221.778 129.544C223.894 129.544 225.425 128.057 225.425 125.962V125.948C225.425 123.919 223.968 122.432 221.99 122.432C220.957 122.432 220.035 122.879 219.529 123.648H219.434L219.859 119.656H224.803V118.755H219.06L218.474 124.71H219.361C219.478 124.505 219.617 124.322 219.771 124.168C220.284 123.604 221.009 123.304 221.836 123.304C223.338 123.304 224.444 124.432 224.444 125.97V125.984C224.444 127.537 223.338 128.65 221.792 128.65C220.445 128.65 219.405 127.779 219.258 126.688L219.251 126.636H218.291L218.299 126.709C218.46 128.313 219.873 129.544 221.778 129.544Z" fill="black"/>
<path d="M261.359 129.324H262.355V118.755H261.367L258.539 120.711V121.773L261.271 119.876H261.359V129.324ZM269.145 129.544C271.232 129.544 272.778 128.006 272.778 125.926V125.911C272.778 123.897 271.291 122.388 269.299 122.388C267.797 122.388 266.662 123.267 266.288 124.329H266.186C266.186 124.227 266.186 124.117 266.186 124.014C266.245 121.502 267.145 119.437 269.204 119.437C270.405 119.437 271.276 120.11 271.569 121.114L271.591 121.194H272.602L272.58 121.099C272.258 119.598 270.976 118.536 269.218 118.536C266.728 118.536 265.226 120.689 265.226 124.322V124.336C265.226 128.05 267.101 129.544 269.145 129.544ZM266.464 125.86V125.853C266.464 124.402 267.658 123.267 269.145 123.267C270.654 123.267 271.774 124.402 271.774 125.933V125.948C271.774 127.464 270.61 128.65 269.13 128.65C267.607 128.65 266.464 127.405 266.464 125.86Z" fill="black"/>
<path d="M307.703 129.324H308.699V118.755H307.71L304.883 120.711V121.773L307.615 119.876H307.703V129.324ZM312.376 129.324H313.445L318.279 119.693V118.755H311.402V119.656H317.261V119.737L312.376 129.324Z" fill="black"/>
<path d="M12.1732 164.662H13.1693V154.093H12.1806L9.35341 156.049V157.111L12.0853 155.214H12.1732V164.662ZM19.827 164.831C22.039 164.831 23.599 163.571 23.599 161.798V161.784C23.599 160.458 22.6395 159.374 21.2479 159.074V159.052C22.4418 158.715 23.2182 157.836 23.2182 156.693V156.679C23.2182 155.089 21.7973 153.925 19.827 153.925C17.8642 153.925 16.4433 155.089 16.4433 156.679V156.693C16.4433 157.836 17.2196 158.715 18.4135 159.052V159.074C17.0219 159.374 16.0624 160.458 16.0624 161.784V161.798C16.0624 163.571 17.6225 164.831 19.827 164.831ZM19.827 158.671C18.4208 158.671 17.4393 157.88 17.4393 156.774V156.759C17.4393 155.631 18.4135 154.796 19.827 154.796C21.2479 154.796 22.2221 155.631 22.2221 156.759V156.774C22.2221 157.88 21.2406 158.671 19.827 158.671ZM19.827 163.952C18.2084 163.952 17.0805 163.021 17.0805 161.74V161.725C17.0805 160.458 18.2084 159.564 19.827 159.564C21.453 159.564 22.581 160.458 22.581 161.725V161.74C22.581 163.021 21.453 163.952 19.827 163.952Z" fill="black"/>
<path d="M64.0077 164.661H65.0038V154.092H64.015L61.1879 156.048V157.11L63.9198 155.213H64.0077V164.661ZM71.4784 153.873C69.3983 153.873 67.8456 155.411 67.8456 157.491V157.505C67.8456 159.52 69.3397 161.028 71.3246 161.028C72.8334 161.028 73.9613 160.149 74.3348 159.087H74.4374C74.4447 159.19 74.4374 159.3 74.4374 159.402C74.3788 161.915 73.4852 163.98 71.4198 163.98C70.226 163.98 69.3471 163.306 69.0541 162.303L69.0321 162.222H68.0287L68.0433 162.317C68.3656 163.819 69.6473 164.881 71.4125 164.881C73.9027 164.881 75.3969 162.728 75.3969 159.095V159.08C75.3969 155.367 73.5292 153.873 71.4784 153.873ZM71.4784 160.149C69.9769 160.149 68.849 159.014 68.849 157.483V157.469C68.849 155.953 70.0209 154.766 71.4931 154.766C73.0165 154.766 74.1591 156.011 74.1591 157.557V157.564C74.1591 159.014 72.9725 160.149 71.4784 160.149Z" fill="black"/>
<path d="M110.906 164.661H117.703V163.753H112.305V163.665L115.074 160.794C116.934 158.868 117.447 157.996 117.447 156.817V156.802C117.447 155.125 116.055 153.873 114.232 153.873C112.276 153.873 110.87 155.184 110.848 157.007L110.862 157.015H111.822V157.007C111.837 155.674 112.796 154.751 114.173 154.751C115.528 154.751 116.429 155.682 116.429 156.897V156.912C116.429 157.872 116.011 158.487 114.547 160.054L110.906 163.958V164.661ZM123.35 164.881C125.672 164.881 127.078 162.764 127.078 159.388V159.366C127.078 155.989 125.672 153.873 123.35 153.873C121.028 153.873 119.637 155.989 119.637 159.366V159.388C119.637 162.757 121.028 164.881 123.35 164.881ZM123.35 164.002C121.651 164.002 120.64 162.222 120.64 159.388V159.366C120.64 156.531 121.651 154.759 123.35 154.759C125.057 154.759 126.075 156.524 126.075 159.366V159.388C126.075 162.222 125.057 164.002 123.35 164.002Z" fill="black"/>
<path d="M162.966 164.661H169.763V163.753H164.365V163.665L167.133 160.794C168.994 158.868 169.506 157.996 169.506 156.817V156.802C169.506 155.125 168.115 153.873 166.291 153.873C164.335 153.873 162.929 155.184 162.907 157.007L162.922 157.015H163.881V157.007C163.896 155.674 164.855 154.751 166.232 154.751C167.587 154.751 168.488 155.682 168.488 156.897V156.912C168.488 157.872 168.071 158.487 166.606 160.054L162.966 163.958V164.661ZM174.516 164.661H175.512V154.092H174.523L171.696 156.048V157.11L174.428 155.213H174.516V164.661Z" fill="black"/>
<path d="M210.667 164.661H217.464V163.753H212.066V163.665L214.834 160.794C216.695 158.868 217.207 157.996 217.207 156.817V156.802C217.207 155.125 215.816 153.873 213.992 153.873C212.036 153.873 210.63 155.184 210.608 157.007L210.623 157.015H211.582V157.007C211.597 155.674 212.556 154.751 213.933 154.751C215.288 154.751 216.189 155.682 216.189 156.897V156.912C216.189 157.872 215.772 158.487 214.307 160.054L210.667 163.958V164.661ZM219.617 164.661H226.414V163.753H221.016V163.665L223.784 160.794C225.645 158.868 226.158 157.996 226.158 156.817V156.802C226.158 155.125 224.766 153.873 222.942 153.873C220.987 153.873 219.58 155.184 219.558 157.007L219.573 157.015H220.533V157.007C220.547 155.674 221.507 154.751 222.884 154.751C224.239 154.751 225.139 155.682 225.139 156.897V156.912C225.139 157.872 224.722 158.487 223.257 160.054L219.617 163.958V164.661Z" fill="black"/>
<path d="M257.723 164.661H264.52V163.753H259.122V163.665L261.89 160.794C263.751 158.868 264.263 157.996 264.263 156.817V156.802C264.263 155.125 262.872 153.873 261.048 153.873C259.092 153.873 257.686 155.184 257.664 157.007L257.679 157.015H258.638V157.007C258.653 155.674 259.612 154.751 260.989 154.751C262.344 154.751 263.245 155.682 263.245 156.897V156.912C263.245 157.872 262.828 158.487 261.363 160.054L257.723 163.958V164.661ZM270.181 164.83C272.261 164.83 273.792 163.533 273.792 161.783V161.768C273.792 160.267 272.737 159.285 271.163 159.161V159.131C272.51 158.86 273.411 157.945 273.411 156.641V156.626C273.411 155.052 272.086 153.924 270.137 153.924C268.218 153.924 266.907 155.066 266.754 156.692L266.746 156.766H267.713L267.72 156.692C267.83 155.572 268.775 154.803 270.137 154.803C271.529 154.803 272.408 155.557 272.408 156.744V156.758C272.408 157.923 271.426 158.758 270.02 158.758H268.79V159.615H270.057C271.741 159.615 272.774 160.406 272.774 161.79V161.805C272.774 163.057 271.705 163.951 270.181 163.951C268.643 163.951 267.632 163.13 267.493 161.988L267.486 161.922H266.519L266.527 162.002C266.695 163.628 268.05 164.83 270.181 164.83Z" fill="black"/>
<path d="M303.572 164.661H310.369V163.753H304.971V163.665L307.739 160.794C309.6 158.868 310.112 157.996 310.112 156.817V156.802C310.112 155.125 308.721 153.873 306.897 153.873C304.942 153.873 303.535 155.184 303.513 157.007L303.528 157.015H304.487V157.007C304.502 155.674 305.462 154.751 306.839 154.751C308.194 154.751 309.094 155.682 309.094 156.897V156.912C309.094 157.872 308.677 158.487 307.212 160.054L303.572 163.958V164.661ZM317.217 164.661H318.191V162.273H319.773V161.373H318.191V154.078H316.756C314.448 157.286 313.181 159.263 311.907 161.358V162.273H317.217V164.661ZM312.954 161.38V161.314C314.016 159.563 315.071 157.923 317.151 155.037H317.217V161.38H312.954Z" fill="black"/>
<path d="M8.56961 200H15.3665V199.092H9.96853V199.004L12.7371 196.133C14.5974 194.207 15.1101 193.335 15.1101 192.156V192.141C15.1101 190.464 13.7185 189.211 11.8948 189.211C9.93923 189.211 8.53298 190.522 8.51101 192.346L8.52566 192.354H9.48513V192.346C9.49978 191.013 10.4593 190.09 11.8362 190.09C13.1912 190.09 14.0921 191.021 14.0921 192.236V192.251C14.0921 193.21 13.6746 193.826 12.2097 195.393L8.56961 199.297V200ZM20.9695 200.22C23.0862 200.22 24.617 198.733 24.617 196.638V196.624C24.617 194.595 23.1594 193.108 21.1819 193.108C20.1492 193.108 19.2263 193.555 18.721 194.324H18.6258L19.0506 190.332H23.9944V189.431H18.2522L17.6663 195.386H18.5525C18.6697 195.181 18.8089 194.998 18.9627 194.844C19.4754 194.28 20.2005 193.979 21.0281 193.979C22.5296 193.979 23.6355 195.107 23.6355 196.646V196.66C23.6355 198.213 22.5296 199.326 20.9842 199.326C19.6365 199.326 18.5965 198.455 18.45 197.363L18.4427 197.312H17.4832L17.4905 197.385C17.6516 198.989 19.0652 200.22 20.9695 200.22Z" fill="black"/>
<path d="M60.2868 200H67.0837V199.092H61.6857V199.004L64.4543 196.133C66.3146 194.207 66.8273 193.335 66.8273 192.156V192.141C66.8273 190.464 65.4357 189.211 63.612 189.211C61.6564 189.211 60.2502 190.522 60.2282 192.346L60.2428 192.354H61.2023V192.346C61.217 191.013 62.1764 190.09 63.5534 190.09C64.9084 190.09 65.8093 191.021 65.8093 192.236V192.251C65.8093 193.21 65.3918 193.826 63.9269 195.393L60.2868 199.297V200ZM72.9137 200.22C75.0011 200.22 76.5466 198.682 76.5466 196.602V196.587C76.5466 194.573 75.0597 193.064 73.0676 193.064C71.5661 193.064 70.4308 193.943 70.0573 195.005H69.9548C69.9548 194.902 69.9548 194.792 69.9548 194.69C70.0134 192.178 70.9142 190.112 72.9723 190.112C74.1735 190.112 75.0451 190.786 75.3381 191.79L75.36 191.87H76.3708L76.3488 191.775C76.0265 190.273 74.7448 189.211 72.987 189.211C70.4968 189.211 68.9953 191.365 68.9953 194.998V195.012C68.9953 198.726 70.8703 200.22 72.9137 200.22ZM70.2331 196.536V196.528C70.2331 195.078 71.4269 193.943 72.9137 193.943C74.4225 193.943 75.5431 195.078 75.5431 196.609V196.624C75.5431 198.14 74.3786 199.326 72.8991 199.326C71.3757 199.326 70.2331 198.081 70.2331 196.536Z" fill="black"/>
<path d="M111.408 200H118.205V199.092H112.807V199.004L115.575 196.133C117.436 194.207 117.949 193.335 117.949 192.156V192.141C117.949 190.464 116.557 189.211 114.733 189.211C112.778 189.211 111.371 190.522 111.349 192.346L111.364 192.354H112.324V192.346C112.338 191.013 113.298 190.09 114.675 190.09C116.03 190.09 116.93 191.021 116.93 192.236V192.251C116.93 193.21 116.513 193.826 115.048 195.393L111.408 199.297V200ZM120.805 200H121.874L126.708 190.369V189.431H119.831V190.332H125.69V190.413L120.805 200Z" fill="black"/>
<path d="M161.581 200H168.378V199.092H162.98V199.004L165.749 196.133C167.609 194.207 168.122 193.335 168.122 192.156V192.141C168.122 190.464 166.73 189.211 164.906 189.211C162.951 189.211 161.545 190.522 161.523 192.346L161.537 192.354H162.497V192.346C162.511 191.013 163.471 190.09 164.848 190.09C166.203 190.09 167.104 191.021 167.104 192.236V192.251C167.104 193.21 166.686 193.826 165.221 195.393L161.581 199.297V200ZM174.076 200.168C176.288 200.168 177.848 198.909 177.848 197.136V197.122C177.848 195.796 176.889 194.712 175.497 194.412V194.39C176.691 194.053 177.467 193.174 177.467 192.031V192.017C177.467 190.427 176.047 189.263 174.076 189.263C172.113 189.263 170.693 190.427 170.693 192.017V192.031C170.693 193.174 171.469 194.053 172.663 194.39V194.412C171.271 194.712 170.312 195.796 170.312 197.122V197.136C170.312 198.909 171.872 200.168 174.076 200.168ZM174.076 194.009C172.67 194.009 171.689 193.218 171.689 192.112V192.097C171.689 190.969 172.663 190.134 174.076 190.134C175.497 190.134 176.471 190.969 176.471 192.097V192.112C176.471 193.218 175.49 194.009 174.076 194.009ZM174.076 199.29C172.458 199.29 171.33 198.359 171.33 197.078V197.063C171.33 195.796 172.458 194.902 174.076 194.902C175.702 194.902 176.83 195.796 176.83 197.063V197.078C176.83 198.359 175.702 199.29 174.076 199.29Z" fill="black"/>
<path d="M210.425 200H217.222V199.092H211.824V199.004L214.592 196.133C216.453 194.207 216.965 193.335 216.965 192.156V192.141C216.965 190.464 215.574 189.211 213.75 189.211C211.795 189.211 210.388 190.522 210.366 192.346L210.381 192.354H211.34V192.346C211.355 191.013 212.315 190.09 213.692 190.09C215.047 190.09 215.947 191.021 215.947 192.236V192.251C215.947 193.21 215.53 193.826 214.065 195.393L210.425 199.297V200ZM222.781 189.211C220.701 189.211 219.148 190.75 219.148 192.83V192.844C219.148 194.858 220.642 196.367 222.627 196.367C224.136 196.367 225.264 195.488 225.637 194.426H225.74C225.747 194.529 225.74 194.639 225.74 194.741C225.681 197.253 224.788 199.319 222.722 199.319C221.528 199.319 220.65 198.645 220.357 197.642L220.335 197.561H219.331L219.346 197.656C219.668 199.158 220.95 200.22 222.715 200.22C225.205 200.22 226.699 198.066 226.699 194.434V194.419C226.699 190.706 224.832 189.211 222.781 189.211ZM222.781 195.488C221.279 195.488 220.152 194.353 220.152 192.822V192.808C220.152 191.292 221.323 190.105 222.796 190.105C224.319 190.105 225.462 191.35 225.462 192.896V192.903C225.462 194.353 224.275 195.488 222.781 195.488Z" fill="black"/>
<path d="M261.022 200.168C263.102 200.168 264.633 198.872 264.633 197.122V197.107C264.633 195.605 263.578 194.624 262.004 194.5V194.47C263.351 194.199 264.252 193.284 264.252 191.98V191.965C264.252 190.391 262.926 189.263 260.978 189.263C259.059 189.263 257.748 190.405 257.594 192.031L257.587 192.104H258.554L258.561 192.031C258.671 190.911 259.616 190.142 260.978 190.142C262.37 190.142 263.249 190.896 263.249 192.083V192.097C263.249 193.262 262.267 194.097 260.861 194.097H259.631V194.954H260.898C262.582 194.954 263.615 195.745 263.615 197.129V197.144C263.615 198.396 262.546 199.29 261.022 199.29C259.484 199.29 258.473 198.469 258.334 197.327L258.327 197.261H257.36L257.367 197.341C257.536 198.967 258.891 200.168 261.022 200.168ZM270.251 200.22C272.572 200.22 273.979 198.103 273.979 194.727V194.705C273.979 191.328 272.572 189.211 270.251 189.211C267.929 189.211 266.537 191.328 266.537 194.705V194.727C266.537 198.096 267.929 200.22 270.251 200.22ZM270.251 199.341C268.551 199.341 267.541 197.561 267.541 194.727V194.705C267.541 191.87 268.551 190.098 270.251 190.098C271.957 190.098 272.975 191.863 272.975 194.705V194.727C272.975 197.561 271.957 199.341 270.251 199.341Z" fill="black"/>
<path d="M308.245 200.168C310.325 200.168 311.856 198.872 311.856 197.122V197.107C311.856 195.605 310.801 194.624 309.226 194.5V194.47C310.574 194.199 311.475 193.284 311.475 191.98V191.965C311.475 190.391 310.149 189.263 308.201 189.263C306.282 189.263 304.971 190.405 304.817 192.031L304.81 192.104H305.777L305.784 192.031C305.894 190.911 306.839 190.142 308.201 190.142C309.593 190.142 310.472 190.896 310.472 192.083V192.097C310.472 193.262 309.49 194.097 308.084 194.097H306.853V194.954H308.12C309.805 194.954 310.838 195.745 310.838 197.129V197.144C310.838 198.396 309.768 199.29 308.245 199.29C306.707 199.29 305.696 198.469 305.557 197.327L305.55 197.261H304.583L304.59 197.341C304.759 198.967 306.114 200.168 308.245 200.168ZM316.565 200H317.561V189.431H316.573L313.745 191.387V192.449L316.477 190.552H316.565V200Z" fill="black"/>
<path fill-rule="evenodd" clip-rule="evenodd" d="M12 268C18.6274 268 24 262.627 24 256C24 249.373 18.6274 244 12 244C5.37258 244 0 249.373 0 256C0 262.627 5.37258 268 12 268Z" fill="#F8CFD3"/>
<path d="M37.7744 264.299C40.6045 264.299 42.459 262.822 42.459 260.449V260.44C42.459 258.612 41.4131 257.549 38.7676 256.96L37.3613 256.644C35.6387 256.266 34.9443 255.58 34.9443 254.569V254.561C34.9443 253.233 36.166 252.486 37.748 252.478C39.4004 252.469 40.4551 253.295 40.6309 254.411L40.6484 254.525H42.2305L42.2217 254.402C42.0898 252.513 40.3232 251.019 37.792 251.019C35.1729 251.019 33.3359 252.504 33.3271 254.604V254.613C33.3271 256.45 34.4258 257.619 36.9658 258.182L38.3721 258.489C40.1123 258.876 40.8418 259.597 40.8418 260.651V260.66C40.8418 261.952 39.585 262.84 37.8623 262.84C36.0342 262.84 34.7158 262.04 34.6016 260.774L34.5928 260.678H33.0107L33.0195 260.774C33.2041 262.84 34.9971 264.299 37.7744 264.299ZM45.0957 264H52.9531V262.576H46.6777V258.217H52.6279V256.811H46.6777V252.741H52.9531V251.317H45.0957V264ZM55.8184 264H63.5176V262.576H57.4004V251.317H55.8184V264ZM66.0488 264H67.6309V258.507H73.2471V257.101H67.6309V252.741H73.748V251.317H66.0488V264ZM76.0244 259.605H81.9307V258.182H76.0244V259.605ZM89.9463 264.299C92.6445 264.299 94.6484 262.796 95.0703 260.476V260.458H93.4707L93.4531 260.476C93.0576 261.935 91.7129 262.84 89.9463 262.84C87.5029 262.84 85.9736 260.845 85.9736 257.672V257.654C85.9736 254.481 87.5029 252.478 89.9375 252.478C91.6865 252.478 93.04 253.506 93.4619 255.132L93.4707 255.149H95.0615L95.0703 255.132C94.6924 252.697 92.6094 251.019 89.9375 251.019C86.4922 251.019 84.3477 253.567 84.3477 257.654V257.672C84.3477 261.75 86.501 264.299 89.9463 264.299ZM96.3623 264H98.0234L99.2979 260.37H104.343L105.617 264H107.278L102.603 251.317H101.038L96.3623 264ZM101.75 253.365H101.891L103.877 259.025H99.7637L101.75 253.365ZM109.502 264H111.084V258.981H114.204L116.92 264H118.774L115.839 258.735C117.43 258.234 118.388 256.863 118.388 255.105V255.088C118.388 252.812 116.788 251.317 114.345 251.317H109.502V264ZM111.084 257.575V252.724H114.134C115.769 252.724 116.753 253.629 116.753 255.141V255.158C116.753 256.705 115.83 257.575 114.204 257.575H111.084ZM121.262 264H129.119V262.576H122.844V258.217H128.794V256.811H122.844V252.741H129.119V251.317H121.262V264ZM140.343 264H141.925V252.741H146.012V251.317H136.256V252.741H140.343V264ZM148.455 264H150.037V251.317H148.455V264ZM153.271 264H154.748V254.314H154.845L158.853 264H160.188L164.196 254.314H164.293V264H165.77V251.317H163.933L159.591 261.899H159.45L155.108 251.317H153.271V264ZM169.004 264H176.861V262.576H170.586V258.217H176.536V256.811H170.586V252.741H176.861V251.317H169.004V264Z" fill="black"/>
<path fill-rule="evenodd" clip-rule="evenodd" d="M12 303C18.6274 303 24 297.627 24 291C24 284.373 18.6274 279 12 279C5.37258 279 0 284.373 0 291C0 297.627 5.37258 303 12 303Z" fill="#91C8C3"/>
<path d="M33.6172 299H35.1992V293.981H38.3193L41.0352 299H42.8896L39.9541 293.735C41.5449 293.234 42.5029 291.863 42.5029 290.105V290.088C42.5029 287.812 40.9033 286.317 38.46 286.317H33.6172V299ZM35.1992 292.575V287.724H38.249C39.8838 287.724 40.8682 288.629 40.8682 290.141V290.158C40.8682 291.705 39.9453 292.575 38.3193 292.575H35.1992ZM45.377 299H53.2344V297.576H46.959V293.217H52.9092V291.811H46.959V287.741H53.2344V286.317H45.377V299ZM55.0889 299H56.75L58.0244 295.37H63.0693L64.3438 299H66.0049L61.3291 286.317H59.7646L55.0889 299ZM60.4766 288.365H60.6172L62.6035 294.025H58.4902L60.4766 288.365ZM68.2285 299H72.5791C76.3496 299 78.5645 296.653 78.5645 292.663V292.646C78.5645 288.664 76.3408 286.317 72.5791 286.317H68.2285V299ZM69.8105 297.576V287.741H72.4736C75.2861 287.741 76.9473 289.569 76.9473 292.663V292.681C76.9473 295.766 75.3037 297.576 72.4736 297.576H69.8105ZM84.1807 299H85.7627V293.542L90.2627 286.317H88.4609L85.042 291.951H84.9014L81.4824 286.317H79.6807L84.1807 293.542V299ZM100.845 299H102.427V287.741H106.514V286.317H96.7578V287.741H100.845V299ZM113.756 299.299C117.377 299.299 119.574 296.706 119.574 292.663V292.646C119.574 288.585 117.359 286.019 113.756 286.019C110.17 286.019 107.938 288.576 107.938 292.646V292.663C107.938 296.715 110.117 299.299 113.756 299.299ZM113.756 297.84C111.119 297.84 109.555 295.801 109.555 292.663V292.646C109.555 289.481 111.172 287.478 113.756 287.478C116.349 287.478 117.957 289.481 117.957 292.646V292.663C117.957 295.801 116.357 297.84 113.756 297.84ZM130.675 299H132.257V287.741H136.344V286.317H126.588V287.741H130.675V299ZM136.282 299H137.943L139.218 295.37H144.263L145.537 299H147.198L142.522 286.317H140.958L136.282 299ZM141.67 288.365H141.811L143.797 294.025H139.684L141.67 288.365ZM153.913 299.299C156.611 299.299 158.615 297.796 159.037 295.476V295.458H157.438L157.42 295.476C157.024 296.935 155.68 297.84 153.913 297.84C151.47 297.84 149.94 295.845 149.94 292.672V292.654C149.94 289.481 151.47 287.478 153.904 287.478C155.653 287.478 157.007 288.506 157.429 290.132L157.438 290.149H159.028L159.037 290.132C158.659 287.697 156.576 286.019 153.904 286.019C150.459 286.019 148.314 288.567 148.314 292.654V292.672C148.314 296.75 150.468 299.299 153.913 299.299ZM161.691 299H163.273V294.57L164.794 292.892L169.373 299H171.421L165.884 291.793L170.955 286.317H168.969L163.414 292.479H163.273V286.317H161.691V299ZM173.557 299H181.256V297.576H175.139V286.317H173.557V299ZM183.787 299H191.645V297.576H185.369V293.217H191.319V291.811H185.369V287.741H191.645V286.317H183.787V299ZM202.868 299H204.45V287.741H208.537V286.317H198.781V287.741H202.868V299ZM210.98 299H212.562V293.226H219.523V299H221.105V286.317H219.523V291.802H212.562V286.317H210.98V299ZM224.34 299H232.197V297.576H225.922V293.217H231.872V291.811H225.922V287.741H232.197V286.317H224.34V299ZM242.753 299H244.247L247.165 288.989H247.271L250.188 299H251.683L255.137 286.317H253.484L250.962 296.627H250.856L248.018 286.317H246.418L243.579 296.627H243.474L240.951 286.317H239.299L242.753 299ZM262.344 299.299C265.965 299.299 268.162 296.706 268.162 292.663V292.646C268.162 288.585 265.947 286.019 262.344 286.019C258.758 286.019 256.525 288.576 256.525 292.646V292.663C256.525 296.715 258.705 299.299 262.344 299.299ZM262.344 297.84C259.707 297.84 258.143 295.801 258.143 292.663V292.646C258.143 289.481 259.76 287.478 262.344 287.478C264.937 287.478 266.545 289.481 266.545 292.646V292.663C266.545 295.801 264.945 297.84 262.344 297.84ZM270.904 299H272.486V293.981H275.606L278.322 299H280.177L277.241 293.735C278.832 293.234 279.79 291.863 279.79 290.105V290.088C279.79 287.812 278.19 286.317 275.747 286.317H270.904V299ZM272.486 292.575V287.724H275.536C277.171 287.724 278.155 288.629 278.155 290.141V290.158C278.155 291.705 277.232 292.575 275.606 292.575H272.486ZM282.664 299H290.363V297.576H284.246V286.317H282.664V299ZM292.895 299H297.245C301.016 299 303.23 296.653 303.23 292.663V292.646C303.23 288.664 301.007 286.317 297.245 286.317H292.895V299ZM294.477 297.576V287.741H297.14C299.952 287.741 301.613 289.569 301.613 292.663V292.681C301.613 295.766 299.97 297.576 297.14 297.576H294.477Z" fill="black"/>
<path fill-rule="evenodd" clip-rule="evenodd" d="M12 339.5C18.6274 339.5 24 334.127 24 327.5C24 320.873 18.6274 315.5 12 315.5C5.37258 315.5 0 320.873 0 327.5C0 334.127 5.37258 339.5 12 339.5Z" fill="#FEFACA"/>
<path d="M33.6172 334H35.0938V324.314H35.1904L39.1982 334H40.5342L44.542 324.314H44.6387V334H46.1152V321.317H44.2783L39.9365 331.899H39.7959L35.4541 321.317H33.6172V334ZM54.6758 334.299C58.2969 334.299 60.4941 331.706 60.4941 327.663V327.646C60.4941 323.585 58.2793 321.019 54.6758 321.019C51.0898 321.019 48.8574 323.576 48.8574 327.646V327.663C48.8574 331.715 51.0371 334.299 54.6758 334.299ZM54.6758 332.84C52.0391 332.84 50.4746 330.801 50.4746 327.663V327.646C50.4746 324.481 52.0918 322.478 54.6758 322.478C57.2686 322.478 58.877 324.481 58.877 327.646V327.663C58.877 330.801 57.2773 332.84 54.6758 332.84ZM67.3936 334.299C70.2236 334.299 72.0781 332.822 72.0781 330.449V330.44C72.0781 328.612 71.0322 327.549 68.3867 326.96L66.9805 326.644C65.2578 326.266 64.5635 325.58 64.5635 324.569V324.561C64.5635 323.233 65.7852 322.486 67.3672 322.478C69.0195 322.469 70.0742 323.295 70.25 324.411L70.2676 324.525H71.8496L71.8408 324.402C71.709 322.513 69.9424 321.019 67.4111 321.019C64.792 321.019 62.9551 322.504 62.9463 324.604V324.613C62.9463 326.45 64.0449 327.619 66.585 328.182L67.9912 328.489C69.7314 328.876 70.4609 329.597 70.4609 330.651V330.66C70.4609 331.952 69.2041 332.84 67.4814 332.84C65.6533 332.84 64.335 332.04 64.2207 330.774L64.2119 330.678H62.6299L62.6387 330.774C62.8232 332.84 64.6162 334.299 67.3936 334.299ZM78.0107 334H79.5928V322.741H83.6797V321.317H73.9238V322.741H78.0107V334ZM91.1855 334H92.7676V329.474H95.9668C98.3486 329.474 100.036 327.795 100.036 325.387V325.369C100.036 322.961 98.3486 321.317 95.9668 321.317H91.1855V334ZM95.5625 322.724C97.373 322.724 98.4189 323.717 98.4189 325.387V325.404C98.4189 327.074 97.373 328.067 95.5625 328.067H92.7676V322.724H95.5625ZM102.629 334H104.211V328.981H107.331L110.047 334H111.901L108.966 328.735C110.557 328.234 111.515 326.863 111.515 325.105V325.088C111.515 322.812 109.915 321.317 107.472 321.317H102.629V334ZM104.211 327.575V322.724H107.261C108.896 322.724 109.88 323.629 109.88 325.141V325.158C109.88 326.705 108.957 327.575 107.331 327.575H104.211ZM119.715 334.299C123.336 334.299 125.533 331.706 125.533 327.663V327.646C125.533 323.585 123.318 321.019 119.715 321.019C116.129 321.019 113.896 323.576 113.896 327.646V327.663C113.896 331.715 116.076 334.299 119.715 334.299ZM119.715 332.84C117.078 332.84 115.514 330.801 115.514 327.663V327.646C115.514 324.481 117.131 322.478 119.715 322.478C122.308 322.478 123.916 324.481 123.916 327.646V327.663C123.916 330.801 122.316 332.84 119.715 332.84ZM128.275 334H132.626C136.396 334 138.611 331.653 138.611 327.663V327.646C138.611 323.664 136.388 321.317 132.626 321.317H128.275V334ZM129.857 332.576V322.741H132.521C135.333 322.741 136.994 324.569 136.994 327.663V327.681C136.994 330.766 135.351 332.576 132.521 332.576H129.857ZM146.381 334.299C149.527 334.299 151.408 332.4 151.408 329.641V321.317H149.826V329.535C149.826 331.486 148.578 332.84 146.381 332.84C144.184 332.84 142.918 331.486 142.918 329.535V321.317H141.336V329.641C141.336 332.4 143.234 334.299 146.381 334.299ZM159.731 334.299C162.43 334.299 164.434 332.796 164.855 330.476V330.458H163.256L163.238 330.476C162.843 331.935 161.498 332.84 159.731 332.84C157.288 332.84 155.759 330.845 155.759 327.672V327.654C155.759 324.481 157.288 322.478 159.723 322.478C161.472 322.478 162.825 323.506 163.247 325.132L163.256 325.149H164.847L164.855 325.132C164.478 322.697 162.395 321.019 159.723 321.019C156.277 321.019 154.133 323.567 154.133 327.654V327.672C154.133 331.75 156.286 334.299 159.731 334.299ZM170.366 334H171.948V322.741H176.035V321.317H166.279V322.741H170.366V334ZM178.479 334H180.061V321.317H178.479V334ZM186.96 334H188.524L193.2 321.317H191.539L187.812 331.952H187.672L183.945 321.317H182.284L186.96 334ZM195.424 334H203.281V332.576H197.006V328.217H202.956V326.811H197.006V322.741H203.281V321.317H195.424V334Z" fill="black"/>
<path fill-rule="evenodd" clip-rule="evenodd" d="M12 374.5C18.6274 374.5 24 369.127 24 362.5C24 355.873 18.6274 350.5 12 350.5C5.37258 350.5 0 355.873 0 362.5C0 369.127 5.37258 374.5 12 374.5Z" fill="#A0A7D6"/>
<path d="M36.9131 369H38.4951V357.741H42.582V356.317H32.8262V357.741H36.9131V369ZM45.0254 369H46.6074V356.317H45.0254V369ZM49.8418 369H51.3184V359.314H51.415L55.4229 369H56.7588L60.7666 359.314H60.8633V369H62.3398V356.317H60.5029L56.1611 366.899H56.0205L51.6787 356.317H49.8418V369ZM65.5742 369H73.4316V367.576H67.1562V363.217H73.1064V361.811H67.1562V357.741H73.4316V356.317H65.5742V369ZM84.6553 369H86.2373V357.741H90.3242V356.317H80.5684V357.741H84.6553V369ZM97.5664 369.299C101.188 369.299 103.385 366.706 103.385 362.663V362.646C103.385 358.585 101.17 356.019 97.5664 356.019C93.9805 356.019 91.748 358.576 91.748 362.646V362.663C91.748 366.715 93.9277 369.299 97.5664 369.299ZM97.5664 367.84C94.9297 367.84 93.3652 365.801 93.3652 362.663V362.646C93.3652 359.481 94.9824 357.478 97.5664 357.478C100.159 357.478 101.768 359.481 101.768 362.646V362.663C101.768 365.801 100.168 367.84 97.5664 367.84ZM115.347 369.299C118.177 369.299 120.031 367.822 120.031 365.449V365.44C120.031 363.612 118.985 362.549 116.34 361.96L114.934 361.644C113.211 361.266 112.517 360.58 112.517 359.569V359.561C112.517 358.233 113.738 357.486 115.32 357.478C116.973 357.469 118.027 358.295 118.203 359.411L118.221 359.525H119.803L119.794 359.402C119.662 357.513 117.896 356.019 115.364 356.019C112.745 356.019 110.908 357.504 110.899 359.604V359.613C110.899 361.45 111.998 362.619 114.538 363.182L115.944 363.489C117.685 363.876 118.414 364.597 118.414 365.651V365.66C118.414 366.952 117.157 367.84 115.435 367.84C113.606 367.84 112.288 367.04 112.174 365.774L112.165 365.678H110.583L110.592 365.774C110.776 367.84 112.569 369.299 115.347 369.299ZM122.668 369H130.367V367.576H124.25V356.317H122.668V369ZM137.697 369.299C141.318 369.299 143.516 366.706 143.516 362.663V362.646C143.516 358.585 141.301 356.019 137.697 356.019C134.111 356.019 131.879 358.576 131.879 362.646V362.663C131.879 366.715 134.059 369.299 137.697 369.299ZM137.697 367.84C135.061 367.84 133.496 365.801 133.496 362.663V362.646C133.496 359.481 135.113 357.478 137.697 357.478C140.29 357.478 141.898 359.481 141.898 362.646V362.663C141.898 365.801 140.299 367.84 137.697 367.84ZM148.358 369H149.853L152.771 358.989H152.876L155.794 369H157.288L160.742 356.317H159.09L156.567 366.627H156.462L153.623 356.317H152.023L149.185 366.627H149.079L146.557 356.317H144.904L148.358 369ZM168.213 369H172.563C176.334 369 178.549 366.653 178.549 362.663V362.646C178.549 358.664 176.325 356.317 172.563 356.317H168.213V369ZM169.795 367.576V357.741H172.458C175.271 357.741 176.932 359.569 176.932 362.663V362.681C176.932 365.766 175.288 367.576 172.458 367.576H169.795ZM186.617 369.299C190.238 369.299 192.436 366.706 192.436 362.663V362.646C192.436 358.585 190.221 356.019 186.617 356.019C183.031 356.019 180.799 358.576 180.799 362.646V362.663C180.799 366.715 182.979 369.299 186.617 369.299ZM186.617 367.84C183.98 367.84 182.416 365.801 182.416 362.663V362.646C182.416 359.481 184.033 357.478 186.617 357.478C189.21 357.478 190.818 359.481 190.818 362.646V362.663C190.818 365.801 189.219 367.84 186.617 367.84ZM197.278 369H198.772L201.69 358.989H201.796L204.714 369H206.208L209.662 356.317H208.01L205.487 366.627H205.382L202.543 356.317H200.943L198.104 366.627H197.999L195.477 356.317H193.824L197.278 369ZM212.07 369H213.635V359.165H213.775L220.657 369H222.195V356.317H220.631V366.188H220.49L213.608 356.317H212.07V369Z" fill="black"/>
</svg>
