<svg width="25" height="25" viewBox="0 0 25 25" fill="none" xmlns="http://www.w3.org/2000/svg">
<path d="M7.73047 11.7959H9.73047V13.7959H7.73047V11.7959ZM21.7305 5.7959V19.7959C21.7305 20.9059 20.8405 21.7959 19.7305 21.7959H5.73047C4.62047 21.7959 3.73047 20.8959 3.73047 19.7959V5.7959C3.73047 4.6959 4.63047 3.7959 5.73047 3.7959H6.73047V1.7959H8.73047V3.7959H16.7305V1.7959H18.7305V3.7959H19.7305C20.8405 3.7959 21.7305 4.6959 21.7305 5.7959ZM5.73047 7.7959H19.7305V5.7959H5.73047V7.7959ZM19.7305 19.7959V9.7959H5.73047V19.7959H19.7305ZM15.7305 13.7959V11.7959H17.7305V13.7959H15.7305ZM11.7305 13.7959V11.7959H13.7305V13.7959H11.7305ZM7.73047 15.7959H9.73047V17.7959H7.73047V15.7959ZM15.7305 17.7959V15.7959H17.7305V17.7959H15.7305ZM11.7305 17.7959V15.7959H13.7305V17.7959H11.7305Z" fill="black"/>
</svg>
