<svg width="340" height="376" viewBox="0 0 340 376" fill="none" xmlns="http://www.w3.org/2000/svg">
<path fill-rule="evenodd" clip-rule="evenodd" d="M16 176C24.8366 176 32 168.837 32 160C32 151.163 24.8366 144 16 144C7.16344 144 0 151.163 0 160C0 168.837 7.16344 176 16 176Z" fill="#FEFACA"/>
<path fill-rule="evenodd" clip-rule="evenodd" d="M16 140C24.8366 140 32 132.837 32 124C32 115.163 24.8366 108 16 108C7.16344 108 0 115.163 0 124C0 132.837 7.16344 140 16 140Z" fill="#91C8C3"/>
<path fill-rule="evenodd" clip-rule="evenodd" d="M69 176C77.8366 176 85 168.837 85 160C85 151.163 77.8366 144 69 144C60.1634 144 53 151.163 53 160C53 168.837 60.1634 176 69 176Z" fill="#FEFACA"/>
<path fill-rule="evenodd" clip-rule="evenodd" d="M69 140C77.8366 140 85 132.837 85 124C85 115.163 77.8366 108 69 108C60.1634 108 53 115.163 53 124C53 132.837 60.1634 140 69 140Z" fill="#91C8C3"/>
<path fill-rule="evenodd" clip-rule="evenodd" d="M119 176C127.837 176 135 168.837 135 160C135 151.163 127.837 144 119 144C110.163 144 103 151.163 103 160C103 168.837 110.163 176 119 176Z" fill="#FEFACA"/>
<path fill-rule="evenodd" clip-rule="evenodd" d="M119 140C127.837 140 135 132.837 135 124C135 115.163 127.837 108 119 108C110.163 108 103 115.163 103 124C103 132.837 110.163 140 119 140Z" fill="#91C8C3"/>
<path fill-rule="evenodd" clip-rule="evenodd" d="M170 176C178.837 176 186 168.837 186 160C186 151.163 178.837 144 170 144C161.163 144 154 151.163 154 160C154 168.837 161.163 176 170 176Z" fill="#FEFACA"/>
<path fill-rule="evenodd" clip-rule="evenodd" d="M170 140C178.837 140 186 132.837 186 124C186 115.163 178.837 108 170 108C161.163 108 154 115.163 154 124C154 132.837 161.163 140 170 140Z" fill="#91C8C3"/>
<path fill-rule="evenodd" clip-rule="evenodd" d="M218 176C226.837 176 234 168.837 234 160C234 151.163 226.837 144 218 144C209.163 144 202 151.163 202 160C202 168.837 209.163 176 218 176Z" fill="#FEFACA"/>
<path fill-rule="evenodd" clip-rule="evenodd" d="M218 140C226.837 140 234 132.837 234 124C234 115.163 226.837 108 218 108C209.163 108 202 115.163 202 124C202 132.837 209.163 140 218 140Z" fill="#91C8C3"/>
<path fill-rule="evenodd" clip-rule="evenodd" d="M266 140C274.837 140 282 132.837 282 124C282 115.163 274.837 108 266 108C257.163 108 250 115.163 250 124C250 132.837 257.163 140 266 140Z" fill="#91C8C3"/>
<path fill-rule="evenodd" clip-rule="evenodd" d="M311 140C319.837 140 327 132.837 327 124C327 115.163 319.837 108 311 108C302.163 108 295 115.163 295 124C295 132.837 302.163 140 311 140Z" fill="#91C8C3"/>
<path fill-rule="evenodd" clip-rule="evenodd" d="M69 105C77.8366 105 85 97.8366 85 89C85 80.1634 77.8366 73 69 73C60.1634 73 53 80.1634 53 89C53 97.8366 60.1634 105 69 105Z" fill="#A0A7D6"/>
<path fill-rule="evenodd" clip-rule="evenodd" d="M16 105C24.8366 105 32 97.8366 32 89C32 80.1634 24.8366 73 16 73C7.16344 73 0 80.1634 0 89C0 97.8366 7.16344 105 16 105Z" fill="#A0A7D6"/>
<path fill-rule="evenodd" clip-rule="evenodd" d="M311 70C319.837 70 327 62.8366 327 54C327 45.1634 319.837 38 311 38C302.163 38 295 45.1634 295 54C295 62.8366 302.163 70 311 70Z" fill="#A0A7D6"/>
<path fill-rule="evenodd" clip-rule="evenodd" d="M266 70C274.837 70 282 62.8366 282 54C282 45.1634 274.837 38 266 38C257.163 38 250 45.1634 250 54C250 62.8366 257.163 70 266 70Z" fill="#A0A7D6"/>
<path fill-rule="evenodd" clip-rule="evenodd" d="M220 70C228.837 70 236 62.8366 236 54C236 45.1634 228.837 38 220 38C211.163 38 204 45.1634 204 54C204 62.8366 211.163 70 220 70Z" fill="#A0A7D6"/>
<path fill-rule="evenodd" clip-rule="evenodd" d="M119 105C127.837 105 135 97.8366 135 89C135 80.1634 127.837 73 119 73C110.163 73 103 80.1634 103 89C103 97.8366 110.163 105 119 105Z" fill="#F8CFD3"/>
<path fill-rule="evenodd" clip-rule="evenodd" d="M170 105C178.837 105 186 97.8366 186 89C186 80.1634 178.837 73 170 73C161.163 73 154 80.1634 154 89C154 97.8366 161.163 105 170 105Z" fill="#F8CFD3"/>
<path fill-rule="evenodd" clip-rule="evenodd" d="M220 105C228.837 105 236 97.8366 236 89C236 80.1634 228.837 73 220 73C211.163 73 204 80.1634 204 89C204 97.8366 211.163 105 220 105Z" fill="#F8CFD3"/>
<path fill-rule="evenodd" clip-rule="evenodd" d="M266 105C274.837 105 282 97.8366 282 89C282 80.1634 274.837 73 266 73C257.163 73 250 80.1634 250 89C250 97.8366 257.163 105 266 105Z" fill="#F8CFD3"/>
<path fill-rule="evenodd" clip-rule="evenodd" d="M311 105C319.837 105 327 97.8366 327 89C327 80.1634 319.837 73 311 73C302.163 73 295 80.1634 295 89C295 97.8366 302.163 105 311 105Z" fill="#F8CFD3"/>
<path opacity="0.5" d="M6.70598 13.1987C8.63957 13.1987 9.83195 12.2266 9.83195 10.6904V10.6851C9.83195 9.47656 9.1176 8.82129 7.47942 8.48291L6.65764 8.31641C5.74455 8.12842 5.36858 7.82764 5.36858 7.32275V7.31738C5.36858 6.7373 5.90031 6.37207 6.70061 6.3667C7.51701 6.3667 8.05412 6.75342 8.14543 7.30664L8.15617 7.37109H9.68156L9.67619 7.30127C9.57414 6.00684 8.51067 5.05078 6.70061 5.05078C4.98186 5.05078 3.74651 6.00146 3.74651 7.44092V7.44629C3.74651 8.62256 4.43938 9.37451 6.0507 9.70215L6.86711 9.86865C7.82854 10.0674 8.20988 10.3521 8.20988 10.8623V10.8677C8.20988 11.4639 7.61369 11.8774 6.74895 11.8774C5.84123 11.8774 5.21281 11.4854 5.15373 10.9053L5.14836 10.8516H3.58537L3.59074 10.9375C3.68205 12.3125 4.85295 13.1987 6.70598 13.1987ZM14.6122 13.1987C16.6103 13.1987 17.8564 12.0439 17.8564 10.3252V5.24951H16.2343V10.1802C16.2343 11.1846 15.6542 11.8237 14.6122 11.8237C13.5702 11.8237 12.9848 11.1846 12.9848 10.1802V5.24951H11.3627V10.3252C11.3627 12.0493 12.6249 13.1987 14.6122 13.1987ZM19.7363 13H21.2885V8.04248H21.3744L24.9623 13H26.3051V5.24951H24.7529V10.1855H24.6669L21.0898 5.24951H19.7363V13Z" fill="#090909"/>
<path opacity="0.5" d="M56.2857 13H57.7306V7.72559H57.838L59.8253 13H60.8404L62.8277 7.72559H62.9352V13H64.38V5.24951H62.5216L60.3839 10.9214H60.2872L58.1441 5.24951H56.2857V13ZM69.6544 13.1987C71.9425 13.1987 73.3819 11.6304 73.3819 9.12744V9.1167C73.3819 6.61377 71.9371 5.05078 69.6544 5.05078C67.3717 5.05078 65.9215 6.6084 65.9215 9.1167V9.12744C65.9215 11.6304 67.3502 13.1987 69.6544 13.1987ZM69.6544 11.8237C68.3761 11.8237 67.5758 10.7656 67.5758 9.12744V9.1167C67.5758 7.47314 68.3922 6.42578 69.6544 6.42578C70.9112 6.42578 71.7276 7.47314 71.7276 9.1167V9.12744C71.7276 10.7656 70.9166 11.8237 69.6544 11.8237ZM74.9234 13H76.4757V8.04248H76.5616L80.1495 13H81.4923V5.24951H79.94V10.1855H79.8541L76.277 5.24951H74.9234V13Z" fill="#090909"/>
<path opacity="0.5" d="M110.105 13H111.727V6.58691H114.052V5.24951H107.779V6.58691H110.105V13ZM118.731 13.1987C120.729 13.1987 121.975 12.0439 121.975 10.3252V5.24951H120.353V10.1802C120.353 11.1846 119.773 11.8237 118.731 11.8237C117.689 11.8237 117.103 11.1846 117.103 10.1802V5.24951H115.481V10.3252C115.481 12.0493 116.743 13.1987 118.731 13.1987ZM123.855 13H128.989V11.6626H125.477V9.70215H128.791V8.45605H125.477V6.58691H128.989V5.24951H123.855V13Z" fill="#090909"/>
<path opacity="0.5" d="M157.587 13H159.117L160.568 7.7793H160.654L162.12 13H163.64L165.697 5.24951H164.021L162.823 10.7871H162.738L161.298 5.24951H159.928L158.516 10.7871H158.43L157.221 5.24951H155.535L157.587 13ZM167.11 13H172.244V11.6626H168.732V9.70215H172.046V8.45605H168.732V6.58691H172.244V5.24951H167.11V13ZM173.952 13H177.003C179.323 13 180.639 11.582 180.639 9.0791V9.06836C180.639 6.64062 179.307 5.24951 177.003 5.24951H173.952V13ZM175.574 11.6626V6.58691H176.745C178.153 6.58691 178.985 7.5 178.985 9.09521V9.10596C178.985 10.7603 178.179 11.6626 176.745 11.6626H175.574Z" fill="#090909"/>
<path opacity="0.5" d="M207.792 13H209.414V6.58691H211.74V5.24951H205.467V6.58691H207.792V13ZM213.174 13H214.796V9.73438H218.288V13H219.91V5.24951H218.288V8.39697H214.796V5.24951H213.174V13ZM225.034 13.1987C227.032 13.1987 228.278 12.0439 228.278 10.3252V5.24951H226.656V10.1802C226.656 11.1846 226.076 11.8237 225.034 11.8237C223.992 11.8237 223.406 11.1846 223.406 10.1802V5.24951H221.784V10.3252C221.784 12.0493 223.046 13.1987 225.034 13.1987Z" fill="#090909"/>
<path opacity="0.5" d="M257.616 13H259.238V9.94922H262.391V8.66553H259.238V6.58691H262.692V5.24951H257.616V13ZM264.191 13H265.813V10.1641H267.139L268.584 13H270.421L268.788 9.92236C269.674 9.57324 270.19 8.71924 270.19 7.72559V7.71484C270.19 6.18945 269.18 5.24951 267.419 5.24951H264.191V13ZM265.813 8.98242V6.51709H267.22C268.031 6.51709 268.53 7.00049 268.53 7.74707V7.75781C268.53 8.52051 268.052 8.98242 267.241 8.98242H265.813ZM271.828 13H273.45V5.24951H271.828V13Z" fill="#090909"/>
<path opacity="0.5" d="M304.186 13.1987C306.119 13.1987 307.312 12.2266 307.312 10.6904V10.6851C307.312 9.47656 306.597 8.82129 304.959 8.48291L304.137 8.31641C303.224 8.12842 302.848 7.82764 302.848 7.32275V7.31738C302.848 6.7373 303.38 6.37207 304.18 6.3667C304.997 6.3667 305.534 6.75342 305.625 7.30664L305.636 7.37109H307.161L307.156 7.30127C307.054 6.00684 305.99 5.05078 304.18 5.05078C302.462 5.05078 301.226 6.00146 301.226 7.44092V7.44629C301.226 8.62256 301.919 9.37451 303.531 9.70215L304.347 9.86865C305.308 10.0674 305.69 10.3521 305.69 10.8623V10.8677C305.69 11.4639 305.093 11.8774 304.229 11.8774C303.321 11.8774 302.693 11.4854 302.634 10.9053L302.628 10.8516H301.065L301.071 10.9375C301.162 12.3125 302.333 13.1987 304.186 13.1987ZM308.295 13H309.997L310.572 11.1201H313.306L313.881 13H315.589L312.892 5.24951H310.986L308.295 13ZM311.893 6.79639H311.99L312.935 9.90625H310.943L311.893 6.79639ZM317.947 13H319.569V6.58691H321.894V5.24951H315.621V6.58691H317.947V13Z" fill="#090909"/>
<path opacity="0.5" d="M8.45232 58.6484H15.2492V57.7402H9.85124V57.6523L12.6198 54.7812C14.4802 52.855 14.9928 51.9834 14.9928 50.8042V50.7896C14.9928 49.1123 13.6012 47.8599 11.7775 47.8599C9.82195 47.8599 8.4157 49.1709 8.39373 50.9946L8.40837 51.002H9.36785V50.9946C9.38249 49.6616 10.342 48.7388 11.7189 48.7388C13.0739 48.7388 13.9748 49.6689 13.9748 50.8848V50.8994C13.9748 51.8589 13.5573 52.4741 12.0925 54.0415L8.45232 57.9453V58.6484ZM20.9474 58.8169C23.1594 58.8169 24.7194 57.5571 24.7194 55.7847V55.77C24.7194 54.4443 23.7599 53.3604 22.3683 53.0601V53.0381C23.5622 52.7012 24.3385 51.8223 24.3385 50.6797V50.665C24.3385 49.0757 22.9177 47.9111 20.9474 47.9111C18.9845 47.9111 17.5636 49.0757 17.5636 50.665V50.6797C17.5636 51.8223 18.34 52.7012 19.5339 53.0381V53.0601C18.1423 53.3604 17.1828 54.4443 17.1828 55.77V55.7847C17.1828 57.5571 18.7428 58.8169 20.9474 58.8169ZM20.9474 52.6572C19.5412 52.6572 18.5597 51.8662 18.5597 50.7603V50.7456C18.5597 49.6177 19.5339 48.7827 20.9474 48.7827C22.3683 48.7827 23.3425 49.6177 23.3425 50.7456V50.7603C23.3425 51.8662 22.361 52.6572 20.9474 52.6572ZM20.9474 57.938C19.3288 57.938 18.2009 57.0078 18.2009 55.7261V55.7114C18.2009 54.4443 19.3288 53.5508 20.9474 53.5508C22.5734 53.5508 23.7013 54.4443 23.7013 55.7114V55.7261C23.7013 57.0078 22.5734 57.938 20.9474 57.938Z" fill="black"/>
<path opacity="0.5" d="M60.2648 58.6484H67.0617V57.7402H61.6637V57.6523L64.4323 54.7812C66.2927 52.855 66.8053 51.9834 66.8053 50.8042V50.7896C66.8053 49.1123 65.4137 47.8599 63.59 47.8599C61.6344 47.8599 60.2282 49.1709 60.2062 50.9946L60.2209 51.002H61.1803V50.9946C61.195 49.6616 62.1545 48.7388 63.5314 48.7388C64.8864 48.7388 65.7873 49.6689 65.7873 50.8848V50.8994C65.7873 51.8589 65.3698 52.4741 63.905 54.0415L60.2648 57.9453V58.6484ZM72.6208 47.8599C70.5407 47.8599 68.988 49.3979 68.988 51.478V51.4927C68.988 53.5068 70.4821 55.0156 72.467 55.0156C73.9758 55.0156 75.1037 54.1367 75.4772 53.0747H75.5798C75.5871 53.1772 75.5798 53.2871 75.5798 53.3896C75.5212 55.9019 74.6276 57.9673 72.5622 57.9673C71.3683 57.9673 70.4894 57.2935 70.1965 56.29L70.1745 56.2095H69.1711L69.1857 56.3047C69.508 57.8062 70.7897 58.8682 72.5549 58.8682C75.0451 58.8682 76.5392 56.7148 76.5392 53.082V53.0674C76.5392 49.354 74.6716 47.8599 72.6208 47.8599ZM72.6208 54.1367C71.1193 54.1367 69.9914 53.0015 69.9914 51.4707V51.4561C69.9914 49.9399 71.1633 48.7534 72.6354 48.7534C74.1589 48.7534 75.3014 49.9985 75.3014 51.5439V51.5513C75.3014 53.0015 74.1149 54.1367 72.6208 54.1367Z" fill="black"/>
<path opacity="0.5" d="M114.266 58.8169C116.346 58.8169 117.877 57.5205 117.877 55.77V55.7554C117.877 54.2539 116.822 53.2725 115.248 53.1479V53.1187C116.595 52.8477 117.496 51.9321 117.496 50.6284V50.6138C117.496 49.0391 116.171 47.9111 114.222 47.9111C112.303 47.9111 110.992 49.0537 110.839 50.6797L110.831 50.7529H111.798L111.805 50.6797C111.915 49.5591 112.86 48.79 114.222 48.79C115.614 48.79 116.493 49.5444 116.493 50.731V50.7456C116.493 51.9102 115.511 52.7451 114.105 52.7451H112.875V53.6021H114.142C115.826 53.6021 116.859 54.3931 116.859 55.7773V55.792C116.859 57.0444 115.79 57.938 114.266 57.938C112.728 57.938 111.717 57.1177 111.578 55.9751L111.571 55.9092H110.604L110.611 55.9897C110.78 57.6157 112.135 58.8169 114.266 58.8169ZM123.495 58.8682C125.817 58.8682 127.223 56.7515 127.223 53.375V53.353C127.223 49.9766 125.817 47.8599 123.495 47.8599C121.173 47.8599 119.781 49.9766 119.781 53.353V53.375C119.781 56.7441 121.173 58.8682 123.495 58.8682ZM123.495 57.9893C121.796 57.9893 120.785 56.2095 120.785 53.375V53.353C120.785 50.5186 121.796 48.7461 123.495 48.7461C125.201 48.7461 126.219 50.5112 126.219 53.353V53.375C126.219 56.2095 125.201 57.9893 123.495 57.9893Z" fill="black"/>
<path opacity="0.5" d="M166.337 58.8169C168.417 58.8169 169.948 57.5205 169.948 55.77V55.7554C169.948 54.2539 168.893 53.2725 167.318 53.1479V53.1187C168.666 52.8477 169.567 51.9321 169.567 50.6284V50.6138C169.567 49.0391 168.241 47.9111 166.293 47.9111C164.374 47.9111 163.063 49.0537 162.909 50.6797L162.902 50.7529H163.869L163.876 50.6797C163.986 49.5591 164.931 48.79 166.293 48.79C167.684 48.79 168.563 49.5444 168.563 50.731V50.7456C168.563 51.9102 167.582 52.7451 166.176 52.7451H164.945V53.6021H166.212C167.897 53.6021 168.93 54.3931 168.93 55.7773V55.792C168.93 57.0444 167.86 57.938 166.337 57.938C164.799 57.938 163.788 57.1177 163.649 55.9751L163.641 55.9092H162.675L162.682 55.9897C162.85 57.6157 164.205 58.8169 166.337 58.8169ZM174.657 58.6484H175.653V48.0796H174.664L171.837 50.0352V51.0972L174.569 49.2002H174.657V58.6484Z" fill="black"/>
<path d="M218.885 58.6484H219.882V48.0796H218.893L216.066 50.0352V51.0972L218.798 49.2002H218.885V58.6484Z" fill="black"/>
<path d="M262.334 58.6484H269.131V57.7402H263.733V57.6523L266.502 54.7812C268.362 52.855 268.875 51.9834 268.875 50.8042V50.7896C268.875 49.1123 267.483 47.8599 265.659 47.8599C263.704 47.8599 262.298 49.1709 262.276 50.9946L262.29 51.002H263.25V50.9946C263.264 49.6616 264.224 48.7388 265.601 48.7388C266.956 48.7388 267.857 49.6689 267.857 50.8848V50.8994C267.857 51.8589 267.439 52.4741 265.974 54.0415L262.334 57.9453V58.6484Z" fill="black"/>
<path d="M311.578 58.8169C313.658 58.8169 315.189 57.5205 315.189 55.77V55.7554C315.189 54.2539 314.134 53.2725 312.56 53.1479V53.1187C313.907 52.8477 314.808 51.9321 314.808 50.6284V50.6138C314.808 49.0391 313.482 47.9111 311.534 47.9111C309.615 47.9111 308.304 49.0537 308.15 50.6797L308.143 50.7529H309.11L309.117 50.6797C309.227 49.5591 310.172 48.79 311.534 48.79C312.926 48.79 313.805 49.5444 313.805 50.731V50.7456C313.805 51.9102 312.823 52.7451 311.417 52.7451H310.187V53.6021H311.454C313.138 53.6021 314.171 54.3931 314.171 55.7773V55.792C314.171 57.0444 313.102 57.938 311.578 57.938C310.04 57.938 309.029 57.1177 308.89 55.9751L308.883 55.9092H307.916L307.923 55.9897C308.092 57.6157 309.447 58.8169 311.578 58.8169Z" fill="black"/>
<path d="M17.8702 93.9863H18.8443V91.5986H20.4263V90.6978H18.8443V83.4028H17.4087C15.1016 86.6108 13.8345 88.5884 12.5601 90.6831V91.5986H17.8702V93.9863ZM13.6075 90.7051V90.6392C14.6695 88.8887 15.7242 87.248 17.8042 84.3623H17.8702V90.7051H13.6075Z" fill="black"/>
<path d="M68.3057 94.2061C70.4224 94.2061 71.9532 92.7192 71.9532 90.6245V90.6099C71.9532 88.5811 70.4956 87.0942 68.5181 87.0942C67.4854 87.0942 66.5625 87.541 66.0572 88.3101H65.9619L66.3867 84.3184H71.3306V83.4175H65.5884L65.0025 89.3721H65.8887C66.0059 89.167 66.1451 88.9839 66.2989 88.8301C66.8116 88.2661 67.5367 87.9658 68.3643 87.9658C69.8658 87.9658 70.9717 89.0938 70.9717 90.6318V90.6465C70.9717 92.1992 69.8658 93.3125 68.3203 93.3125C66.9727 93.3125 65.9326 92.4409 65.7862 91.3496L65.7788 91.2983H64.8194L64.8267 91.3716C64.9878 92.9756 66.4014 94.2061 68.3057 94.2061Z" fill="black"/>
<path d="M119.555 94.2061C121.643 94.2061 123.188 92.668 123.188 90.5879V90.5732C123.188 88.5591 121.701 87.0503 119.709 87.0503C118.208 87.0503 117.072 87.9292 116.699 88.9912H116.596C116.596 88.8887 116.596 88.7788 116.596 88.6763C116.655 86.1641 117.556 84.0986 119.614 84.0986C120.815 84.0986 121.687 84.7725 121.98 85.7759L122.001 85.8564H123.012L122.99 85.7612C122.668 84.2598 121.386 83.1978 119.628 83.1978C117.138 83.1978 115.637 85.3511 115.637 88.9839V88.9985C115.637 92.7119 117.512 94.2061 119.555 94.2061ZM116.875 90.522V90.5146C116.875 89.0645 118.068 87.9292 119.555 87.9292C121.064 87.9292 122.185 89.0645 122.185 90.5952V90.6099C122.185 92.126 121.02 93.3125 119.541 93.3125C118.017 93.3125 116.875 92.0674 116.875 90.522Z" fill="black"/>
<path d="M167.134 93.9863H168.203L173.037 84.355V83.4175H166.16V84.3184H172.019V84.3989L167.134 93.9863Z" fill="black"/>
<path d="M218.466 94.1548C220.678 94.1548 222.238 92.895 222.238 91.1226V91.1079C222.238 89.7822 221.278 88.6982 219.887 88.3979V88.376C221.081 88.0391 221.857 87.1602 221.857 86.0176V86.0029C221.857 84.4136 220.436 83.249 218.466 83.249C216.503 83.249 215.082 84.4136 215.082 86.0029V86.0176C215.082 87.1602 215.858 88.0391 217.052 88.376V88.3979C215.661 88.6982 214.701 89.7822 214.701 91.1079V91.1226C214.701 92.895 216.261 94.1548 218.466 94.1548ZM218.466 87.9951C217.06 87.9951 216.078 87.2041 216.078 86.0981V86.0835C216.078 84.9556 217.052 84.1206 218.466 84.1206C219.887 84.1206 220.861 84.9556 220.861 86.0835V86.0981C220.861 87.2041 219.879 87.9951 218.466 87.9951ZM218.466 93.2759C216.847 93.2759 215.719 92.3457 215.719 91.064V91.0493C215.719 89.7822 216.847 88.8887 218.466 88.8887C220.092 88.8887 221.22 89.7822 221.22 91.0493V91.064C221.22 92.3457 220.092 93.2759 218.466 93.2759Z" fill="black"/>
<path d="M265.498 83.1978C263.418 83.1978 261.865 84.7358 261.865 86.8159V86.8306C261.865 88.8447 263.359 90.3535 265.344 90.3535C266.853 90.3535 267.981 89.4746 268.355 88.4126H268.457C268.464 88.5151 268.457 88.625 268.457 88.7275C268.398 91.2397 267.505 93.3052 265.439 93.3052C264.246 93.3052 263.367 92.6313 263.074 91.6279L263.052 91.5474H262.048L262.063 91.6426C262.385 93.144 263.667 94.2061 265.432 94.2061C267.922 94.2061 269.417 92.0527 269.417 88.4199V88.4053C269.417 84.6919 267.549 83.1978 265.498 83.1978ZM265.498 89.4746C263.997 89.4746 262.869 88.3394 262.869 86.8086V86.7939C262.869 85.2778 264.041 84.0913 265.513 84.0913C267.036 84.0913 268.179 85.3364 268.179 86.8818V86.8892C268.179 88.3394 266.992 89.4746 265.498 89.4746Z" fill="black"/>
<path d="M307.254 93.9863H308.25V83.4175H307.262L304.434 85.373V86.4351L307.166 84.5381H307.254V93.9863ZM314.857 94.2061C317.179 94.2061 318.585 92.0894 318.585 88.7129V88.6909C318.585 85.3145 317.179 83.1978 314.857 83.1978C312.535 83.1978 311.143 85.3145 311.143 88.6909V88.7129C311.143 92.082 312.535 94.2061 314.857 94.2061ZM314.857 93.3271C313.158 93.3271 312.147 91.5474 312.147 88.7129V88.6909C312.147 85.8564 313.158 84.084 314.857 84.084C316.563 84.084 317.581 85.8491 317.581 88.6909V88.7129C317.581 91.5474 316.563 93.3271 314.857 93.3271Z" fill="black"/>
<path d="M13.5777 129.325H14.5738V118.756H13.5851L10.7579 120.711V121.773L13.4898 119.876H13.5777V129.325ZM20.2428 129.325H21.2389V118.756H20.2501L17.4229 120.711V121.773L20.1549 119.876H20.2428V129.325Z" fill="black"/>
<path d="M64.2915 129.324H65.2876V118.755H64.2988L61.4717 120.711V121.773L64.2036 119.876H64.2915V129.324ZM68.2685 129.324H75.0654V128.416H69.6675V128.328L72.436 125.457C74.2964 123.531 74.8091 122.659 74.8091 121.48V121.465C74.8091 119.788 73.4175 118.536 71.5937 118.536C69.6382 118.536 68.2319 119.847 68.21 121.67L68.2246 121.678H69.1841V121.67C69.1987 120.337 70.1582 119.415 71.5352 119.415C72.8901 119.415 73.791 120.345 73.791 121.561V121.575C73.791 122.535 73.3735 123.15 71.9087 124.717L68.2685 128.621V129.324Z" fill="black"/>
<path d="M114.726 129.324H115.722V118.755H114.733L111.906 120.711V121.773L114.638 119.876H114.726V129.324ZM122.255 129.493C124.335 129.493 125.866 128.196 125.866 126.446V126.431C125.866 124.93 124.811 123.948 123.237 123.824V123.794C124.584 123.523 125.485 122.608 125.485 121.304V121.29C125.485 119.715 124.16 118.587 122.211 118.587C120.292 118.587 118.981 119.729 118.828 121.355L118.82 121.429H119.787L119.794 121.355C119.904 120.235 120.849 119.466 122.211 119.466C123.603 119.466 124.482 120.22 124.482 121.407V121.421C124.482 122.586 123.5 123.421 122.094 123.421H120.864V124.278H122.131C123.815 124.278 124.848 125.069 124.848 126.453V126.468C124.848 127.72 123.779 128.614 122.255 128.614C120.717 128.614 119.706 127.793 119.567 126.651L119.56 126.585H118.593L118.6 126.666C118.769 128.292 120.124 129.493 122.255 129.493Z" fill="black"/>
<path d="M165.295 129.324H166.291V118.755H165.302L162.475 120.711V121.773L165.207 119.876H165.295V129.324ZM174.274 129.324H175.248V126.937H176.83V126.036H175.248V118.741H173.813C171.506 121.949 170.239 123.926 168.964 126.021V126.937H174.274V129.324ZM170.012 126.043V125.977C171.074 124.227 172.128 122.586 174.208 119.7H174.274V126.043H170.012Z" fill="black"/>
<path d="M214.305 129.324H215.301V118.755H214.312L211.485 120.711V121.773L214.217 119.876H214.305V129.324ZM221.776 129.544C223.892 129.544 225.423 128.057 225.423 125.962V125.948C225.423 123.919 223.966 122.432 221.988 122.432C220.955 122.432 220.033 122.879 219.527 123.648H219.432L219.857 119.656H224.801V118.755H219.058L218.473 124.71H219.359C219.476 124.505 219.615 124.322 219.769 124.168C220.282 123.604 221.007 123.304 221.834 123.304C223.336 123.304 224.442 124.432 224.442 125.97V125.984C224.442 127.537 223.336 128.65 221.79 128.65C220.443 128.65 219.403 127.779 219.256 126.688L219.249 126.636H218.289L218.297 126.709C218.458 128.313 219.871 129.544 221.776 129.544Z" fill="black"/>
<path d="M261.359 129.324H262.355V118.755H261.367L258.539 120.711V121.773L261.271 119.876H261.359V129.324ZM269.145 129.544C271.232 129.544 272.778 128.006 272.778 125.926V125.911C272.778 123.897 271.291 122.388 269.299 122.388C267.797 122.388 266.662 123.267 266.288 124.329H266.186C266.186 124.227 266.186 124.117 266.186 124.014C266.245 121.502 267.145 119.437 269.204 119.437C270.405 119.437 271.276 120.11 271.569 121.114L271.591 121.194H272.602L272.58 121.099C272.258 119.598 270.976 118.536 269.218 118.536C266.728 118.536 265.226 120.689 265.226 124.322V124.336C265.226 128.05 267.101 129.544 269.145 129.544ZM266.464 125.86V125.853C266.464 124.402 267.658 123.267 269.145 123.267C270.654 123.267 271.774 124.402 271.774 125.933V125.948C271.774 127.464 270.61 128.65 269.13 128.65C267.607 128.65 266.464 127.405 266.464 125.86Z" fill="black"/>
<path d="M307.701 129.324H308.697V118.755H307.708L304.881 120.711V121.773L307.613 119.876H307.701V129.324ZM312.374 129.324H313.443L318.277 119.693V118.755H311.4V119.656H317.259V119.737L312.374 129.324Z" fill="black"/>
<path d="M12.1713 164.662H13.1674V154.093H12.1786L9.35146 156.049V157.111L12.0834 155.214H12.1713V164.662ZM19.8251 164.831C22.037 164.831 23.5971 163.571 23.5971 161.798V161.784C23.5971 160.458 22.6376 159.374 21.246 159.074V159.052C22.4398 158.715 23.2162 157.836 23.2162 156.693V156.679C23.2162 155.089 21.7953 153.925 19.8251 153.925C17.8622 153.925 16.4413 155.089 16.4413 156.679V156.693C16.4413 157.836 17.2177 158.715 18.4115 159.052V159.074C17.0199 159.374 16.0604 160.458 16.0604 161.784V161.798C16.0604 163.571 17.6205 164.831 19.8251 164.831ZM19.8251 158.671C18.4188 158.671 17.4374 157.88 17.4374 156.774V156.759C17.4374 155.631 18.4115 154.796 19.8251 154.796C21.246 154.796 22.2201 155.631 22.2201 156.759V156.774C22.2201 157.88 21.2387 158.671 19.8251 158.671ZM19.8251 163.952C18.2064 163.952 17.0785 163.021 17.0785 161.74V161.725C17.0785 160.458 18.2064 159.564 19.8251 159.564C21.4511 159.564 22.579 160.458 22.579 161.725V161.74C22.579 163.021 21.4511 163.952 19.8251 163.952Z" fill="black"/>
<path d="M64.0057 164.662H65.0018V154.093H64.0131L61.1859 156.048V157.11L63.9179 155.213H64.0057V164.662ZM71.4764 153.873C69.3964 153.873 67.8436 155.411 67.8436 157.491V157.506C67.8436 159.52 69.3378 161.029 71.3226 161.029C72.8314 161.029 73.9594 160.15 74.3329 159.088H74.4354C74.4428 159.19 74.4354 159.3 74.4354 159.403C74.3768 161.915 73.4833 163.98 71.4179 163.98C70.224 163.98 69.3451 163.307 69.0521 162.303L69.0302 162.223H68.0267L68.0414 162.318C68.3637 163.819 69.6454 164.881 71.4105 164.881C73.9008 164.881 75.3949 162.728 75.3949 159.095V159.081C75.3949 155.367 73.5272 153.873 71.4764 153.873ZM71.4764 160.15C69.975 160.15 68.8471 159.015 68.8471 157.484V157.469C68.8471 155.953 70.0189 154.767 71.4911 154.767C73.0145 154.767 74.1571 156.012 74.1571 157.557V157.564C74.1571 159.015 72.9706 160.15 71.4764 160.15Z" fill="black"/>
<path d="M110.903 164.662H117.699V163.753H112.301V163.666L115.07 160.794C116.93 158.868 117.443 157.997 117.443 156.817V156.803C117.443 155.125 116.051 153.873 114.228 153.873C112.272 153.873 110.866 155.184 110.844 157.008L110.859 157.015H111.818V157.008C111.833 155.675 112.792 154.752 114.169 154.752C115.524 154.752 116.425 155.682 116.425 156.898V156.913C116.425 157.872 116.007 158.487 114.543 160.055L110.903 163.958V164.662ZM123.346 164.881C125.668 164.881 127.074 162.765 127.074 159.388V159.366C127.074 155.99 125.668 153.873 123.346 153.873C121.025 153.873 119.633 155.99 119.633 159.366V159.388C119.633 162.757 121.025 164.881 123.346 164.881ZM123.346 164.002C121.647 164.002 120.636 162.223 120.636 159.388V159.366C120.636 156.532 121.647 154.759 123.346 154.759C125.053 154.759 126.071 156.524 126.071 159.366V159.388C126.071 162.223 125.053 164.002 123.346 164.002Z" fill="black"/>
<path d="M162.966 164.662H169.763V163.753H164.365V163.666L167.133 160.794C168.994 158.868 169.506 157.997 169.506 156.817V156.803C169.506 155.125 168.115 153.873 166.291 153.873C164.335 153.873 162.929 155.184 162.907 157.008L162.922 157.015H163.881V157.008C163.896 155.675 164.855 154.752 166.232 154.752C167.587 154.752 168.488 155.682 168.488 156.898V156.913C168.488 157.872 168.071 158.487 166.606 160.055L162.966 163.958V164.662ZM174.516 164.662H175.512V154.093H174.523L171.696 156.048V157.11L174.428 155.213H174.516V164.662Z" fill="black"/>
<path d="M210.665 164.662H217.462V163.753H212.064V163.666L214.832 160.794C216.693 158.868 217.205 157.997 217.205 156.817V156.803C217.205 155.125 215.814 153.873 213.99 153.873C212.034 153.873 210.628 155.184 210.606 157.008L210.621 157.015H211.58V157.008C211.595 155.675 212.554 154.752 213.931 154.752C215.286 154.752 216.187 155.682 216.187 156.898V156.913C216.187 157.872 215.77 158.487 214.305 160.055L210.665 163.958V164.662ZM219.615 164.662H226.412V163.753H221.014V163.666L223.783 160.794C225.643 158.868 226.156 157.997 226.156 156.817V156.803C226.156 155.125 224.764 153.873 222.94 153.873C220.985 153.873 219.578 155.184 219.556 157.008L219.571 157.015H220.531V157.008C220.545 155.675 221.505 154.752 222.882 154.752C224.237 154.752 225.137 155.682 225.137 156.898V156.913C225.137 157.872 224.72 158.487 223.255 160.055L219.615 163.958V164.662Z" fill="black"/>
<path d="M257.719 164.662H264.516V163.753H259.118V163.666L261.886 160.794C263.747 158.868 264.259 157.997 264.259 156.817V156.803C264.259 155.125 262.868 153.873 261.044 153.873C259.089 153.873 257.682 155.184 257.66 157.008L257.675 157.015H258.634V157.008C258.649 155.675 259.609 154.752 260.986 154.752C262.34 154.752 263.241 155.682 263.241 156.898V156.913C263.241 157.872 262.824 158.487 261.359 160.055L257.719 163.958V164.662ZM270.177 164.83C272.257 164.83 273.788 163.534 273.788 161.783V161.769C273.788 160.267 272.734 159.286 271.159 159.161V159.132C272.507 158.861 273.407 157.945 273.407 156.642V156.627C273.407 155.052 272.082 153.924 270.133 153.924C268.215 153.924 266.903 155.067 266.75 156.693L266.742 156.766H267.709L267.716 156.693C267.826 155.572 268.771 154.803 270.133 154.803C271.525 154.803 272.404 155.558 272.404 156.744V156.759C272.404 157.923 271.423 158.758 270.016 158.758H268.786V159.615H270.053C271.737 159.615 272.77 160.406 272.77 161.791V161.805C272.77 163.058 271.701 163.951 270.177 163.951C268.639 163.951 267.629 163.131 267.489 161.988L267.482 161.922H266.515L266.523 162.003C266.691 163.629 268.046 164.83 270.177 164.83Z" fill="black"/>
<path d="M303.57 164.662H310.367V163.753H304.969V163.666L307.737 160.794C309.598 158.868 310.111 157.997 310.111 156.817V156.803C310.111 155.125 308.719 153.873 306.895 153.873C304.94 153.873 303.533 155.184 303.511 157.008L303.526 157.015H304.486V157.008C304.5 155.675 305.46 154.752 306.837 154.752C308.192 154.752 309.092 155.682 309.092 156.898V156.913C309.092 157.872 308.675 158.487 307.21 160.055L303.57 163.958V164.662ZM317.215 164.662H318.189V162.274H319.771V161.373H318.189V154.078H316.754C314.446 157.286 313.179 159.264 311.905 161.358V162.274H317.215V164.662ZM312.952 161.38V161.314C314.014 159.564 315.069 157.923 317.149 155.038H317.215V161.38H312.952Z" fill="black"/>
<path d="M8.56765 200H15.3645V199.092H9.96658V199.004L12.7351 196.133C14.5955 194.207 15.1082 193.335 15.1082 192.156V192.141C15.1082 190.464 13.7166 189.211 11.8928 189.211C9.93728 189.211 8.53103 190.522 8.50906 192.346L8.52371 192.354H9.48318V192.346C9.49783 191.013 10.4573 190.09 11.8343 190.09C13.1892 190.09 14.0901 191.021 14.0901 192.236V192.251C14.0901 193.21 13.6726 193.826 12.2078 195.393L8.56765 199.297V200ZM20.9676 200.22C23.0843 200.22 24.615 198.733 24.615 196.638V196.624C24.615 194.595 23.1575 193.108 21.18 193.108C20.1472 193.108 19.2244 193.555 18.719 194.324H18.6238L19.0486 190.332H23.9925V189.431H18.2503L17.6643 195.386H18.5506C18.6678 195.181 18.8069 194.998 18.9607 194.844C19.4734 194.28 20.1985 193.979 21.0261 193.979C22.5276 193.979 23.6336 195.107 23.6336 196.646V196.66C23.6336 198.213 22.5276 199.326 20.9822 199.326C19.6345 199.326 18.5945 198.455 18.448 197.363L18.4407 197.312H17.4812L17.4886 197.385C17.6497 198.989 19.0633 200.22 20.9676 200.22Z" fill="black"/>
<path d="M60.2848 200H67.0817V199.091H61.6838V199.003L64.4523 196.132C66.3127 194.206 66.8254 193.334 66.8254 192.155V192.141C66.8254 190.463 65.4338 189.211 63.61 189.211C61.6545 189.211 60.2482 190.522 60.2262 192.346L60.2409 192.353H61.2004V192.346C61.215 191.013 62.1745 190.09 63.5514 190.09C64.9064 190.09 65.8073 191.02 65.8073 192.236V192.25C65.8073 193.21 65.3898 193.825 63.925 195.393L60.2848 199.296V200ZM72.9118 200.219C74.9992 200.219 76.5446 198.681 76.5446 196.601V196.586C76.5446 194.572 75.0578 193.063 73.0656 193.063C71.5641 193.063 70.4289 193.942 70.0553 195.004H69.9528C69.9528 194.902 69.9528 194.792 69.9528 194.689C70.0114 192.177 70.9123 190.112 72.9704 190.112C74.1716 190.112 75.0431 190.786 75.3361 191.789L75.3581 191.87H76.3688L76.3468 191.774C76.0246 190.273 74.7428 189.211 72.985 189.211C70.4948 189.211 68.9933 191.364 68.9933 194.997V195.012C68.9933 198.725 70.8683 200.219 72.9118 200.219ZM70.2311 196.535V196.528C70.2311 195.078 71.425 193.942 72.9118 193.942C74.4206 193.942 75.5412 195.078 75.5412 196.608V196.623C75.5412 198.139 74.3766 199.326 72.8971 199.326C71.3737 199.326 70.2311 198.081 70.2311 196.535Z" fill="black"/>
<path d="M111.408 200H118.205V199.091H112.807V199.003L115.575 196.132C117.436 194.206 117.949 193.334 117.949 192.155V192.141C117.949 190.463 116.557 189.211 114.733 189.211C112.778 189.211 111.371 190.522 111.349 192.346L111.364 192.353H112.324V192.346C112.338 191.013 113.298 190.09 114.675 190.09C116.03 190.09 116.93 191.02 116.93 192.236V192.25C116.93 193.21 116.513 193.825 115.048 195.393L111.408 199.296V200ZM120.805 200H121.874L126.708 190.368V189.431H119.831V190.332H125.69V190.412L120.805 200Z" fill="black"/>
<path d="M161.581 200H168.378V199.091H162.98V199.003L165.749 196.132C167.609 194.206 168.122 193.334 168.122 192.155V192.141C168.122 190.463 166.73 189.211 164.906 189.211C162.951 189.211 161.545 190.522 161.523 192.346L161.537 192.353H162.497V192.346C162.511 191.013 163.471 190.09 164.848 190.09C166.203 190.09 167.104 191.02 167.104 192.236V192.25C167.104 193.21 166.686 193.825 165.221 195.393L161.581 199.296V200ZM174.076 200.168C176.288 200.168 177.848 198.908 177.848 197.136V197.121C177.848 195.795 176.889 194.711 175.497 194.411V194.389C176.691 194.052 177.467 193.173 177.467 192.031V192.016C177.467 190.427 176.047 189.262 174.076 189.262C172.113 189.262 170.693 190.427 170.693 192.016V192.031C170.693 193.173 171.469 194.052 172.663 194.389V194.411C171.271 194.711 170.312 195.795 170.312 197.121V197.136C170.312 198.908 171.872 200.168 174.076 200.168ZM174.076 194.008C172.67 194.008 171.689 193.217 171.689 192.111V192.097C171.689 190.969 172.663 190.134 174.076 190.134C175.497 190.134 176.471 190.969 176.471 192.097V192.111C176.471 193.217 175.49 194.008 174.076 194.008ZM174.076 199.289C172.458 199.289 171.33 198.359 171.33 197.077V197.062C171.33 195.795 172.458 194.902 174.076 194.902C175.702 194.902 176.83 195.795 176.83 197.062V197.077C176.83 198.359 175.702 199.289 174.076 199.289Z" fill="black"/>
<path d="M210.423 200H217.22V199.091H211.822V199.003L214.59 196.132C216.451 194.206 216.964 193.334 216.964 192.155V192.141C216.964 190.463 215.572 189.211 213.748 189.211C211.793 189.211 210.386 190.522 210.364 192.346L210.379 192.353H211.339V192.346C211.353 191.013 212.313 190.09 213.69 190.09C215.045 190.09 215.945 191.02 215.945 192.236V192.25C215.945 193.21 215.528 193.825 214.063 195.393L210.423 199.296V200ZM222.779 189.211C220.699 189.211 219.146 190.749 219.146 192.829V192.844C219.146 194.858 220.64 196.367 222.625 196.367C224.134 196.367 225.262 195.488 225.635 194.426H225.738C225.745 194.528 225.738 194.638 225.738 194.741C225.679 197.253 224.786 199.318 222.72 199.318C221.527 199.318 220.648 198.645 220.355 197.641L220.333 197.561H219.329L219.344 197.656C219.666 199.157 220.948 200.219 222.713 200.219C225.203 200.219 226.697 198.066 226.697 194.433V194.418C226.697 190.705 224.83 189.211 222.779 189.211ZM222.779 195.488C221.278 195.488 220.15 194.353 220.15 192.822V192.807C220.15 191.291 221.321 190.104 222.794 190.104C224.317 190.104 225.46 191.35 225.46 192.895V192.902C225.46 194.353 224.273 195.488 222.779 195.488Z" fill="black"/>
<path d="M261.022 200.168C263.102 200.168 264.633 198.872 264.633 197.121V197.106C264.633 195.605 263.578 194.624 262.004 194.499V194.47C263.351 194.199 264.252 193.283 264.252 191.979V191.965C264.252 190.39 262.926 189.262 260.978 189.262C259.059 189.262 257.748 190.405 257.594 192.031L257.587 192.104H258.554L258.561 192.031C258.671 190.91 259.616 190.141 260.978 190.141C262.37 190.141 263.249 190.896 263.249 192.082V192.097C263.249 193.261 262.267 194.096 260.861 194.096H259.631V194.953H260.898C262.582 194.953 263.615 195.744 263.615 197.128V197.143C263.615 198.396 262.546 199.289 261.022 199.289C259.484 199.289 258.473 198.469 258.334 197.326L258.327 197.26H257.36L257.367 197.341C257.536 198.967 258.891 200.168 261.022 200.168ZM270.251 200.219C272.572 200.219 273.979 198.103 273.979 194.726V194.704C273.979 191.328 272.572 189.211 270.251 189.211C267.929 189.211 266.537 191.328 266.537 194.704V194.726C266.537 198.095 267.929 200.219 270.251 200.219ZM270.251 199.34C268.551 199.34 267.541 197.561 267.541 194.726V194.704C267.541 191.87 268.551 190.097 270.251 190.097C271.957 190.097 272.975 191.862 272.975 194.704V194.726C272.975 197.561 271.957 199.34 270.251 199.34Z" fill="black"/>
<path d="M308.243 200.168C310.323 200.168 311.854 198.872 311.854 197.121V197.106C311.854 195.605 310.799 194.624 309.225 194.499V194.47C310.572 194.199 311.473 193.283 311.473 191.979V191.965C311.473 190.39 310.147 189.262 308.199 189.262C306.28 189.262 304.969 190.405 304.815 192.031L304.808 192.104H305.775L305.782 192.031C305.892 190.91 306.837 190.141 308.199 190.141C309.591 190.141 310.47 190.896 310.47 192.082V192.097C310.47 193.261 309.488 194.096 308.082 194.096H306.851V194.953H308.119C309.803 194.953 310.836 195.744 310.836 197.128V197.143C310.836 198.396 309.766 199.289 308.243 199.289C306.705 199.289 305.694 198.469 305.555 197.326L305.548 197.26H304.581L304.588 197.341C304.757 198.967 306.112 200.168 308.243 200.168ZM316.563 200H317.559V189.431H316.571L313.744 191.386V192.448L316.475 190.551H316.563V200Z" fill="black"/>
<path fill-rule="evenodd" clip-rule="evenodd" d="M12 268C18.6274 268 24 262.627 24 256C24 249.373 18.6274 244 12 244C5.37258 244 0 249.373 0 256C0 262.627 5.37258 268 12 268Z" fill="#F8CFD3"/>
<path d="M33.6172 264V251.317H37.9678C41.7295 251.317 43.9531 253.664 43.9531 257.646V257.663C43.9531 261.653 41.7383 264 37.9678 264H33.6172ZM35.1992 262.576H37.8623C40.6924 262.576 42.3359 260.766 42.3359 257.681V257.663C42.3359 254.569 40.6748 252.741 37.8623 252.741H35.1992V262.576ZM46.502 264V254.525H48.0312V255.932H48.1719C48.5322 254.938 49.4199 254.358 50.7031 254.358C50.9932 254.358 51.3184 254.394 51.4678 254.42V255.905C51.1514 255.853 50.8613 255.817 50.5273 255.817C49.0684 255.817 48.0312 256.74 48.0312 258.129V264H46.502ZM56.9609 264.167C54.2539 264.167 52.6191 262.269 52.6191 259.298V259.289C52.6191 256.362 54.2891 254.358 56.8643 254.358C59.4395 254.358 61.0039 256.274 61.0039 259.104V259.702H54.1836C54.2275 261.662 55.3086 262.805 56.9961 262.805C58.2793 262.805 59.0703 262.198 59.3252 261.627L59.3604 261.548H60.8896L60.8721 261.618C60.5469 262.901 59.1934 264.167 56.9609 264.167ZM56.8555 255.721C55.4492 255.721 54.377 256.679 54.21 258.48H59.4482C59.29 256.608 58.2529 255.721 56.8555 255.721ZM65.9785 264.167C64.1768 264.167 62.8145 263.077 62.8145 261.354V261.337C62.8145 259.649 64.0625 258.674 66.2686 258.542L68.9844 258.375V257.514C68.9844 256.345 68.2725 255.712 66.8574 255.712C65.7236 255.712 64.9766 256.134 64.7305 256.872L64.7217 256.898H63.1924L63.2012 256.846C63.4473 255.36 64.8887 254.358 66.9102 254.358C69.2217 254.358 70.5137 255.545 70.5137 257.514V264H68.9844V262.603H68.8438C68.2461 263.613 67.2529 264.167 65.9785 264.167ZM64.3789 261.319C64.3789 262.277 65.1963 262.84 66.2949 262.84C67.8506 262.84 68.9844 261.82 68.9844 260.467V259.605L66.4531 259.764C65.0117 259.852 64.3789 260.361 64.3789 261.302V261.319ZM73.3086 264V254.525H74.8379V255.967H74.9785C75.4004 254.947 76.2969 254.358 77.5361 254.358C78.8193 254.358 79.7158 255.035 80.1553 256.02H80.2959C80.8057 255.018 81.8867 254.358 83.1963 254.358C85.1299 254.358 86.2109 255.466 86.2109 257.452V264H84.6816V257.804C84.6816 256.406 84.04 255.712 82.7041 255.712C81.3857 255.712 80.5156 256.705 80.5156 257.909V264H78.9863V257.566C78.9863 256.441 78.2129 255.712 77.0176 255.712C75.7783 255.712 74.8379 256.793 74.8379 258.129V264H73.3086ZM94.2266 264V251.317H99.0078C101.39 251.317 103.077 252.961 103.077 255.369V255.387C103.077 257.795 101.39 259.474 99.0078 259.474H95.8086V264H94.2266ZM98.6035 252.724H95.8086V258.067H98.6035C100.414 258.067 101.46 257.074 101.46 255.404V255.387C101.46 253.717 100.414 252.724 98.6035 252.724ZM105.564 264V250.764H107.094V255.949H107.234C107.709 254.947 108.597 254.358 109.994 254.358C112.121 254.358 113.308 255.615 113.308 257.865V264H111.778V258.234C111.778 256.529 111.075 255.712 109.563 255.712C108.052 255.712 107.094 256.731 107.094 258.393V264H105.564ZM118.678 264.167C116.876 264.167 115.514 263.077 115.514 261.354V261.337C115.514 259.649 116.762 258.674 118.968 258.542L121.684 258.375V257.514C121.684 256.345 120.972 255.712 119.557 255.712C118.423 255.712 117.676 256.134 117.43 256.872L117.421 256.898H115.892L115.9 256.846C116.146 255.36 117.588 254.358 119.609 254.358C121.921 254.358 123.213 255.545 123.213 257.514V264H121.684V262.603H121.543C120.945 263.613 119.952 264.167 118.678 264.167ZM117.078 261.319C117.078 262.277 117.896 262.84 118.994 262.84C120.55 262.84 121.684 261.82 121.684 260.467V259.605L119.152 259.764C117.711 259.852 117.078 260.361 117.078 261.302V261.319ZM129.26 264.167C127.15 264.167 125.7 263.147 125.524 261.583H127.089C127.344 262.374 128.1 262.893 129.312 262.893C130.587 262.893 131.492 262.286 131.492 261.425V261.407C131.492 260.766 131.009 260.317 129.84 260.036L128.372 259.685C126.597 259.263 125.797 258.489 125.797 257.127V257.118C125.797 255.545 127.309 254.358 129.321 254.358C131.308 254.358 132.688 255.352 132.898 256.898H131.396C131.193 256.151 130.455 255.633 129.312 255.633C128.188 255.633 127.361 256.213 127.361 257.048V257.065C127.361 257.707 127.836 258.111 128.952 258.384L130.411 258.735C132.195 259.166 133.057 259.939 133.057 261.293V261.311C133.057 262.998 131.413 264.167 129.26 264.167ZM139.297 264.167C136.59 264.167 134.955 262.269 134.955 259.298V259.289C134.955 256.362 136.625 254.358 139.2 254.358C141.775 254.358 143.34 256.274 143.34 259.104V259.702H136.52C136.563 261.662 137.645 262.805 139.332 262.805C140.615 262.805 141.406 262.198 141.661 261.627L141.696 261.548H143.226L143.208 261.618C142.883 262.901 141.529 264.167 139.297 264.167ZM139.191 255.721C137.785 255.721 136.713 256.679 136.546 258.48H141.784C141.626 256.608 140.589 255.721 139.191 255.721ZM150.644 259.605V258.182H156.55V259.605H150.644Z" fill="black"/>
<path d="M167.396 264.232C165.235 264.232 163.841 263.098 163.697 261.491L163.69 261.416H164.921L164.928 261.491C165.017 262.476 166.042 263.098 167.464 263.098C168.804 263.098 169.781 262.407 169.781 261.402V261.396C169.781 260.575 169.214 260.015 167.86 259.714L166.767 259.475C164.791 259.037 163.937 258.128 163.937 256.699V256.692C163.943 255.059 165.372 253.903 167.409 253.903C169.378 253.903 170.752 255.065 170.854 256.535L170.861 256.631H169.631L169.617 256.542C169.48 255.674 168.66 255.031 167.375 255.038C166.145 255.045 165.194 255.626 165.194 256.658V256.665C165.194 257.451 165.734 257.984 167.074 258.278L168.168 258.524C170.226 258.982 171.039 259.81 171.039 261.231V261.238C171.039 263.084 169.597 264.232 167.396 264.232ZM175.947 264.13C173.842 264.13 172.57 262.653 172.57 260.343V260.336C172.57 258.06 173.869 256.501 175.872 256.501C177.875 256.501 179.092 257.991 179.092 260.192V260.657H173.787C173.821 262.182 174.662 263.07 175.975 263.07C176.973 263.07 177.588 262.599 177.786 262.154L177.813 262.093H179.003L178.989 262.147C178.736 263.146 177.684 264.13 175.947 264.13ZM175.865 257.561C174.771 257.561 173.938 258.306 173.808 259.707H177.882C177.759 258.251 176.952 257.561 175.865 257.561ZM181.006 264V253.705H182.195V264H181.006ZM184.971 264V257.615H183.747V256.631H184.971V255.811C184.971 254.341 185.709 253.637 187.11 253.637C187.397 253.637 187.657 253.657 187.903 253.705V254.655C187.76 254.628 187.562 254.621 187.35 254.621C186.502 254.621 186.16 255.038 186.16 255.845V256.631H187.835V257.615H186.16V264H184.971ZM197.61 264.232C194.931 264.232 193.256 262.25 193.256 259.078V259.064C193.256 255.886 194.924 253.903 197.604 253.903C199.682 253.903 201.302 255.209 201.596 257.103L201.589 257.116H200.352L200.345 257.103C200.017 255.838 198.964 255.038 197.604 255.038C195.71 255.038 194.521 256.597 194.521 259.064V259.078C194.521 261.546 195.71 263.098 197.61 263.098C198.984 263.098 200.03 262.394 200.338 261.259L200.352 261.245H201.596V261.259C201.268 263.063 199.709 264.232 197.61 264.232ZM205.533 264.13C204.132 264.13 203.072 263.282 203.072 261.942V261.929C203.072 260.616 204.043 259.857 205.759 259.755L207.871 259.625V258.955C207.871 258.046 207.317 257.554 206.217 257.554C205.335 257.554 204.754 257.882 204.562 258.456L204.556 258.477H203.366L203.373 258.436C203.564 257.28 204.686 256.501 206.258 256.501C208.056 256.501 209.061 257.424 209.061 258.955V264H207.871V262.913H207.762C207.297 263.699 206.524 264.13 205.533 264.13ZM204.289 261.915C204.289 262.66 204.925 263.098 205.779 263.098C206.989 263.098 207.871 262.305 207.871 261.252V260.582L205.902 260.705C204.781 260.773 204.289 261.17 204.289 261.901V261.915ZM211.234 264V256.631H212.424V257.725H212.533C212.813 256.952 213.504 256.501 214.502 256.501C214.728 256.501 214.98 256.528 215.097 256.549V257.704C214.851 257.663 214.625 257.636 214.365 257.636C213.23 257.636 212.424 258.354 212.424 259.434V264H211.234ZM219.369 264.13C217.264 264.13 215.992 262.653 215.992 260.343V260.336C215.992 258.06 217.291 256.501 219.294 256.501C221.297 256.501 222.514 257.991 222.514 260.192V260.657H217.209C217.243 262.182 218.084 263.07 219.396 263.07C220.395 263.07 221.01 262.599 221.208 262.154L221.235 262.093H222.425L222.411 262.147C222.158 263.146 221.105 264.13 219.369 264.13ZM219.287 257.561C218.193 257.561 217.359 258.306 217.229 259.707H221.304C221.181 258.251 220.374 257.561 219.287 257.561ZM231.011 264V255.243H227.832V254.136H235.42V255.243H232.241V264H231.011ZM237.662 255.209C237.211 255.209 236.842 254.84 236.842 254.389C236.842 253.938 237.211 253.568 237.662 253.568C238.113 253.568 238.482 253.938 238.482 254.389C238.482 254.84 238.113 255.209 237.662 255.209ZM237.061 264V256.631H238.25V264H237.061ZM240.492 264V256.631H241.682V257.752H241.791C242.119 256.959 242.816 256.501 243.78 256.501C244.778 256.501 245.476 257.027 245.817 257.793H245.927C246.323 257.014 247.164 256.501 248.183 256.501C249.687 256.501 250.527 257.362 250.527 258.907V264H249.338V259.181C249.338 258.094 248.839 257.554 247.8 257.554C246.774 257.554 246.098 258.326 246.098 259.263V264H244.908V258.996C244.908 258.121 244.307 257.554 243.377 257.554C242.413 257.554 241.682 258.395 241.682 259.434V264H240.492ZM255.682 264.13C253.576 264.13 252.305 262.653 252.305 260.343V260.336C252.305 258.06 253.604 256.501 255.606 256.501C257.609 256.501 258.826 257.991 258.826 260.192V260.657H253.521C253.556 262.182 254.396 263.07 255.709 263.07C256.707 263.07 257.322 262.599 257.521 262.154L257.548 262.093H258.737L258.724 262.147C258.471 263.146 257.418 264.13 255.682 264.13ZM255.6 257.561C254.506 257.561 253.672 258.306 253.542 259.707H257.616C257.493 258.251 256.687 257.561 255.6 257.561Z" fill="black" fill-opacity="0.8"/>
<path fill-rule="evenodd" clip-rule="evenodd" d="M12 303C18.6274 303 24 297.627 24 291C24 284.373 18.6274 279 12 279C5.37258 279 0 284.373 0 291C0 297.627 5.37258 303 12 303Z" fill="#91C8C3"/>
<path d="M33.6172 299V286.317H37.9678C41.7295 286.317 43.9531 288.664 43.9531 292.646V292.663C43.9531 296.653 41.7383 299 37.9678 299H33.6172ZM35.1992 297.576H37.8623C40.6924 297.576 42.3359 295.766 42.3359 292.681V292.663C42.3359 289.569 40.6748 287.741 37.8623 287.741H35.1992V297.576ZM50.3955 299.167C47.6973 299.167 46.0273 297.304 46.0273 294.271V294.254C46.0273 291.213 47.6973 289.358 50.3955 289.358C53.0938 289.358 54.7637 291.213 54.7637 294.254V294.271C54.7637 297.304 53.0938 299.167 50.3955 299.167ZM50.3955 297.813C52.1885 297.813 53.1992 296.504 53.1992 294.271V294.254C53.1992 292.013 52.1885 290.712 50.3955 290.712C48.6025 290.712 47.5918 292.013 47.5918 294.254V294.271C47.5918 296.504 48.6025 297.813 50.3955 297.813ZM62.3926 299V286.317H67.1738C69.5557 286.317 71.2432 287.961 71.2432 290.369V290.387C71.2432 292.795 69.5557 294.474 67.1738 294.474H63.9746V299H62.3926ZM66.7695 287.724H63.9746V293.067H66.7695C68.5801 293.067 69.626 292.074 69.626 290.404V290.387C69.626 288.717 68.5801 287.724 66.7695 287.724ZM73.7305 299V285.764H75.2598V290.949H75.4004C75.875 289.947 76.7627 289.358 78.1602 289.358C80.2871 289.358 81.4736 290.615 81.4736 292.865V299H79.9443V293.234C79.9443 291.529 79.2412 290.712 77.7295 290.712C76.2178 290.712 75.2598 291.731 75.2598 293.393V299H73.7305ZM86.8438 299.167C85.042 299.167 83.6797 298.077 83.6797 296.354V296.337C83.6797 294.649 84.9277 293.674 87.1338 293.542L89.8496 293.375V292.514C89.8496 291.345 89.1377 290.712 87.7227 290.712C86.5889 290.712 85.8418 291.134 85.5957 291.872L85.5869 291.898H84.0576L84.0664 291.846C84.3125 290.36 85.7539 289.358 87.7754 289.358C90.0869 289.358 91.3789 290.545 91.3789 292.514V299H89.8496V297.603H89.709C89.1113 298.613 88.1182 299.167 86.8438 299.167ZM85.2441 296.319C85.2441 297.277 86.0615 297.84 87.1602 297.84C88.7158 297.84 89.8496 296.82 89.8496 295.467V294.605L87.3184 294.764C85.877 294.852 85.2441 295.361 85.2441 296.302V296.319ZM97.4258 299.167C95.3164 299.167 93.8662 298.147 93.6904 296.583H95.2549C95.5098 297.374 96.2656 297.893 97.4785 297.893C98.7529 297.893 99.6582 297.286 99.6582 296.425V296.407C99.6582 295.766 99.1748 295.317 98.0059 295.036L96.5381 294.685C94.7627 294.263 93.9629 293.489 93.9629 292.127V292.118C93.9629 290.545 95.4746 289.358 97.4873 289.358C99.4736 289.358 100.854 290.352 101.064 291.898H99.5615C99.3594 291.151 98.6211 290.633 97.4785 290.633C96.3535 290.633 95.5273 291.213 95.5273 292.048V292.065C95.5273 292.707 96.002 293.111 97.1182 293.384L98.5771 293.735C100.361 294.166 101.223 294.939 101.223 296.293V296.311C101.223 297.998 99.5791 299.167 97.4258 299.167ZM107.463 299.167C104.756 299.167 103.121 297.269 103.121 294.298V294.289C103.121 291.362 104.791 289.358 107.366 289.358C109.941 289.358 111.506 291.274 111.506 294.104V294.702H104.686C104.729 296.662 105.811 297.805 107.498 297.805C108.781 297.805 109.572 297.198 109.827 296.627L109.862 296.548H111.392L111.374 296.618C111.049 297.901 109.695 299.167 107.463 299.167ZM107.357 290.721C105.951 290.721 104.879 291.679 104.712 293.48H109.95C109.792 291.608 108.755 290.721 107.357 290.721ZM118.81 294.605V293.182H124.716V294.605H118.81Z" fill="black"/>
<path d="M132.328 299V289.136H136.095C137.995 289.136 139.239 290.298 139.239 292.068V292.082C139.239 293.449 138.494 294.516 137.257 294.905L139.54 299H138.098L135.985 295.097H133.559V299H132.328ZM133.559 294.003H135.985C137.25 294.003 137.968 293.326 137.968 292.123V292.109C137.968 290.934 137.202 290.229 135.931 290.229H133.559V294.003ZM144.127 299.13C142.021 299.13 140.75 297.653 140.75 295.343V295.336C140.75 293.06 142.049 291.501 144.052 291.501C146.055 291.501 147.271 292.991 147.271 295.192V295.657H141.967C142.001 297.182 142.842 298.07 144.154 298.07C145.152 298.07 145.768 297.599 145.966 297.154L145.993 297.093H147.183L147.169 297.147C146.916 298.146 145.863 299.13 144.127 299.13ZM144.045 292.561C142.951 292.561 142.117 293.306 141.987 294.707H146.062C145.938 293.251 145.132 292.561 144.045 292.561ZM149.117 299V291.631H150.307V292.738H150.416C150.785 291.959 151.476 291.501 152.562 291.501C154.217 291.501 155.14 292.479 155.14 294.229V299H153.95V294.516C153.95 293.189 153.403 292.554 152.228 292.554C151.052 292.554 150.307 293.347 150.307 294.639V299H149.117ZM160.301 299.13C158.195 299.13 156.924 297.653 156.924 295.343V295.336C156.924 293.06 158.223 291.501 160.226 291.501C162.229 291.501 163.445 292.991 163.445 295.192V295.657H158.141C158.175 297.182 159.016 298.07 160.328 298.07C161.326 298.07 161.941 297.599 162.14 297.154L162.167 297.093H163.356L163.343 297.147C163.09 298.146 162.037 299.13 160.301 299.13ZM160.219 292.561C159.125 292.561 158.291 293.306 158.161 294.707H162.235C162.112 293.251 161.306 292.561 160.219 292.561ZM166.713 299L164.648 291.631H165.838L167.287 297.523H167.396L169.044 291.631H170.172L171.819 297.523H171.929L173.378 291.631H174.561L172.496 299H171.3L169.652 293.299H169.543L167.902 299H166.713ZM178.867 299.13C176.762 299.13 175.49 297.653 175.49 295.343V295.336C175.49 293.06 176.789 291.501 178.792 291.501C180.795 291.501 182.012 292.991 182.012 295.192V295.657H176.707C176.741 297.182 177.582 298.07 178.895 298.07C179.893 298.07 180.508 297.599 180.706 297.154L180.733 297.093H181.923L181.909 297.147C181.656 298.146 180.604 299.13 178.867 299.13ZM178.785 292.561C177.691 292.561 176.857 293.306 176.728 294.707H180.802C180.679 293.251 179.872 292.561 178.785 292.561ZM186.578 299.13C184.712 299.13 183.488 297.619 183.488 295.322V295.309C183.488 292.998 184.705 291.501 186.578 291.501C187.59 291.501 188.472 292.007 188.875 292.793H188.984V288.705H190.174V299H188.984V297.824H188.875C188.424 298.645 187.604 299.13 186.578 299.13ZM186.852 298.077C188.191 298.077 189.012 297.024 189.012 295.322V295.309C189.012 293.606 188.191 292.554 186.852 292.554C185.505 292.554 184.705 293.593 184.705 295.309V295.322C184.705 297.038 185.505 298.077 186.852 298.077ZM195.759 299L199.396 289.136H200.612L204.249 299H202.957L201.966 296.177H198.042L197.051 299H195.759ZM199.949 290.729L198.404 295.131H201.604L200.059 290.729H199.949ZM205.828 299V291.631H207.018V292.738H207.127C207.496 291.959 208.187 291.501 209.273 291.501C210.928 291.501 211.851 292.479 211.851 294.229V299H210.661V294.516C210.661 293.189 210.114 292.554 208.938 292.554C207.763 292.554 207.018 293.347 207.018 294.639V299H205.828ZM216.725 299.13C214.858 299.13 213.635 297.619 213.635 295.322V295.309C213.635 292.998 214.852 291.501 216.725 291.501C217.736 291.501 218.618 292.007 219.021 292.793H219.131V288.705H220.32V299H219.131V297.824H219.021C218.57 298.645 217.75 299.13 216.725 299.13ZM216.998 298.077C218.338 298.077 219.158 297.024 219.158 295.322V295.309C219.158 293.606 218.338 292.554 216.998 292.554C215.651 292.554 214.852 293.593 214.852 295.309V295.322C214.852 297.038 215.651 298.077 216.998 298.077ZM226.691 299V289.136H228.12L231.497 297.366H231.606L234.983 289.136H236.412V299H235.264V291.467H235.188L232.071 299H231.032L227.915 291.467H227.84V299H226.691ZM241.806 299.13C239.707 299.13 238.408 297.681 238.408 295.322V295.309C238.408 292.943 239.707 291.501 241.806 291.501C243.904 291.501 245.203 292.943 245.203 295.309V295.322C245.203 297.681 243.904 299.13 241.806 299.13ZM241.806 298.077C243.2 298.077 243.986 297.059 243.986 295.322V295.309C243.986 293.565 243.2 292.554 241.806 292.554C240.411 292.554 239.625 293.565 239.625 295.309V295.322C239.625 297.059 240.411 298.077 241.806 298.077ZM249.667 299.055C248.149 299.055 247.514 298.494 247.514 297.086V292.615H246.352V291.631H247.514V289.724H248.744V291.631H250.357V292.615H248.744V296.785C248.744 297.653 249.045 298.002 249.811 298.002C250.022 298.002 250.139 297.995 250.357 297.975V298.986C250.125 299.027 249.899 299.055 249.667 299.055ZM252.764 290.209C252.312 290.209 251.943 289.84 251.943 289.389C251.943 288.938 252.312 288.568 252.764 288.568C253.215 288.568 253.584 288.938 253.584 289.389C253.584 289.84 253.215 290.209 252.764 290.209ZM252.162 299V291.631H253.352V299H252.162ZM257.679 299L254.951 291.631H256.209L258.226 297.701H258.335L260.352 291.631H261.609L258.882 299H257.679ZM264.932 299.13C263.53 299.13 262.471 298.282 262.471 296.942V296.929C262.471 295.616 263.441 294.857 265.157 294.755L267.27 294.625V293.955C267.27 293.046 266.716 292.554 265.615 292.554C264.733 292.554 264.152 292.882 263.961 293.456L263.954 293.477H262.765L262.771 293.436C262.963 292.28 264.084 291.501 265.656 291.501C267.454 291.501 268.459 292.424 268.459 293.955V299H267.27V297.913H267.16C266.695 298.699 265.923 299.13 264.932 299.13ZM263.688 296.915C263.688 297.66 264.323 298.098 265.178 298.098C266.388 298.098 267.27 297.305 267.27 296.252V295.582L265.301 295.705C264.18 295.773 263.688 296.17 263.688 296.901V296.915ZM273.251 299.055C271.733 299.055 271.098 298.494 271.098 297.086V292.615H269.936V291.631H271.098V289.724H272.328V291.631H273.941V292.615H272.328V296.785C272.328 297.653 272.629 298.002 273.395 298.002C273.606 298.002 273.723 297.995 273.941 297.975V298.986C273.709 299.027 273.483 299.055 273.251 299.055ZM278.617 299.13C276.512 299.13 275.24 297.653 275.24 295.343V295.336C275.24 293.06 276.539 291.501 278.542 291.501C280.545 291.501 281.762 292.991 281.762 295.192V295.657H276.457C276.491 297.182 277.332 298.07 278.645 298.07C279.643 298.07 280.258 297.599 280.456 297.154L280.483 297.093H281.673L281.659 297.147C281.406 298.146 280.354 299.13 278.617 299.13ZM278.535 292.561C277.441 292.561 276.607 293.306 276.478 294.707H280.552C280.429 293.251 279.622 292.561 278.535 292.561ZM286.328 299.13C284.462 299.13 283.238 297.619 283.238 295.322V295.309C283.238 292.998 284.455 291.501 286.328 291.501C287.34 291.501 288.222 292.007 288.625 292.793H288.734V288.705H289.924V299H288.734V297.824H288.625C288.174 298.645 287.354 299.13 286.328 299.13ZM286.602 298.077C287.941 298.077 288.762 297.024 288.762 295.322V295.309C288.762 293.606 287.941 292.554 286.602 292.554C285.255 292.554 284.455 293.593 284.455 295.309V295.322C284.455 297.038 285.255 298.077 286.602 298.077Z" fill="black" fill-opacity="0.8"/>
<path fill-rule="evenodd" clip-rule="evenodd" d="M12 339.5C18.6274 339.5 24 334.127 24 327.5C24 320.873 18.6274 315.5 12 315.5C5.37258 315.5 0 320.873 0 327.5C0 334.127 5.37258 339.5 12 339.5Z" fill="#FEFACA"/>
<path d="M38.873 334.299C35.3662 334.299 33.125 331.715 33.125 327.663V327.646C33.125 323.646 35.4014 321.019 38.873 321.019C41.6855 321.019 43.6631 322.601 44.1641 325.009L44.1816 325.097H42.582L42.5557 325.009C42.0371 323.374 40.7627 322.478 38.873 322.478C36.3594 322.478 34.7422 324.499 34.7422 327.646V327.663C34.7422 330.854 36.333 332.84 38.8818 332.84C41.1494 332.84 42.6787 331.39 42.6787 329.245V328.938H39.1191V327.549H44.2607V329.096C44.2607 332.225 42.1162 334.299 38.873 334.299ZM47.6797 322.697C47.0996 322.697 46.625 322.223 46.625 321.643C46.625 321.062 47.0996 320.588 47.6797 320.588C48.2598 320.588 48.7344 321.062 48.7344 321.643C48.7344 322.223 48.2598 322.697 47.6797 322.697ZM46.9062 334V324.525H48.4355V334H46.9062ZM53.999 334L50.4922 324.525H52.1094L54.7021 332.33H54.8428L57.4355 324.525H59.0527L55.5459 334H53.999ZM64.5898 334.167C61.8828 334.167 60.248 332.269 60.248 329.298V329.289C60.248 326.362 61.918 324.358 64.4932 324.358C67.0684 324.358 68.6328 326.274 68.6328 329.104V329.702H61.8125C61.8564 331.662 62.9375 332.805 64.625 332.805C65.9082 332.805 66.6992 332.198 66.9541 331.627L66.9893 331.548H68.5186L68.501 331.618C68.1758 332.901 66.8223 334.167 64.5898 334.167ZM64.4844 325.721C63.0781 325.721 62.0059 326.679 61.8389 328.48H67.0771C66.9189 326.608 65.8818 325.721 64.4844 325.721ZM76.2617 334V321.317H81.043C83.4248 321.317 85.1123 322.961 85.1123 325.369V325.387C85.1123 327.795 83.4248 329.474 81.043 329.474H77.8438V334H76.2617ZM80.6387 322.724H77.8438V328.067H80.6387C82.4492 328.067 83.4951 327.074 83.4951 325.404V325.387C83.4951 323.717 82.4492 322.724 80.6387 322.724ZM87.5996 334V320.764H89.1289V325.949H89.2695C89.7441 324.947 90.6318 324.358 92.0293 324.358C94.1562 324.358 95.3428 325.615 95.3428 327.865V334H93.8135V328.234C93.8135 326.529 93.1104 325.712 91.5986 325.712C90.0869 325.712 89.1289 326.731 89.1289 328.393V334H87.5996ZM100.713 334.167C98.9111 334.167 97.5488 333.077 97.5488 331.354V331.337C97.5488 329.649 98.7969 328.674 101.003 328.542L103.719 328.375V327.514C103.719 326.345 103.007 325.712 101.592 325.712C100.458 325.712 99.7109 326.134 99.4648 326.872L99.4561 326.898H97.9268L97.9355 326.846C98.1816 325.36 99.623 324.358 101.645 324.358C103.956 324.358 105.248 325.545 105.248 327.514V334H103.719V332.603H103.578C102.98 333.613 101.987 334.167 100.713 334.167ZM99.1133 331.319C99.1133 332.277 99.9307 332.84 101.029 332.84C102.585 332.84 103.719 331.82 103.719 330.467V329.605L101.188 329.764C99.7461 329.852 99.1133 330.361 99.1133 331.302V331.319ZM111.295 334.167C109.186 334.167 107.735 333.147 107.56 331.583H109.124C109.379 332.374 110.135 332.893 111.348 332.893C112.622 332.893 113.527 332.286 113.527 331.425V331.407C113.527 330.766 113.044 330.317 111.875 330.036L110.407 329.685C108.632 329.263 107.832 328.489 107.832 327.127V327.118C107.832 325.545 109.344 324.358 111.356 324.358C113.343 324.358 114.723 325.352 114.934 326.898H113.431C113.229 326.151 112.49 325.633 111.348 325.633C110.223 325.633 109.396 326.213 109.396 327.048V327.065C109.396 327.707 109.871 328.111 110.987 328.384L112.446 328.735C114.23 329.166 115.092 329.939 115.092 331.293V331.311C115.092 332.998 113.448 334.167 111.295 334.167ZM121.332 334.167C118.625 334.167 116.99 332.269 116.99 329.298V329.289C116.99 326.362 118.66 324.358 121.235 324.358C123.811 324.358 125.375 326.274 125.375 329.104V329.702H118.555C118.599 331.662 119.68 332.805 121.367 332.805C122.65 332.805 123.441 332.198 123.696 331.627L123.731 331.548H125.261L125.243 331.618C124.918 332.901 123.564 334.167 121.332 334.167ZM121.227 325.721C119.82 325.721 118.748 326.679 118.581 328.48H123.819C123.661 326.608 122.624 325.721 121.227 325.721ZM132.679 329.605V328.182H138.585V329.605H132.679Z" fill="black"/>
<path d="M146.197 334V324.136H149.916C151.769 324.136 153.081 325.414 153.081 327.287V327.301C153.081 329.174 151.769 330.479 149.916 330.479H147.428V334H146.197ZM149.602 325.229H147.428V329.386H149.602C151.01 329.386 151.823 328.613 151.823 327.314V327.301C151.823 326.002 151.01 325.229 149.602 325.229ZM154.947 334V326.631H156.137V327.725H156.246C156.526 326.952 157.217 326.501 158.215 326.501C158.44 326.501 158.693 326.528 158.81 326.549V327.704C158.563 327.663 158.338 327.636 158.078 327.636C156.943 327.636 156.137 328.354 156.137 329.434V334H154.947ZM163.103 334.13C161.004 334.13 159.705 332.681 159.705 330.322V330.309C159.705 327.943 161.004 326.501 163.103 326.501C165.201 326.501 166.5 327.943 166.5 330.309V330.322C166.5 332.681 165.201 334.13 163.103 334.13ZM163.103 333.077C164.497 333.077 165.283 332.059 165.283 330.322V330.309C165.283 328.565 164.497 327.554 163.103 327.554C161.708 327.554 160.922 328.565 160.922 330.309V330.322C160.922 332.059 161.708 333.077 163.103 333.077ZM171.066 334.13C169.2 334.13 167.977 332.619 167.977 330.322V330.309C167.977 327.998 169.193 326.501 171.066 326.501C172.078 326.501 172.96 327.007 173.363 327.793H173.473V323.705H174.662V334H173.473V332.824H173.363C172.912 333.645 172.092 334.13 171.066 334.13ZM171.34 333.077C172.68 333.077 173.5 332.024 173.5 330.322V330.309C173.5 328.606 172.68 327.554 171.34 327.554C169.993 327.554 169.193 328.593 169.193 330.309V330.322C169.193 332.038 169.993 333.077 171.34 333.077ZM179.413 334.13C177.738 334.13 176.877 333.146 176.877 331.402V326.631H178.066V331.115C178.066 332.441 178.545 333.077 179.721 333.077C181.02 333.077 181.71 332.284 181.71 330.992V326.631H182.899V334H181.71V332.899H181.601C181.238 333.686 180.493 334.13 179.413 334.13ZM188.136 334.13C186.071 334.13 184.752 332.633 184.752 330.295V330.281C184.752 327.991 186.064 326.501 188.129 326.501C189.92 326.501 190.993 327.533 191.212 328.846L191.219 328.887H190.036L190.029 328.866C189.845 328.142 189.188 327.554 188.129 327.554C186.803 327.554 185.969 328.62 185.969 330.281V330.295C185.969 331.99 186.816 333.077 188.129 333.077C189.12 333.077 189.749 332.64 190.022 331.819L190.036 331.778L191.212 331.771L191.198 331.847C190.897 333.18 189.906 334.13 188.136 334.13ZM195.71 334.055C194.192 334.055 193.557 333.494 193.557 332.086V327.615H192.395V326.631H193.557V324.724H194.787V326.631H196.4V327.615H194.787V331.785C194.787 332.653 195.088 333.002 195.854 333.002C196.065 333.002 196.182 332.995 196.4 332.975V333.986C196.168 334.027 195.942 334.055 195.71 334.055ZM198.807 325.209C198.355 325.209 197.986 324.84 197.986 324.389C197.986 323.938 198.355 323.568 198.807 323.568C199.258 323.568 199.627 323.938 199.627 324.389C199.627 324.84 199.258 325.209 198.807 325.209ZM198.205 334V326.631H199.395V334H198.205ZM203.722 334L200.994 326.631H202.252L204.269 332.701H204.378L206.395 326.631H207.652L204.925 334H203.722ZM211.959 334.13C209.854 334.13 208.582 332.653 208.582 330.343V330.336C208.582 328.06 209.881 326.501 211.884 326.501C213.887 326.501 215.104 327.991 215.104 330.192V330.657H209.799C209.833 332.182 210.674 333.07 211.986 333.07C212.984 333.07 213.6 332.599 213.798 332.154L213.825 332.093H215.015L215.001 332.147C214.748 333.146 213.695 334.13 211.959 334.13ZM211.877 327.561C210.783 327.561 209.949 328.306 209.819 329.707H213.894C213.771 328.251 212.964 327.561 211.877 327.561Z" fill="black" fill-opacity="0.8"/>
<path fill-rule="evenodd" clip-rule="evenodd" d="M12 374.5C18.6274 374.5 24 369.127 24 362.5C24 355.873 18.6274 350.5 12 350.5C5.37258 350.5 0 355.873 0 362.5C0 369.127 5.37258 374.5 12 374.5Z" fill="#A0A7D6"/>
<path d="M36.9131 369V357.741H32.8262V356.317H42.582V357.741H38.4951V369H36.9131ZM45.5879 369.167C43.7861 369.167 42.4238 368.077 42.4238 366.354V366.337C42.4238 364.649 43.6719 363.674 45.8779 363.542L48.5938 363.375V362.514C48.5938 361.345 47.8818 360.712 46.4668 360.712C45.333 360.712 44.5859 361.134 44.3398 361.872L44.3311 361.898H42.8018L42.8105 361.846C43.0566 360.36 44.498 359.358 46.5195 359.358C48.8311 359.358 50.123 360.545 50.123 362.514V369H48.5938V367.603H48.4531C47.8555 368.613 46.8623 369.167 45.5879 369.167ZM43.9883 366.319C43.9883 367.277 44.8057 367.84 45.9043 367.84C47.46 367.84 48.5938 366.82 48.5938 365.467V364.605L46.0625 364.764C44.6211 364.852 43.9883 365.361 43.9883 366.302V366.319ZM53.0059 369V355.764H54.5352V363.665H54.6758L58.7715 359.525H60.626L56.4951 363.507L60.8984 369H58.9736L55.4229 364.544L54.5352 365.405V369H53.0059ZM66.1191 369.167C63.4121 369.167 61.7773 367.269 61.7773 364.298V364.289C61.7773 361.362 63.4473 359.358 66.0225 359.358C68.5977 359.358 70.1621 361.274 70.1621 364.104V364.702H63.3418C63.3857 366.662 64.4668 367.805 66.1543 367.805C67.4375 367.805 68.2285 367.198 68.4834 366.627L68.5186 366.548H70.0479L70.0303 366.618C69.7051 367.901 68.3516 369.167 66.1191 369.167ZM66.0137 360.721C64.6074 360.721 63.5352 361.679 63.3682 363.48H68.6064C68.4482 361.608 67.4111 360.721 66.0137 360.721ZM77.791 369V356.317H82.5723C84.9541 356.317 86.6416 357.961 86.6416 360.369V360.387C86.6416 362.795 84.9541 364.474 82.5723 364.474H79.373V369H77.791ZM82.168 357.724H79.373V363.067H82.168C83.9785 363.067 85.0244 362.074 85.0244 360.404V360.387C85.0244 358.717 83.9785 357.724 82.168 357.724ZM89.1289 369V355.764H90.6582V360.949H90.7988C91.2734 359.947 92.1611 359.358 93.5586 359.358C95.6855 359.358 96.8721 360.615 96.8721 362.865V369H95.3428V363.234C95.3428 361.529 94.6396 360.712 93.1279 360.712C91.6162 360.712 90.6582 361.731 90.6582 363.393V369H89.1289ZM102.242 369.167C100.44 369.167 99.0781 368.077 99.0781 366.354V366.337C99.0781 364.649 100.326 363.674 102.532 363.542L105.248 363.375V362.514C105.248 361.345 104.536 360.712 103.121 360.712C101.987 360.712 101.24 361.134 100.994 361.872L100.985 361.898H99.4561L99.4648 361.846C99.7109 360.36 101.152 359.358 103.174 359.358C105.485 359.358 106.777 360.545 106.777 362.514V369H105.248V367.603H105.107C104.51 368.613 103.517 369.167 102.242 369.167ZM100.643 366.319C100.643 367.277 101.46 367.84 102.559 367.84C104.114 367.84 105.248 366.82 105.248 365.467V364.605L102.717 364.764C101.275 364.852 100.643 365.361 100.643 366.302V366.319ZM112.824 369.167C110.715 369.167 109.265 368.147 109.089 366.583H110.653C110.908 367.374 111.664 367.893 112.877 367.893C114.151 367.893 115.057 367.286 115.057 366.425V366.407C115.057 365.766 114.573 365.317 113.404 365.036L111.937 364.685C110.161 364.263 109.361 363.489 109.361 362.127V362.118C109.361 360.545 110.873 359.358 112.886 359.358C114.872 359.358 116.252 360.352 116.463 361.898H114.96C114.758 361.151 114.02 360.633 112.877 360.633C111.752 360.633 110.926 361.213 110.926 362.048V362.065C110.926 362.707 111.4 363.111 112.517 363.384L113.976 363.735C115.76 364.166 116.621 364.939 116.621 366.293V366.311C116.621 367.998 114.978 369.167 112.824 369.167ZM122.861 369.167C120.154 369.167 118.52 367.269 118.52 364.298V364.289C118.52 361.362 120.189 359.358 122.765 359.358C125.34 359.358 126.904 361.274 126.904 364.104V364.702H120.084C120.128 366.662 121.209 367.805 122.896 367.805C124.18 367.805 124.971 367.198 125.226 366.627L125.261 366.548H126.79L126.772 366.618C126.447 367.901 125.094 369.167 122.861 369.167ZM122.756 360.721C121.35 360.721 120.277 361.679 120.11 363.48H125.349C125.19 361.608 124.153 360.721 122.756 360.721ZM134.208 364.605V363.182H140.114V364.605H134.208Z" fill="black"/>
<path d="M150.96 369.232C148.8 369.232 147.405 368.098 147.262 366.491L147.255 366.416H148.485L148.492 366.491C148.581 367.476 149.606 368.098 151.028 368.098C152.368 368.098 153.346 367.407 153.346 366.402V366.396C153.346 365.575 152.778 365.015 151.425 364.714L150.331 364.475C148.355 364.037 147.501 363.128 147.501 361.699V361.692C147.508 360.059 148.937 358.903 150.974 358.903C152.942 358.903 154.316 360.065 154.419 361.535L154.426 361.631H153.195L153.182 361.542C153.045 360.674 152.225 360.031 150.939 360.038C149.709 360.045 148.759 360.626 148.759 361.658V361.665C148.759 362.451 149.299 362.984 150.639 363.278L151.732 363.524C153.79 363.982 154.604 364.81 154.604 366.231V366.238C154.604 368.084 153.161 369.232 150.96 369.232ZM156.572 369V358.705H157.762V369H156.572ZM163.073 369.13C160.975 369.13 159.676 367.681 159.676 365.322V365.309C159.676 362.943 160.975 361.501 163.073 361.501C165.172 361.501 166.471 362.943 166.471 365.309V365.322C166.471 367.681 165.172 369.13 163.073 369.13ZM163.073 368.077C164.468 368.077 165.254 367.059 165.254 365.322V365.309C165.254 363.565 164.468 362.554 163.073 362.554C161.679 362.554 160.893 363.565 160.893 365.309V365.322C160.893 367.059 161.679 368.077 163.073 368.077ZM169.465 369L167.4 361.631H168.59L170.039 367.523H170.148L171.796 361.631H172.924L174.571 367.523H174.681L176.13 361.631H177.312L175.248 369H174.052L172.404 363.299H172.295L170.654 369H169.465ZM182.973 369V359.136H186.356C189.282 359.136 191.012 360.961 191.012 364.058V364.071C191.012 367.175 189.289 369 186.356 369H182.973ZM184.203 367.893H186.274C188.476 367.893 189.754 366.484 189.754 364.085V364.071C189.754 361.665 188.462 360.243 186.274 360.243H184.203V367.893ZM196.022 369.13C193.924 369.13 192.625 367.681 192.625 365.322V365.309C192.625 362.943 193.924 361.501 196.022 361.501C198.121 361.501 199.42 362.943 199.42 365.309V365.322C199.42 367.681 198.121 369.13 196.022 369.13ZM196.022 368.077C197.417 368.077 198.203 367.059 198.203 365.322V365.309C198.203 363.565 197.417 362.554 196.022 362.554C194.628 362.554 193.842 363.565 193.842 365.309V365.322C193.842 367.059 194.628 368.077 196.022 368.077ZM202.414 369L200.35 361.631H201.539L202.988 367.523H203.098L204.745 361.631H205.873L207.521 367.523H207.63L209.079 361.631H210.262L208.197 369H207.001L205.354 363.299H205.244L203.604 369H202.414ZM211.834 369V361.631H213.023V362.738H213.133C213.502 361.959 214.192 361.501 215.279 361.501C216.934 361.501 217.856 362.479 217.856 364.229V369H216.667V364.516C216.667 363.189 216.12 362.554 214.944 362.554C213.769 362.554 213.023 363.347 213.023 364.639V369H211.834Z" fill="black" fill-opacity="0.8"/>
</svg>
