<svg width="32" height="32" viewBox="0 0 32 32" fill="none" xmlns="http://www.w3.org/2000/svg">
<path d="M10.0013 5.33301C8.05638 5.33301 6.19112 6.10562 4.81585 7.48089C3.44059 8.85616 2.66797 10.7214 2.66797 12.6663C2.66797 13.333 2.78797 13.9997 2.9613 14.6663H8.4013L10.0946 10.173C10.4946 9.10634 12.068 8.99967 12.5746 10.173L15.3346 17.333L16.1213 15.4397C16.2946 14.9997 16.7613 14.6663 17.3346 14.6663H29.0413C29.2146 13.9997 29.3346 13.333 29.3346 12.6663C29.3346 10.7214 28.562 8.85616 27.1868 7.48089C25.8115 6.10562 23.9462 5.33301 22.0013 5.33301C19.5213 5.33301 17.3346 6.57301 16.0013 8.45301C14.668 6.57301 12.4813 5.33301 10.0013 5.33301ZM4.0013 16.6663C3.64768 16.6663 3.30854 16.8068 3.05849 17.0569C2.80844 17.3069 2.66797 17.6461 2.66797 17.9997C2.66797 18.3533 2.80844 18.6924 3.05849 18.9425C3.30854 19.1925 3.64768 19.333 4.0013 19.333H7.25464L14.668 26.6663C16.0013 27.8663 16.0013 27.8663 17.3346 26.6663L24.748 19.333H28.0013C28.3549 19.333 28.6941 19.1925 28.9441 18.9425C29.1942 18.6924 29.3346 18.3533 29.3346 17.9997C29.3346 17.6461 29.1942 17.3069 28.9441 17.0569C28.6941 16.8068 28.3549 16.6663 28.0013 16.6663H17.868L16.628 19.733C16.0946 21.0797 14.5613 20.893 14.068 19.773L11.3346 12.6663L10.0546 15.773C9.85463 16.2797 9.4013 16.6663 8.8013 16.6663H4.0013Z" fill="black"/>
</svg>
