<svg width="610" height="1362" viewBox="0 0 610 1362" fill="none" xmlns="http://www.w3.org/2000/svg">
<path fill-rule="evenodd" clip-rule="evenodd" d="M224.802 111.261C224.802 111.261 382.861 38.0364 455 39.5446V130.284C407.642 178.605 320.529 227.028 244.71 269.174C232.513 275.954 220.608 282.571 209.208 289C107.228 214.739 30 116.627 30 40.6522C32.9653 -58.1295 152.603 48.5235 202.932 93.3902C215.621 104.702 223.905 112.087 224.802 111.261Z" fill="#FAE2EC" fill-opacity="0.3"/>
<path d="M604.361 582.19C607.126 522.647 538.143 584.851 417.477 579.247C296.811 573.643 11.8402 407.227 9.07481 466.769C6.30947 526.312 260.204 674.25 380.869 679.854C501.535 685.458 601.596 641.732 604.361 582.19Z" fill="#F7F27D" fill-opacity="0.3"/>
<path fill-rule="evenodd" clip-rule="evenodd" d="M224.802 1184.26C224.802 1184.26 382.861 1111.04 455 1112.54V1203.28C407.642 1251.6 320.529 1300.03 244.71 1342.17C232.513 1348.95 220.608 1355.57 209.208 1362C107.228 1287.74 30 1189.63 30 1113.65C32.9653 1014.87 152.603 1121.52 202.932 1166.39C215.621 1177.7 223.905 1185.09 224.802 1184.26Z" fill="#FAE2EC" fill-opacity="0.3"/>
</svg>
