<svg width="1440" height="729" viewBox="0 0 1440 729" fill="none" xmlns="http://www.w3.org/2000/svg">
<path fill-rule="evenodd" clip-rule="evenodd" d="M974.5 279.482C974.5 279.482 1293.78 129.111 1439.5 132.208V318.547C1343.84 417.778 1167.87 517.219 1014.71 603.768C990.076 617.691 966.028 631.281 943 644.482C737 491.982 581 290.503 581 134.482C586.99 -68.3729 828.658 150.647 930.323 242.784C955.955 266.014 972.688 281.178 974.5 279.482Z" fill="#FAE2EC" fill-opacity="0.3"/>
<path fill-rule="evenodd" clip-rule="evenodd" d="M237.499 0.212353C223.284 31.8217 206.511 64.464 186.422 97.6172C148.756 159.779 80.6894 231.27 -0.189329 305.5L-0.189325 657.293C159.637 546.439 305.894 416.634 371.928 307.655C435.273 203.115 477.814 96.4305 498.461 0.212386L237.499 0.212353Z" fill="#F7F27D" fill-opacity="0.3"/>
</svg>
